<svg width="65" height="64" viewBox="0 0 65 64" fill="none" xmlns="http://www.w3.org/2000/svg">
<rect width="64" height="64" transform="translate(0.5)" fill="white"/>
<path d="M44.9705 10.5752H22.6475V50.311H44.9705V10.5752Z" fill="#0BB501"/>
<path d="M46.2432 7.4502H21.5762V10.5751H46.2432V7.4502Z" fill="white"/>
<path d="M45.4213 50.7628H22.1973V10.1245H45.4213V50.7628ZM23.0982 49.8619H44.5203V11.0255H23.0982V49.8619Z" fill="#076300"/>
<path d="M46.6915 11.0258H21.125V7H46.6915V11.0258ZM22.026 10.1249H45.7906V7.90097H22.026V10.1249Z" fill="#076300"/>
<path d="M31.6864 14.9209H27.6621V21.555H31.6864V14.9209Z" fill="#F5F5F5"/>
<path d="M35.7118 14.9209H31.6875V21.555H35.7118V14.9209Z" fill="#F5F5F5"/>
<path d="M39.7343 14.9209H35.71V21.555H39.7343V14.9209Z" fill="#F5F5F5"/>
<path d="M31.6864 24.9834H27.6621V31.6175H31.6864V24.9834Z" fill="#F5F5F5"/>
<path d="M35.7118 24.9834H31.6875V31.6175H35.7118V24.9834Z" fill="#F5F5F5"/>
<path d="M39.7343 24.9834H35.71V31.6175H39.7343V24.9834Z" fill="#F5F5F5"/>
<path d="M31.6864 35.0474H27.6621V41.6815H31.6864V35.0474Z" fill="#F5F5F5"/>
<path d="M35.7118 35.0474H31.6875V41.6815H35.7118V35.0474Z" fill="#F5F5F5"/>
<path d="M39.7343 35.0474H35.71V41.6815H39.7343V35.0474Z" fill="#F5F5F5"/>
<path d="M32.1382 22.0058H27.2129V14.4707H32.1382V22.0058ZM28.1139 21.1049H31.2372V15.3717H28.1139V21.1049Z" fill="#076300"/>
<path d="M36.1551 22.0058H31.2373V14.4707H36.1551V22.0058ZM32.1323 21.1049H35.2541V15.3717H32.1383L32.1323 21.1049Z" fill="#076300"/>
<path d="M40.1852 22.0058H35.2539V14.4707H40.1792L40.1852 22.0058ZM36.1609 21.1049H39.2842V15.3717H36.1549L36.1609 21.1049Z" fill="#076300"/>
<path d="M32.1382 32.0693H27.2129V24.5327H32.1382V32.0693ZM28.1139 31.1684H31.2372V25.4337H28.1139V31.1684Z" fill="#076300"/>
<path d="M36.1551 32.0693H31.2373V24.5327H36.1551V32.0693ZM32.1323 31.1684H35.2541V25.4337H32.1383L32.1323 31.1684Z" fill="#076300"/>
<path d="M40.1852 32.0693H35.2539V24.5327H40.1792L40.1852 32.0693ZM36.1609 31.1684H39.2842V25.4337H36.1549L36.1609 31.1684Z" fill="#076300"/>
<path d="M32.1382 42.1318H27.2129V34.5967H32.1382V42.1318ZM28.1139 41.2308H31.2372V35.4977H28.1139V41.2308Z" fill="#076300"/>
<path d="M36.1551 42.1318H31.2373V34.5967H36.1551V42.1318ZM32.1323 41.2308H35.2541V35.4977H32.1383L32.1323 41.2308Z" fill="#076300"/>
<path d="M40.1852 42.1318H35.2539V34.5967H40.1792L40.1852 42.1318ZM36.1609 41.2308H39.2842V35.4977H36.1549L36.1609 41.2308Z" fill="#076300"/>
<path d="M35.4327 45.6543H32V50.3108H35.4327V45.6543Z" fill="#076300"/>
<path style="mix-blend-mode:multiply" d="M51.5883 43.4065V47.767L10.0586 48.5351V41.3085H20.5003L21.6107 40.6698C23.0427 39.8505 24.6571 39.4028 26.3066 39.3675C27.9561 39.3322 29.5881 39.7106 31.0539 40.468C31.959 40.9339 32.9622 41.1773 33.9803 41.1779H37.5607C38.1928 41.1787 38.8178 41.3111 39.396 41.5665C39.9742 41.822 40.4929 42.195 40.9191 42.6618C41.3454 43.1285 41.6698 43.6789 41.8718 44.2779C42.0738 44.8769 42.1489 45.5113 42.0925 46.1409L51.5883 43.4065Z" fill="url(#paint0_linear_1787_4281)"/>
<path d="M37.5609 48.5306C37.9349 48.5411 38.3073 48.4765 38.6559 48.3406C39.0045 48.2047 39.3224 48.0002 39.5907 47.7394C39.8589 47.4785 40.0722 47.1665 40.2178 46.8218C40.3634 46.4771 40.4384 46.1067 40.4384 45.7326C40.4384 45.3584 40.3634 44.988 40.2178 44.6433C40.0722 44.2986 39.8589 43.9866 39.5907 43.7257C39.3224 43.4649 39.0045 43.2605 38.6559 43.1245C38.3073 42.9886 37.9349 42.924 37.5609 42.9345H33.9805C32.6824 42.9346 31.4031 42.6239 30.2497 42.0281C29.0439 41.405 27.7012 41.0938 26.3442 41.123C24.9871 41.1521 23.659 41.5206 22.481 42.1949L20.9668 43.0618H10.0127V55.5707L20.9668 52.7047L32.4651 56.3202C34.2271 56.8317 36.1034 56.7915 37.8418 56.205L52.6089 51.1323C53.3739 50.8681 54.0046 50.3143 54.3655 49.59C54.7264 48.8656 54.7886 48.0286 54.5387 47.2589C54.2889 46.4891 53.7469 45.8482 53.0294 45.4739C52.3119 45.0996 51.4761 45.0219 50.7019 45.2574L40.7715 48.4099C40.5016 48.4943 40.2204 48.5372 39.9376 48.5372L37.5609 48.5306Z" fill="#F5F5F5"/>
<path d="M32.3741 56.6293L20.9624 53.0401L10.0994 55.8831L9.93262 55.2456L20.9745 52.3554L32.5639 55.9994C34.2573 56.4925 36.0612 56.4542 37.7321 55.8897L52.497 50.8181C53.187 50.5875 53.758 50.0938 54.0858 49.4444C54.4137 48.795 54.4718 48.0424 54.2477 47.3503C54.0235 46.6582 53.5351 46.0827 52.8887 45.7488C52.2424 45.415 51.4904 45.3499 50.7963 45.5676L40.8659 48.7201C40.564 48.8145 40.2495 48.8626 39.9332 48.8627H31.0332V48.2044H37.5609C38.203 48.1852 38.8123 47.9167 39.2597 47.4558C39.707 46.9949 39.9573 46.3778 39.9573 45.7355C39.9573 45.0932 39.707 44.4761 39.2597 44.0152C38.8123 43.5543 38.203 43.2858 37.5609 43.2666H33.9805C32.6298 43.2655 31.2989 42.942 30.0983 42.323C28.9421 41.7228 27.6535 41.423 26.351 41.451C25.0485 41.4789 23.774 41.8339 22.6446 42.4832L21.0535 43.3939H10.0127V42.7355H20.8757L22.3143 41.9115C23.5392 41.2076 24.9215 40.8228 26.334 40.7925C27.7464 40.7622 29.1439 41.0873 30.3979 41.7381C31.5048 42.3088 32.7319 42.6071 33.9772 42.6083H37.5576C38.2092 42.6086 38.8445 42.8124 39.3746 43.1913C39.9047 43.5701 40.3032 44.1052 40.5145 44.7216C40.7258 45.338 40.7392 46.005 40.553 46.6294C40.3667 47.2538 39.9901 47.8044 39.4757 48.2044C39.9552 48.2044 40.2383 48.2252 40.6651 48.0947L50.5955 44.9422C51.4574 44.6622 52.3953 44.7361 53.2028 45.1477C54.0103 45.5593 54.6212 46.2747 54.9012 47.1367C55.1811 47.9987 55.1072 48.9366 54.6956 49.7441C54.2841 50.5516 53.5686 51.1625 52.7066 51.4424L37.9439 56.5097C36.1434 57.1196 34.199 57.1614 32.3741 56.6293Z" fill="#076300"/>
<path d="M45.7062 28.8494C49.4671 28.8494 52.5159 25.8006 52.5159 22.0397C52.5159 18.2788 49.4671 15.23 45.7062 15.23C41.9453 15.23 38.8965 18.2788 38.8965 22.0397C38.8965 25.8006 41.9453 28.8494 45.7062 28.8494Z" fill="#F5F5F5"/>
<path d="M45.7058 29.1787C44.294 29.1778 42.9142 28.7584 41.7408 27.9734C40.5674 27.1884 39.6531 26.0732 39.1134 24.7687C38.5738 23.4641 38.433 22.0289 38.709 20.6444C38.9849 19.2598 39.6652 17.9882 40.6638 16.9903C41.6623 15.9923 42.9344 15.3128 44.3191 15.0377C45.7037 14.7626 47.1389 14.9043 48.4431 15.4447C49.7473 15.9852 50.862 16.9002 51.6462 18.0741C52.4305 19.248 52.849 20.628 52.849 22.0398C52.8499 22.9779 52.6657 23.9069 52.307 24.7737C51.9482 25.6405 51.422 26.4281 50.7585 27.0912C50.095 27.7543 49.3071 28.2801 48.4401 28.6383C47.5731 28.9965 46.6439 29.1801 45.7058 29.1787ZM45.7058 15.5592C44.4239 15.5599 43.1711 15.9406 42.1056 16.6533C41.0401 17.3659 40.2098 18.3785 39.7198 19.563C39.2298 20.7475 39.1019 22.0507 39.3525 23.3078C39.603 24.5649 40.2207 25.7195 41.1274 26.6256C42.0341 27.5317 43.1892 28.1486 44.4465 28.3983C45.7037 28.648 47.0068 28.5193 48.191 28.0285C49.3751 27.5376 50.3872 26.7067 51.0991 25.6407C51.811 24.5747 52.1909 23.3216 52.1907 22.0398C52.1889 20.3208 51.505 18.6728 50.2891 17.4577C49.0732 16.2426 47.4247 15.5598 45.7058 15.5592Z" fill="#5E6175"/>
<path d="M47.7812 24.5395C47.3368 25.0223 47.0131 25.1682 45.7062 25.966L44.3994 25.1671C43.8759 24.8446 43.4432 24.3942 43.142 23.8582C42.8408 23.3222 42.681 22.7184 42.6777 22.1035V19.2956H43.6653C44.3771 19.2895 45.0763 19.1074 45.7007 18.7656C46.9077 19.368 47.5946 19.2956 48.7292 19.2956V22.1035C48.7287 23.0055 48.3905 23.8745 47.7812 24.5395Z" fill="#076300"/>
<defs>
<linearGradient id="paint0_linear_1787_4281" x1="16.4228" y1="43.9518" x2="48.2965" y2="43.9518" gradientUnits="userSpaceOnUse">
<stop stop-color="#CACFDD"/>
<stop offset="1" stop-color="#EEF0F1"/>
</linearGradient>
</defs>
</svg>
