<svg width="64" height="64" viewBox="0 0 64 64" fill="none" xmlns="http://www.w3.org/2000/svg">
<rect width="64" height="64" fill="white"/>
<path d="M14.3224 42.1016L8.10742 45.6753V54.4653H20.5374V45.6753L14.3224 42.1016Z" fill="#F5F5F5"/>
<path d="M29.2668 42.1016L23.0518 45.6753V54.4653H35.4818V45.6753L29.2668 42.1016Z" fill="#F5F5F5"/>
<path d="M21.7934 44.1361V46.2436H21.5221L14.3221 42.1011L7.12086 46.2436H6.84961V44.1361L14.3221 39.7349L21.7934 44.1361Z" fill="white"/>
<path d="M36.7377 44.1362V46.2437H36.4664L29.2664 42.1012L22.0652 46.2437H21.7939V44.1362L29.2664 40.0024L36.7377 44.1362Z" fill="white"/>
<path d="M51.6811 44.1361V46.2436H51.4098L44.2098 42.1011L37.0086 46.2436H36.7373V44.1361L44.2098 39.7349L51.6811 44.1361Z" fill="white"/>
<path d="M44.21 42.1016L38 45.6766V54.4653H50.425V45.6766L44.21 42.1016Z" fill="#F5F5F5"/>
<path d="M10.3047 42.1015V17.2715H32.4372V41.7527L29.2659 40.0027L21.7934 44.1365L14.3222 39.7352L10.3047 42.1015Z" fill="#F5F5F5"/>
<path d="M47.6637 16.9463V41.77L44.21 39.735L36.7375 44.1363L32.4375 41.75V23.7425L45.71 16.9463H47.6637Z" fill="#0BB501"/>
<path d="M17.1893 20.9478H13.8018V24.3353H17.1893V20.9478Z" fill="white"/>
<path d="M17.5643 24.7103H13.4268V20.5728H17.5643V24.7103ZM14.1768 23.9603H16.8143V21.3228H14.1768V23.9603Z" fill="#076300"/>
<path d="M23.1736 20.9478H19.7861V24.3353H23.1736V20.9478Z" fill="white"/>
<path d="M29.16 20.9478H25.7725V24.3353H29.16V20.9478Z" fill="white"/>
<path d="M17.1893 27.3262H13.8018V30.7137H17.1893V27.3262Z" fill="white"/>
<path d="M23.1736 27.3262H19.7861V30.7137H23.1736V27.3262Z" fill="white"/>
<path d="M29.16 27.3262H25.7725V30.7137H29.16V27.3262Z" fill="white"/>
<path d="M17.1893 33.8286H13.8018V37.2161H17.1893V33.8286Z" fill="white"/>
<path d="M23.1736 33.8286H19.7861V37.2161H23.1736V33.8286Z" fill="white"/>
<path d="M29.16 33.8286H25.7725V37.2161H29.16V33.8286Z" fill="white"/>
<path d="M23.5486 24.7103H19.4111V20.5728H23.5486V24.7103ZM20.1611 23.9603H22.7986V21.3228H20.1611V23.9603Z" fill="#076300"/>
<path d="M29.535 24.7103H25.3975V20.5728H29.535V24.7103ZM26.1475 23.9603H28.785V21.3228H26.1475V23.9603Z" fill="#076300"/>
<path d="M17.5643 31.0887H13.4268V26.9512H17.5643V31.0887ZM14.1768 30.3387H16.8143V27.7012H14.1768V30.3387Z" fill="#076300"/>
<path d="M23.5486 31.0887H19.4111V26.9512H23.5486V31.0887ZM20.1611 30.3387H22.7986V27.7012H20.1611V30.3387Z" fill="#076300"/>
<path d="M29.535 31.0887H25.3975V26.9512H29.535V31.0887ZM26.1475 30.3387H28.785V27.7012H26.1475V30.3387Z" fill="#076300"/>
<path d="M17.5643 37.5911H13.4268V33.4536H17.5643V37.5911ZM14.1768 36.8411H16.8143V34.2036H14.1768V36.8411Z" fill="#076300"/>
<path d="M23.5486 37.5911H19.4111V33.4536H23.5486V37.5911ZM20.1611 36.8411H22.7986V34.2036H20.1611V36.8411Z" fill="#076300"/>
<path d="M29.535 37.5911H25.3975V33.4536H29.535V37.5911ZM26.1475 36.8411H28.785V34.2036H26.1475V36.8411Z" fill="#076300"/>
<path d="M29.1577 15.0039H13.8027V17.2714H29.1577V15.0039Z" fill="white"/>
<path d="M21.7872 44.5677L14.3222 40.1715L9.92969 42.7577V16.8965H32.8122V42.389L29.2659 40.4315L21.7872 44.5677ZM14.3222 39.3002L21.7997 43.7052L29.2647 39.574L32.0622 41.1177V17.6465H10.6797V41.4452L14.3222 39.3002Z" fill="#076300"/>
<path d="M29.5327 17.6462H13.4277V14.625H29.5327V17.6462ZM14.1777 16.8962H28.7827V15.375H14.1777V16.8962Z" fill="#076300"/>
<path d="M47.6651 24.335H37.9951V26.43H47.6651V24.335Z" fill="white"/>
<path d="M47.6651 29.7202H37.9951V31.8152H47.6651V29.7202Z" fill="white"/>
<path d="M47.6651 35.105H37.9951V37.2H47.6651V35.105Z" fill="white"/>
<path d="M48.0391 10.7314H47.2891V16.9452H48.0391V10.7314Z" fill="#076300"/>
<path d="M46.085 13.8389H45.335V16.9464H46.085V13.8389Z" fill="#076300"/>
<path d="M60.3926 54.0898H5.39258V54.8398H60.3926V54.0898Z" fill="#076300"/>
<path d="M59.9397 52.5088L58.3622 49.4988H59.3072L56.4022 43.9551L53.4772 49.4988H54.4335L52.8447 52.5088H59.9397Z" fill="#0BB501"/>
<path d="M56.7676 52.5088H56.0176V54.465H56.7676V52.5088Z" fill="#076300"/>
<path d="M15.8884 50.1187H12.7021V54.4649H15.8884V50.1187Z" fill="#076300"/>
<path d="M14.3222 47.8153C15.0049 47.8153 15.5584 47.2618 15.5584 46.579C15.5584 45.8963 15.0049 45.3428 14.3222 45.3428C13.6394 45.3428 13.0859 45.8963 13.0859 46.579C13.0859 47.2618 13.6394 47.8153 14.3222 47.8153Z" fill="#DEE1EC"/>
<path d="M30.8591 50.1187H27.6729V54.4649H30.8591V50.1187Z" fill="#076300"/>
<path d="M29.2929 47.8153C29.9757 47.8153 30.5291 47.2618 30.5291 46.579C30.5291 45.8963 29.9757 45.3428 29.2929 45.3428C28.6101 45.3428 28.0566 45.8963 28.0566 46.579C28.0566 47.2618 28.6101 47.8153 29.2929 47.8153Z" fill="#DEE1EC"/>
<path d="M45.8288 50.0513H42.6426V54.465H45.8288V50.0513Z" fill="#076300"/>
<path d="M44.2616 47.8153C44.9444 47.8153 45.4979 47.2618 45.4979 46.579C45.4979 45.8963 44.9444 45.3428 44.2616 45.3428C43.5789 45.3428 43.0254 45.8963 43.0254 46.579C43.0254 47.2618 43.5789 47.8153 44.2616 47.8153Z" fill="#DEE1EC"/>
<path d="M14.3227 48.1913C14.0038 48.1916 13.6919 48.0972 13.4265 47.9202C13.1612 47.7431 12.9543 47.4914 12.8321 47.1968C12.7099 46.9021 12.6777 46.5779 12.7398 46.265C12.8019 45.9521 12.9554 45.6647 13.1808 45.439C13.4063 45.2134 13.6936 45.0597 14.0064 44.9974C14.3193 44.9351 14.6436 44.9669 14.9383 45.0889C15.233 45.2109 15.4849 45.4176 15.6621 45.6828C15.8394 45.948 15.934 46.2598 15.934 46.5788C15.9337 47.0062 15.7638 47.4159 15.4618 47.7182C15.1597 48.0205 14.7501 48.1906 14.3227 48.1913ZM14.3227 45.7176C14.152 45.7173 13.9851 45.7677 13.8431 45.8624C13.7011 45.9571 13.5903 46.0918 13.5249 46.2494C13.4594 46.4071 13.4423 46.5806 13.4755 46.748C13.5087 46.9154 13.5909 47.0692 13.7116 47.1899C13.8323 47.3106 13.9861 47.3928 14.1535 47.426C14.321 47.4593 14.4945 47.4421 14.6521 47.3767C14.8098 47.3112 14.9445 47.2005 15.0391 47.0585C15.1338 46.9164 15.1842 46.7495 15.184 46.5788C15.1837 46.3505 15.0928 46.1316 14.9314 45.9702C14.7699 45.8087 14.5511 45.7179 14.3227 45.7176Z" fill="#076300"/>
<path d="M29.2912 48.1913C28.9723 48.1913 28.6605 48.0967 28.3954 47.9196C28.1302 47.7424 27.9235 47.4905 27.8015 47.1959C27.6794 46.9012 27.6475 46.577 27.7097 46.2642C27.7719 45.9514 27.9255 45.6641 28.151 45.4386C28.3765 45.2131 28.6638 45.0595 28.9766 44.9973C29.2894 44.9351 29.6136 44.967 29.9083 45.0891C30.2029 45.2111 30.4548 45.4178 30.632 45.683C30.8091 45.9481 30.9037 46.2599 30.9037 46.5788C30.903 47.0063 30.7329 47.416 30.4307 47.7183C30.1284 48.0205 29.7187 48.1906 29.2912 48.1913ZM29.2912 45.7176C29.1206 45.7176 28.9538 45.7682 28.8119 45.863C28.67 45.9578 28.5595 46.0926 28.4942 46.2503C28.429 46.408 28.412 46.5814 28.4454 46.7488C28.4788 46.9161 28.561 47.0698 28.6818 47.1904C28.8025 47.311 28.9563 47.393 29.1237 47.4261C29.2911 47.4593 29.4646 47.442 29.6221 47.3765C29.7797 47.3111 29.9143 47.2003 30.009 47.0583C30.1036 46.9163 30.154 46.7494 30.1537 46.5788C30.1534 46.3503 30.0624 46.1312 29.9006 45.9697C29.7389 45.8083 29.5197 45.7176 29.2912 45.7176Z" fill="#076300"/>
<path d="M44.2616 48.1913C43.9428 48.1911 43.6311 48.0963 43.3661 47.9189C43.1011 47.7416 42.8946 47.4897 42.7728 47.195C42.6509 46.9004 42.6192 46.5762 42.6815 46.2635C42.7439 45.9507 42.8976 45.6635 43.1231 45.4382C43.3487 45.2128 43.636 45.0593 43.9488 44.9972C44.2615 44.9351 44.5857 44.9671 44.8803 45.0892C45.1748 45.2113 45.4266 45.4179 45.6037 45.6831C45.7809 45.9482 45.8754 46.2599 45.8754 46.5788C45.8751 47.0066 45.7049 47.4167 45.4023 47.7191C45.0997 48.0215 44.6894 48.1913 44.2616 48.1913ZM44.2616 45.7176C44.0909 45.7173 43.924 45.7677 43.782 45.8624C43.64 45.9571 43.5292 46.0918 43.4638 46.2494C43.3983 46.4071 43.3812 46.5806 43.4144 46.748C43.4476 46.9154 43.5298 47.0692 43.6505 47.1899C43.7712 47.3106 43.925 47.3928 44.0924 47.426C44.2599 47.4593 44.4334 47.4421 44.591 47.3767C44.7487 47.3112 44.8834 47.2005 44.9781 47.0585C45.0727 46.9164 45.1231 46.7495 45.1229 46.5788C45.1226 46.3505 45.0317 46.1316 44.8703 45.9702C44.7088 45.8087 44.49 45.7179 44.2616 45.7176Z" fill="#076300"/>
<path d="M53.6723 37.4557L52.0273 39.1006L52.5577 39.6309L54.2026 37.986L53.6723 37.4557Z" fill="#076300"/>
<path d="M50.749 35.8203H49.999V38.1466H50.749V35.8203Z" fill="#076300"/>
<path d="M55.9005 40.769H53.5742V41.519H55.9005V40.769Z" fill="#076300"/>
<path d="M18.0249 23.96H13.0361V24.71H18.0249V23.96Z" fill="#076300"/>
<path d="M23.9751 23.96H18.9863V24.71H23.9751V23.96Z" fill="#076300"/>
<path d="M29.9253 23.96H24.9365V24.71H29.9253V23.96Z" fill="#076300"/>
<path d="M18.0249 30.3389H13.0361V31.0889H18.0249V30.3389Z" fill="#076300"/>
<path d="M23.9751 30.3389H18.9863V31.0889H23.9751V30.3389Z" fill="#076300"/>
<path d="M29.9253 30.3389H24.9365V31.0889H29.9253V30.3389Z" fill="#076300"/>
<path d="M18.0249 36.8413H13.0361V37.5913H18.0249V36.8413Z" fill="#076300"/>
<path d="M23.9751 36.8413H18.9863V37.5913H23.9751V36.8413Z" fill="#076300"/>
<path d="M29.9253 36.8413H24.9365V37.5913H29.9253V36.8413Z" fill="#076300"/>
<path d="M15.8701 10.3613H15.1201V15.0038H15.8701V10.3613Z" fill="#076300"/>
<path d="M17.8125 12.6826H17.0625V15.0039H17.8125V12.6826Z" fill="#076300"/>
<path d="M20.9124 54.8402H7.73242V45.4577L14.3224 41.6689L20.9124 45.4577V54.8402ZM8.48242 54.0902H20.1624V45.8914L14.3224 42.5339L8.48242 45.8914V54.0902Z" fill="#076300"/>
<path d="M35.8568 54.8402H22.6768V45.4577L29.2668 41.6689L35.8568 45.4577V54.8402ZM23.4268 54.0902H35.1068V45.8914L29.2668 42.5339L23.4268 45.8914V54.0902Z" fill="#076300"/>
<path d="M50.8 54.8402H37.625V45.4589L44.215 41.6689L50.805 45.4589L50.8 54.8402ZM38.37 54.0902H50.05V45.8927L44.21 42.5339L38.375 45.8927L38.37 54.0902Z" fill="#076300"/>
<path d="M8.09473 28.75H7.34473V28H8.09473V28.75ZM8.09473 26.75H7.34473V26H8.09473V26.75ZM8.09473 24.75H7.34473V24H8.09473V24.75ZM8.09473 22.75H7.34473V22H8.09473V22.75ZM8.09473 20.75H7.34473V20H8.09473V20.75ZM8.09473 18.75H7.34473V18H8.09473V18.75ZM8.23348 16.8888L7.52473 16.6462C7.61723 16.3813 7.74325 16.1292 7.89973 15.8962L8.52473 16.3088C8.40384 16.4901 8.306 16.6857 8.23348 16.8913V16.8888ZM9.29223 15.5387L8.88723 14.9137C9.12483 14.7616 9.38057 14.6398 9.64848 14.5513L9.88223 15.2638C9.67472 15.3312 9.47651 15.4244 9.29223 15.5413V15.5387ZM11.7497 15.125H10.9997V14.375H11.7497V15.125Z" fill="#076300"/>
<path d="M52.0559 46.6249H51.3059L44.2047 42.5399L37.1084 46.6249H36.3584V43.9224L44.2047 39.2974L52.0522 43.9224L52.0559 46.6249ZM44.2084 41.6749L51.3059 45.7499V44.3499L44.2084 40.1699L37.1121 44.3511V45.7499L44.2084 41.6749Z" fill="#076300"/>
<path d="M37.1125 46.625H36.3625L29.2625 42.54L22.165 46.625H21.415V43.915L29.2625 39.5737L37.1088 43.915L37.1125 46.625ZM29.2663 41.675L36.3625 45.75V44.3575L29.2663 40.4312L22.1688 44.3575V45.75L29.2663 41.675Z" fill="#076300"/>
<path d="M22.1692 46.6249H21.4192L14.3192 42.5399L7.22168 46.6249H6.47168V43.9224L14.3192 39.2974L22.1654 43.9224L22.1692 46.6249ZM14.3229 41.6749L21.4192 45.7499V44.3499L14.3229 40.1699L7.22543 44.3511V45.7499L14.3229 41.6749Z" fill="#076300"/>
<path d="M36.75 44.5688L32.0625 41.97V23.5125L45.625 16.5713H48.045V42.4263L44.2163 40.17L36.75 44.5688ZM32.8125 41.5288L36.7325 43.7038L44.21 39.3L47.2887 41.1138V17.3213H45.8L32.8125 23.9713V41.5288Z" fill="#076300"/>
</svg>
