<svg width="512" height="512" viewBox="0 0 512 512" fill="none" xmlns="http://www.w3.org/2000/svg">
<rect width="512" height="512" fill="white"/>
<path d="M406.194 177.553V369.752H159.747V177.553L282.971 101.4L406.194 177.553Z" fill="#F5F5F5"/>
<path style="mix-blend-mode:multiply" d="M406.194 177.553V191.431L282.971 115.287L159.747 191.431V177.553L282.971 101.4L406.194 177.553Z" fill="url(#paint0_linear_1784_1629)"/>
<path style="mix-blend-mode:multiply" d="M159.747 227.025V347.052C167.521 343.132 174.46 337.741 180.18 331.178C208.993 298.221 198.971 246.817 159.747 227.025Z" fill="url(#paint1_linear_1784_1629)"/>
<path style="mix-blend-mode:multiply" d="M406.194 195.819V299.91H390.935C384.843 299.901 378.933 297.84 374.157 294.059C369.381 290.278 366.019 284.997 364.614 279.07H349.851C348.395 279.066 346.972 278.637 345.756 277.835C344.541 277.033 343.586 275.893 343.011 274.555C342.435 273.217 342.263 271.741 342.516 270.306C342.769 268.872 343.435 267.543 344.434 266.483L363.91 245.788V222.826C363.922 215.659 366.774 208.789 371.841 203.72C376.908 198.652 383.777 195.798 390.944 195.783L406.194 195.819Z" fill="url(#paint2_linear_1784_1629)"/>
<path d="M419.495 164.596V185.77L282.971 101.409L146.447 185.77V164.596L282.971 80.2257L419.495 164.596Z" fill="#0BB501"/>
<path d="M408.904 372.451H157.039V176.045L282.971 98.2212L408.904 176.045V372.451ZM162.457 367.034H403.486V179.07L282.971 104.587L162.457 179.07V367.034Z" fill="#076300"/>
<path d="M422.203 190.628L282.971 104.587L143.738 190.628V163.088L282.971 77.0474L422.203 163.088V190.628ZM149.156 166.113V180.912L282.971 98.2212L416.786 180.912V166.113L282.971 83.4131L149.156 166.113Z" fill="#0BB501"/>
<path d="M265.454 177.237H230.429V222.754H265.454V177.237Z" fill="white"/>
<path d="M300.488 177.237H265.463V222.754H300.488V177.237Z" fill="white"/>
<path d="M335.512 177.237H300.487V222.754H335.512V177.237Z" fill="white"/>
<path d="M346.05 222.754H221.788V236.244H346.05V222.754Z" fill="white"/>
<path d="M365.201 327.169H286.998V340.659H365.201V327.169Z" fill="white"/>
<path d="M348.759 238.944H219.079V220.045H348.759V238.944ZM224.497 233.526H343.341V225.463H224.497V233.526Z" fill="#076300"/>
<path d="M367.91 343.359H284.289V324.461H367.91V343.359ZM289.707 337.941H362.492V329.878H289.707V337.941Z" fill="#076300"/>
<path d="M265.463 289.716H218.709V369.743H265.463V289.716Z" fill="#0BB501"/>
<path d="M325.652 289.716H294.384V327.16H325.652V289.716Z" fill="white"/>
<path d="M356.921 289.716H325.652V327.16H356.921V289.716Z" fill="white"/>
<path d="M268.171 225.463H227.72V174.528H268.171V225.463ZM233.137 220.045H262.754V179.946H233.137V220.045Z" fill="#076300"/>
<path d="M303.196 225.463H262.754V174.528H303.196V225.463ZM268.172 220.045H297.779V179.946H268.172V220.045Z" fill="#076300"/>
<path d="M338.221 225.463H297.778V174.528H338.221V225.463ZM303.196 220.045H332.803V179.946H303.196V220.045Z" fill="#076300"/>
<path d="M328.361 329.878H291.675V287.007H328.361V329.878ZM297.092 324.461H322.943V292.424H297.092V324.461Z" fill="#076300"/>
<path d="M359.621 329.878H322.943V287.007H359.621V329.878ZM328.361 324.461H354.203V292.424H328.361V324.461Z" fill="#076300"/>
<path d="M232.27 337.047C235.287 337.047 237.733 334.602 237.733 331.585C237.733 328.568 235.287 326.122 232.27 326.122C229.253 326.122 226.808 328.568 226.808 331.585C226.808 334.602 229.253 337.047 232.27 337.047Z" fill="white"/>
<path d="M91.4229 287.043C91.4211 279.498 93.6571 272.122 97.8481 265.848C102.039 259.574 107.997 254.685 114.967 251.797C121.938 248.91 129.608 248.155 137.008 249.628C144.408 251.101 151.204 254.735 156.538 260.071C161.872 265.408 165.503 272.206 166.973 279.607C168.442 287.007 167.683 294.677 164.793 301.646C161.902 308.615 157.009 314.571 150.733 318.759C144.458 322.947 137.081 325.179 129.536 325.174C119.427 325.167 109.734 321.146 102.587 313.997C95.4409 306.847 91.4252 297.152 91.4229 287.043Z" fill="#F5F5F5"/>
<path d="M129.535 327.883C121.456 327.883 113.558 325.487 106.84 320.998C100.122 316.509 94.8866 310.129 91.7951 302.664C88.7036 295.199 87.8952 286.986 89.4721 279.061C91.049 271.137 94.9404 263.859 100.654 258.146C106.368 252.434 113.647 248.544 121.572 246.969C129.496 245.394 137.71 246.204 145.174 249.297C152.638 252.39 159.017 257.627 163.504 264.346C167.992 271.065 170.386 278.963 170.384 287.043C170.37 297.871 166.061 308.252 158.403 315.908C150.746 323.564 140.364 327.871 129.535 327.883ZM129.535 251.612C122.528 251.612 115.677 253.69 109.851 257.583C104.024 261.476 99.4829 267.01 96.8012 273.484C94.1195 279.958 93.4178 287.082 94.7849 293.955C96.1521 300.828 99.5266 307.141 104.482 312.097C109.437 317.052 115.75 320.426 122.623 321.793C129.496 323.16 136.62 322.459 143.094 319.777C149.568 317.095 155.102 312.554 158.995 306.727C162.888 300.901 164.966 294.051 164.966 287.043C164.955 277.65 161.218 268.645 154.576 262.003C147.934 255.36 138.929 251.624 129.535 251.612Z" fill="#5E6175"/>
<path d="M183.504 287.034C183.508 276.695 180.54 266.573 174.954 257.872C169.369 249.172 161.4 242.26 151.998 237.96C142.596 233.66 132.156 232.152 121.921 233.617C111.686 235.081 102.088 239.456 94.2694 246.221C86.4506 252.986 80.7405 261.855 77.8192 271.772C74.8978 281.69 74.8882 292.238 77.7916 302.161C80.6949 312.084 86.3889 320.964 94.1954 327.743C102.002 334.522 111.592 338.914 121.824 340.397V362.068H137.31V340.406C150.137 338.545 161.866 332.126 170.349 322.325C178.832 312.524 183.501 299.996 183.504 287.034ZM129.535 325.174C121.992 325.174 114.617 322.937 108.345 318.745C102.073 314.554 97.1842 308.597 94.2977 301.627C91.4113 294.658 90.6565 286.988 92.1289 279.59C93.6012 272.191 97.2346 265.395 102.569 260.062C107.904 254.728 114.701 251.096 122.1 249.626C129.499 248.155 137.168 248.912 144.137 251.8C151.106 254.688 157.062 259.578 161.252 265.851C165.442 272.124 167.677 279.499 167.675 287.043C167.673 297.157 163.654 306.855 156.501 314.006C149.349 321.157 139.649 325.174 129.535 325.174Z" fill="white"/>
<path d="M140.019 364.731H119.116V342.7C105.242 340.095 92.8405 332.405 84.3401 321.136C75.8397 309.866 71.853 295.829 73.1607 281.774C74.4685 267.718 80.9766 254.658 91.4102 245.15C101.844 235.642 115.451 230.372 129.567 230.372C143.683 230.372 157.291 235.642 167.724 245.15C178.158 254.658 184.666 267.718 185.974 281.774C187.281 295.829 183.295 309.866 174.794 321.136C166.294 332.405 153.892 340.095 140.019 342.7V364.731ZM124.533 359.314H134.601V338.059L136.922 337.725C149.737 335.866 161.373 329.223 169.489 319.132C177.605 309.041 181.599 296.252 180.667 283.336C179.735 270.42 173.947 258.336 164.466 249.515C154.986 240.694 142.517 235.79 129.567 235.79C116.618 235.79 104.149 240.694 94.6682 249.515C85.1877 258.336 79.3994 270.42 78.4675 283.336C77.5357 296.252 81.5294 309.041 89.6454 319.132C97.7614 329.223 109.397 335.866 122.213 337.725L124.533 338.059V359.314ZM129.536 327.883C121.456 327.883 113.558 325.487 106.84 320.998C100.123 316.509 94.8869 310.128 91.7954 302.664C88.7039 295.199 87.8955 286.985 89.4724 279.061C91.0493 271.137 94.9407 263.859 100.654 258.146C106.368 252.434 113.647 248.544 121.572 246.969C129.496 245.394 137.71 246.204 145.174 249.297C152.638 252.39 159.017 257.627 163.505 264.346C167.992 271.065 170.386 278.963 170.384 287.043C170.37 297.871 166.061 308.252 158.404 315.908C150.746 323.564 140.364 327.871 129.536 327.883ZM129.536 251.612C122.528 251.612 115.678 253.69 109.851 257.583C104.025 261.476 99.4832 267.01 96.8015 273.484C94.1198 279.958 93.4182 287.082 94.7853 293.955C96.1524 300.828 99.5269 307.141 104.482 312.096C109.437 317.052 115.75 320.426 122.623 321.793C129.496 323.16 136.62 322.459 143.095 319.777C149.569 317.095 155.102 312.554 158.996 306.727C162.889 300.901 164.967 294.05 164.967 287.043C164.955 277.65 161.218 268.644 154.576 262.002C147.934 255.36 138.929 251.624 129.536 251.612Z" fill="#076300"/>
<path d="M129.536 432.244C126.183 432.244 122.968 430.912 120.597 428.541C118.226 426.171 116.895 422.955 116.895 419.603V365.634C116.895 362.282 118.226 359.066 120.597 356.696C122.968 354.325 126.183 352.993 129.536 352.993C132.888 352.993 136.104 354.325 138.474 356.696C140.845 359.066 142.177 362.282 142.177 365.634V419.585C142.179 421.246 141.854 422.892 141.22 424.428C140.585 425.964 139.655 427.359 138.481 428.535C137.307 429.711 135.912 430.644 134.377 431.28C132.842 431.916 131.197 432.244 129.536 432.244Z" fill="white"/>
<path d="M129.535 434.953C125.464 434.953 121.56 433.335 118.681 430.457C115.803 427.578 114.186 423.674 114.186 419.603V365.634C114.186 361.563 115.803 357.659 118.681 354.78C121.56 351.902 125.464 350.285 129.535 350.285C133.606 350.285 137.511 351.902 140.389 354.78C143.268 357.659 144.885 361.563 144.885 365.634V419.585C144.888 421.602 144.492 423.6 143.722 425.464C142.952 427.329 141.821 429.023 140.396 430.45C138.97 431.878 137.277 433.01 135.414 433.783C133.55 434.555 131.553 434.953 129.535 434.953ZM129.535 355.684C128.231 355.684 126.94 355.941 125.735 356.44C124.529 356.939 123.435 357.671 122.512 358.593C121.59 359.515 120.858 360.61 120.359 361.815C119.86 363.02 119.603 364.312 119.603 365.616V419.567C119.603 422.201 120.65 424.727 122.512 426.59C124.375 428.453 126.901 429.499 129.535 429.499C132.17 429.499 134.696 428.453 136.559 426.59C138.421 424.727 139.468 422.201 139.468 419.567V365.634C139.47 364.329 139.215 363.035 138.717 361.828C138.219 360.621 137.488 359.524 136.565 358.6C135.642 357.675 134.547 356.942 133.341 356.442C132.134 355.942 130.841 355.684 129.535 355.684Z" fill="#076300"/>
<path d="M134.185 295.856H125.228C125.231 292.827 125.952 289.842 127.334 287.147C128.715 284.452 130.717 282.123 133.174 280.352C134.002 279.758 134.664 278.961 135.096 278.038C135.528 277.114 135.716 276.095 135.64 275.078C135.565 274.062 135.23 273.081 134.668 272.231C134.105 271.381 133.333 270.69 132.426 270.224C131.519 269.758 130.508 269.533 129.489 269.57C128.47 269.607 127.478 269.906 126.608 270.436C125.737 270.967 125.018 271.713 124.519 272.602C124.019 273.491 123.757 274.493 123.756 275.512H114.799C114.8 272.959 115.457 270.449 116.707 268.222C117.956 265.995 119.757 264.127 121.936 262.796C124.115 261.465 126.6 260.716 129.152 260.621C131.703 260.526 134.237 261.088 136.509 262.253C138.781 263.419 140.716 265.148 142.127 267.275C143.539 269.403 144.381 271.858 144.572 274.404C144.763 276.95 144.297 279.503 143.218 281.817C142.139 284.131 140.484 286.13 138.411 287.621C137.104 288.56 136.039 289.797 135.304 291.228C134.57 292.66 134.186 294.246 134.185 295.856Z" fill="#0BB501"/>
<path d="M134.121 302.781H125.128V311.774H134.121V302.781Z" fill="#0BB501"/>
<path d="M434.275 367.034H159.747V372.451H434.275V367.034Z" fill="#076300"/>
<path d="M453.291 222.826V272.831C453.291 274.642 452.934 276.436 452.241 278.109C451.547 279.783 450.531 281.303 449.249 282.583C447.968 283.864 446.447 284.879 444.773 285.572C443.099 286.264 441.305 286.62 439.494 286.618H390.943C389.132 286.621 387.337 286.266 385.663 285.574C383.988 284.882 382.467 283.867 381.185 282.586C379.904 281.305 378.887 279.784 378.194 278.111C377.501 276.437 377.145 274.642 377.146 272.831V265.779H363.241L377.146 251.007V222.826C377.149 219.169 378.603 215.662 381.191 213.076C383.778 210.491 387.286 209.038 390.943 209.038H439.494C443.152 209.038 446.66 210.491 449.247 213.076C451.834 215.662 453.288 219.169 453.291 222.826Z" fill="#F5F5F5"/>
<path d="M439.495 289.363H390.944C386.569 289.361 382.373 287.623 379.279 284.53C376.184 281.437 374.443 277.242 374.438 272.867V268.524H356.976L374.438 249.968V222.826C374.446 218.452 376.187 214.258 379.281 211.166C382.375 208.074 386.569 206.334 390.944 206.33H439.495C443.869 206.334 448.063 208.074 451.158 211.166C454.252 214.258 455.993 218.452 456 222.826V272.831C456.003 275 455.578 277.149 454.749 279.154C453.921 281.159 452.706 282.982 451.173 284.517C449.64 286.052 447.82 287.27 445.816 288.102C443.812 288.934 441.664 289.362 439.495 289.363ZM369.517 263.106H379.856V272.867C379.861 275.805 381.031 278.622 383.109 280.699C385.188 282.776 388.006 283.943 390.944 283.946H439.495C442.433 283.943 445.251 282.776 447.329 280.699C449.408 278.622 450.578 275.805 450.583 272.867V222.826C450.578 219.888 449.408 217.071 447.329 214.994C445.251 212.917 442.433 211.75 439.495 211.747H390.944C388.006 211.75 385.188 212.917 383.109 214.994C381.031 217.071 379.861 219.888 379.856 222.826V252.081L369.517 263.106Z" fill="#076300"/>
<path d="M409.68 267.81L391.296 249.427L397.734 242.989L409.68 254.935L434.7 229.905L441.147 236.343L409.68 267.81Z" fill="#0BB501"/>
<path d="M130.104 183.097H124.687V178.808H130.104V183.097ZM130.104 169.779H124.687C124.687 166.167 124.687 165.264 124.732 164.199L130.149 164.524C130.086 165.273 130.104 165.409 130.104 169.743V169.779ZM132.244 156.912L127.44 154.411C128.384 152.606 129.549 150.925 130.908 149.409L134.935 153.02C133.878 154.2 132.974 155.507 132.244 156.912ZM141.508 148.027L138.565 143.485L143.079 140.569L146.059 145.174L141.508 148.027ZM153.689 140.262L150.781 135.693L155.341 132.777L158.258 137.345L153.689 140.262ZM165.851 132.533L162.944 127.946L167.513 125.038L170.42 129.607L165.851 132.533ZM178.032 124.768L175.124 120.199L179.693 117.291L182.601 121.851L178.032 124.768Z" fill="#0BB501"/>
<path d="M80.314 342.503L68.3555 354.462L72.1863 358.293L84.1449 346.334L80.314 342.503Z" fill="#076300"/>
<path d="M98.8893 353.273H93.4717V370.185H98.8893V353.273Z" fill="#076300"/>
<path d="M72.912 328.776H56V334.194H72.912V328.776Z" fill="#076300"/>
<defs>
<linearGradient id="paint0_linear_1784_1629" x1="159.747" y1="146.411" x2="406.194" y2="146.411" gradientUnits="userSpaceOnUse">
<stop stop-color="#CACFDD"/>
<stop offset="1" stop-color="#EEF0F1"/>
</linearGradient>
<linearGradient id="paint1_linear_1784_1629" x1="159.747" y1="287.043" x2="196.758" y2="287.043" gradientUnits="userSpaceOnUse">
<stop stop-color="#CACFDD"/>
<stop offset="1" stop-color="#EEF0F1"/>
</linearGradient>
<linearGradient id="paint2_linear_1784_1629" x1="342.384" y1="247.865" x2="406.194" y2="247.865" gradientUnits="userSpaceOnUse">
<stop stop-color="#CACFDD"/>
<stop offset="1" stop-color="#EEF0F1"/>
</linearGradient>
</defs>
</svg>
