<svg width="52" height="52" viewBox="0 0 52 52" fill="none" xmlns="http://www.w3.org/2000/svg">
<path d="M25.9157 51.4078C39.9095 51.4078 51.3012 40.024 51.3012 26.0223C51.3012 25.1339 51.2536 24.2454 51.1505 23.3013C50.9601 21.5561 49.4053 20.2947 47.66 20.4851C45.9147 20.6676 44.6534 22.2383 44.8438 23.9756C44.9231 24.6896 44.9549 25.356 44.9549 26.0144C44.9549 36.5097 36.4111 45.0535 25.9157 45.0535C15.4204 45.0535 6.87664 36.5097 6.87664 26.0144C6.87664 15.5191 15.4204 6.97531 25.9157 6.97531C27.5261 6.97531 29.1286 7.18156 30.6755 7.57821C32.3732 8.01452 34.1026 6.99911 34.5389 5.30145C34.9752 3.6038 33.9598 1.87441 32.2621 1.4381C30.1995 0.906592 28.0576 0.636871 25.9157 0.636871C11.922 0.636871 0.530273 12.0207 0.530273 26.0223C0.530273 40.024 11.922 51.4078 25.9157 51.4078Z" fill="white"/>
<path d="M43.7025 8.0304C34.5399 11.9572 28.0508 21.7862 25.1791 26.8791C22.7674 22.9682 19.0548 21.0246 18.6026 20.8025C17.0398 20.025 15.1518 20.6517 14.3664 22.2066C13.5731 23.7615 14.1998 25.6654 15.7547 26.4666C15.7864 26.4825 18.7296 28.0215 20.1337 30.8377C21.0936 32.7574 22.9896 33.9474 25.0839 33.9474H25.2505C27.3051 33.9474 29.1852 32.8209 30.153 31.0122C31.8189 27.8866 37.9115 17.4072 46.2093 13.8532C47.8197 13.163 48.5654 11.2988 47.8753 9.68839C47.1851 8.078 45.3208 7.3323 43.7105 8.02247L43.7025 8.0304Z" fill="white"/>
</svg>
