<svg width="512" height="512" viewBox="0 0 512 512" fill="none" xmlns="http://www.w3.org/2000/svg">
<path d="M440.63 260.16H311.91V378.08H440.63V260.16Z" fill="#0BB501"/>
<path style="mix-blend-mode:multiply" d="M440.63 260.16H311.91V274H440.63V260.16Z" fill="url(#paint0_linear_18_184)"/>
<path d="M311.91 203.9H384.71L467.24 260.16H311.91V203.9Z" fill="#0BB501"/>
<path d="M477 263.16H308.91V200.9H385.63L477 263.16ZM314.94 257.16H457.54L383.81 206.9H314.91L314.94 257.16Z" fill="#076300"/>
<path d="M311.9 216.81V378.08H88.5701V216.81L200.34 152.28L311.9 216.81Z" fill="#F5F5F5"/>
<path style="mix-blend-mode:multiply" d="M311.9 216.81V229.21L200.34 164.69L88.5701 229.22V216.81L200.34 152.28L311.9 216.81Z" fill="url(#paint1_linear_18_184)"/>
<path d="M323.1 205.45V223.27L200.34 152.28L77.3899 223.27V205.45L200.34 134.46L323.1 205.45Z" fill="white"/>
<path d="M150.46 225.86H120.99V264.16H150.46V225.86Z" fill="white"/>
<path d="M179.94 225.86H150.47V264.16H179.94V225.86Z" fill="white"/>
<path d="M187.71 264.16H113.72V277.51H187.71V264.16Z" fill="white"/>
<path d="M190.71 280.51H110.71V261.16H190.71V280.51ZM116.71 274.51H184.71V267.16H116.71V274.51Z" fill="#076300"/>
<path d="M241.79 310.74H202.45V378.08H241.79V310.74Z" fill="#0BB501"/>
<path d="M153.47 267.16H118V222.86H153.48L153.47 267.16ZM123.99 261.16H147.47V228.86H124L123.99 261.16Z" fill="#076300"/>
<path d="M182.94 267.16H147.47V222.86H182.94V267.16ZM153.47 261.16H176.94V228.86H153.47V261.16Z" fill="#076300"/>
<path d="M252.74 225.86H223.27V264.16H252.74V225.86Z" fill="white"/>
<path d="M282.21 225.86H252.74V264.16H282.21V225.86Z" fill="white"/>
<path d="M289.99 264.16H216V277.51H289.99V264.16Z" fill="white"/>
<path d="M293 280.51H213V261.16H293V280.51ZM219 274.51H287V267.16H219V274.51Z" fill="#076300"/>
<path d="M255.75 267.16H220.27V222.86H255.75V267.16ZM226.27 261.16H249.75V228.86H226.27V261.16Z" fill="#076300"/>
<path d="M285.22 267.16H249.75V222.86H285.22V267.16ZM255.75 261.16H279.22V228.86H255.75V261.16Z" fill="#076300"/>
<path d="M213.86 350.57C216.401 350.57 218.46 348.511 218.46 345.97C218.46 343.429 216.401 341.37 213.86 341.37C211.32 341.37 209.26 343.429 209.26 345.97C209.26 348.511 211.32 350.57 213.86 350.57Z" fill="#076300"/>
<path d="M202.45 310.74H163.11V378.08H202.45V310.74Z" fill="#0BB501"/>
<path d="M241.78 381.08H199.45V310.74H205.45V375.08H241.78V381.08Z" fill="#5E6175"/>
<path d="M205.45 381.08H163.11V375.08H199.45V310.74H205.45V381.08Z" fill="#076300"/>
<path d="M191.03 350.57C193.57 350.57 195.63 348.511 195.63 345.97C195.63 343.429 193.57 341.37 191.03 341.37C188.489 341.37 186.43 343.429 186.43 345.97C186.43 348.511 188.489 350.57 191.03 350.57Z" fill="#076300"/>
<path d="M475 375.08H61.1299V381.08H475V375.08Z" fill="#076300"/>
<path d="M314.91 381.08H85.5701V215.08L200.34 148.81L314.91 215.08V381.08ZM91.5701 375.08H308.91V218.54L200.33 155.74L91.5701 218.54V375.08Z" fill="#076300"/>
<path d="M326.1 228.47L200.33 155.74L74.3899 228.47V203.72L200.39 131L326.1 203.72V228.47ZM80.3899 207.19V218.08L200.39 148.81L320.1 218.07V207.18L200.33 137.93L80.3899 207.19Z" fill="#076300"/>
<path d="M443.62 381.08H308.91V257.16H443.62V381.08ZM314.91 375.08H437.62V263.16H314.91V375.08Z" fill="#076300"/>
<path d="M376.01 294.3H346.54V332.6H376.01V294.3Z" fill="#F5F5F5"/>
<path d="M405.48 294.3H376.01V332.6H405.48V294.3Z" fill="#F5F5F5"/>
<path d="M413.26 332.6H339.27V345.95H413.26V332.6Z" fill="white"/>
<path d="M416.26 348.95H336.26V329.6H416.26V348.95ZM342.26 342.95H410.26V335.6H342.26V342.95Z" fill="#076300"/>
<path d="M379 335.6H343.54V291.33H379V335.6ZM349.53 329.6H373V297.33H349.54L349.53 329.6Z" fill="#076300"/>
<path d="M408.49 335.6H373V291.33H408.48L408.49 335.6ZM379.01 329.6H402.49V297.33H379L379.01 329.6Z" fill="#076300"/>
<path d="M51.8459 180.562L47.6033 184.804L60.3453 197.546L64.588 193.304L51.8459 180.562Z" fill="#076300"/>
<path d="M53.02 207.29H35V213.29H53.02V207.29Z" fill="#076300"/>
<path d="M79.24 167.47H73.24V185.49H79.24V167.47Z" fill="#076300"/>
<path d="M381.86 171.33C377.73 161.47 387.64 151.41 397.57 155.48C399.41 156.231 401.035 157.425 402.303 158.955C403.571 160.485 404.442 162.304 404.839 164.251C405.236 166.198 405.146 168.213 404.578 170.117C404.01 172.021 402.981 173.756 401.582 175.167C400.183 176.578 398.458 177.623 396.559 178.208C394.66 178.793 392.646 178.9 390.695 178.521C388.745 178.141 386.918 177.286 385.377 176.032C383.836 174.778 382.628 173.163 381.86 171.33ZM393 160.54C392.196 160.536 391.4 160.696 390.66 161.01C389.271 161.591 388.147 162.668 387.507 164.031C386.867 165.395 386.757 166.947 387.198 168.387C387.639 169.827 388.6 171.052 389.893 171.823C391.187 172.595 392.721 172.858 394.197 172.561C395.674 172.265 396.987 171.43 397.883 170.219C398.778 169.008 399.191 167.507 399.042 166.008C398.893 164.51 398.192 163.12 397.075 162.109C395.959 161.099 394.506 160.539 393 160.54Z" fill="#076300"/>
<path d="M442.46 207.33C440.312 207.327 438.231 206.581 436.57 205.219C434.909 203.857 433.771 201.962 433.347 199.857C432.923 197.751 433.241 195.563 434.245 193.665C435.25 191.766 436.88 190.274 438.86 189.44C440.131 188.904 441.506 188.658 442.884 188.719C444.262 188.78 445.61 189.146 446.829 189.791C448.048 190.437 449.109 191.345 449.934 192.45C450.759 193.556 451.329 194.831 451.601 196.183C451.873 197.536 451.841 198.932 451.508 200.27C451.174 201.609 450.548 202.857 449.673 203.924C448.798 204.99 447.697 205.849 446.45 206.438C445.202 207.027 443.84 207.332 442.46 207.33ZM441.18 194.97C440.578 195.222 440.065 195.647 439.704 196.191C439.344 196.735 439.153 197.374 439.156 198.027C439.158 198.679 439.354 199.316 439.719 199.858C440.084 200.399 440.601 200.82 441.205 201.067C441.808 201.315 442.472 201.377 443.112 201.248C443.751 201.118 444.338 200.801 444.798 200.338C445.257 199.875 445.57 199.286 445.695 198.646C445.82 198.005 445.752 197.342 445.5 196.74C445.16 195.934 444.515 195.295 443.705 194.964C442.896 194.632 441.988 194.634 441.18 194.97Z" fill="#076300"/>
<defs>
<linearGradient id="paint0_linear_18_184" x1="311.91" y1="267.08" x2="440.62" y2="267.08" gradientUnits="userSpaceOnUse">
<stop stop-color="#CACFDD"/>
<stop offset="1" stop-color="#EEF0F1"/>
</linearGradient>
<linearGradient id="paint1_linear_18_184" x1="200.24" y1="152.04" x2="200.24" y2="222.33" gradientUnits="userSpaceOnUse">
<stop stop-color="#CACFDD"/>
<stop offset="1" stop-color="#EEF0F1"/>
</linearGradient>
</defs>
</svg>
