<svg width="123" height="120" viewBox="0 0 123 120" fill="none" xmlns="http://www.w3.org/2000/svg">
<path d="M42.3213 89.5129V100.232H49.421V89.5129L45.8015 86.0327L42.3213 89.5129Z" fill="#076300"/>
<path d="M42.3213 75.1742H49.421V64.455L45.8015 60.9747L42.3213 64.455V75.1742Z" fill="#076300"/>
<path d="M42.3213 50.1162H49.421V39.3969L45.8015 35.9166L42.3213 39.3969V50.1162Z" fill="#076300"/>
<path d="M22.5518 62.5057H11.9717V65.986H22.5518V62.5057Z" fill="#076300"/>
<path d="M20.6037 116.52H4.17676V120H20.6037V116.52Z" fill="#076300"/>
<path d="M118.33 116.52H22.5527V120H118.33V116.52Z" fill="#076300"/>
<path d="M23.6666 14.3387C23.6666 9.46632 19.7687 5.56842 14.8963 5.56842C10.0239 5.56842 6.12598 9.46632 6.12598 14.3387C6.12598 19.2111 10.0239 23.109 14.8963 23.109C19.6294 23.109 23.6666 19.0719 23.6666 14.3387Z" fill="#076300"/>
<path d="M16.5662 0H13.0859V4.45469H16.5662V0Z" fill="#076300"/>
<path d="M16.5662 24.0836H13.0859V28.5384H16.5662V24.0836Z" fill="#076300"/>
<path d="M29.0954 12.529H24.6406V16.0093H29.0954V12.529Z" fill="#076300"/>
<path d="M5.01231 12.529H0.557617V16.0093H5.01231V12.529Z" fill="#076300"/>
<path d="M20.4848 22.443L23.6348 25.593L26.0957 23.1321L22.9457 19.9821L20.4848 22.443Z" fill="#076300"/>
<path d="M3.58544 5.5277L6.73535 8.67761L9.19626 6.21671L6.04635 3.06679L3.58544 5.5277Z" fill="#076300"/>
<path d="M9.12887 22.4624L6.66797 20.0015L3.518 23.1514L5.9789 25.6123L9.12887 22.4624Z" fill="#076300"/>
<path d="M20.4942 6.2255L22.9551 8.6864L26.105 5.53649L23.6441 3.07558L20.4942 6.2255Z" fill="#076300"/>
<path d="M110.812 34.3852C112.343 34.5244 114.292 35.2204 116.241 37.1694C118.747 39.6752 119.304 42.3203 118.886 43.8516L122.227 44.9653C123.202 41.9026 121.81 37.8655 118.747 34.8029C116.52 32.5755 114.014 31.3226 111.508 31.0442C111.926 30.0697 112.761 28.9559 113.596 28.1207C116.102 25.6149 118.747 25.0581 120.278 25.4757L121.392 22.1346C118.33 21.1601 114.292 22.5522 111.23 25.6149C110.394 26.4502 109.838 27.2854 109.281 28.1207C108.724 27.2854 108.028 26.3109 107.332 25.6149C104.269 22.5522 100.232 21.1601 97.1694 22.1346L98.2831 25.4757C99.8144 25.0581 102.459 25.6149 104.965 28.1207C105.94 28.9559 106.636 30.0697 107.053 31.0442C104.548 31.3226 102.042 32.5755 99.8145 34.8029C96.7518 37.8655 95.3597 41.9026 96.3342 44.9653L99.6752 43.8516C99.2576 42.3203 99.8144 39.6752 102.32 37.1694C104.269 35.2204 106.218 34.5244 107.749 34.3852V68.0743H97.1694V51.369H101.903V47.8887H83.2483V24.362C84.7796 24.5013 86.7286 25.1973 88.6776 27.1463C91.1834 29.6521 91.7402 32.2971 91.3226 33.8284L94.6636 34.9421C95.6381 31.8794 94.246 27.8423 91.1833 24.7797C88.956 22.5523 86.4501 21.2994 83.9443 21.0209C84.362 20.0465 85.1972 18.9328 86.0325 18.0975C88.5383 15.5917 91.1833 15.0349 92.7147 15.4525L93.8283 12.1114C90.7657 11.1369 86.7286 12.529 83.6659 15.5917C82.8307 16.4269 82.2738 17.2623 81.717 18.0975C81.1602 17.2623 80.4641 16.2877 79.768 15.5917C76.7054 12.529 72.6683 11.1369 69.6056 12.1114L70.7193 15.4525C72.2506 15.0349 74.8956 15.5917 77.4014 18.0975C78.3759 19.072 79.072 20.0465 79.4896 21.0209C76.9838 21.2994 74.478 22.5523 72.2506 24.7797C69.188 27.8423 67.7959 31.8794 68.7703 34.9421L72.1114 33.8284C71.6938 32.2971 72.2506 29.6521 74.7564 27.1463C76.7054 25.1973 78.6543 24.5013 80.1857 24.362V47.8887H64.4548V30.3481H67.9351V26.8678H25.4756V30.3481H28.9559V47.8887H0V51.369H2.50578V112.343H120.139V71.5546H122.367V68.0743H110.812V34.3852ZM20.7425 108.863H13.6427V75.7309L17.2622 72.2507L20.8817 75.7309V108.863H20.7425ZM28.1207 108.863H24.362V74.1996L17.2622 67.3783L10.1624 74.1996V108.863H5.84689V60.4177H27.9814V108.863H28.1207ZM52.9003 103.712H38.84V88.1208L45.9397 81.2994L53.0395 88.1208V103.712H52.9003ZM52.9003 63.0627V78.6544H38.84V63.0627L45.9397 56.2414L52.9003 63.0627ZM52.9003 38.0047V53.5964H38.84V38.0047L45.9397 31.1833L52.9003 38.0047ZM72.3898 108.863H63.6195V60.4177H93.1323H93.2715V68.0743H66.4038V71.5546H72.3898V108.863ZM110.812 87.7031V103.712H81.717V87.7031L96.195 81.8563L110.812 87.7031ZM110.812 82.8308H107.332V76.427H85.1973V82.8308H81.717V72.9467H110.812V82.8308Z" fill="#076300"/>
<path d="M85.1973 100.232H107.332V90.0696L96.1949 85.6149L85.1973 90.0696V100.232Z" fill="#076300"/>
</svg>
