<svg width="512" height="512" viewBox="0 0 512 512" fill="none" xmlns="http://www.w3.org/2000/svg">
<rect width="512" height="512" fill="white"/>
<path d="M278.799 432.348H91.8447V438.296H278.799V432.348Z" fill="#076300"/>
<path d="M278.81 244.164H97.0791V250.112H278.81V244.164Z" fill="#076300"/>
<path d="M453.026 229.226V174.279C453.023 170.26 451.426 166.407 448.584 163.565C445.742 160.723 441.888 159.125 437.869 159.123H337.225C333.206 159.125 329.353 160.723 326.511 163.565C323.669 166.407 322.071 170.26 322.069 174.279V182.021L306.793 190.14L322.069 198.268V229.226C322.069 233.245 323.665 237.101 326.508 239.943C329.35 242.785 333.205 244.382 337.225 244.382H437.869C441.889 244.382 445.744 242.785 448.587 239.943C451.429 237.101 453.026 233.245 453.026 229.226Z" fill="#F5F5F5"/>
<path d="M437.87 247.356H337.225C332.419 247.351 327.81 245.439 324.411 242.04C321.012 238.641 319.1 234.032 319.095 229.226V200.052L300.459 190.14L319.095 180.227V174.279C319.1 169.472 321.012 164.864 324.411 161.465C327.81 158.066 332.419 156.154 337.225 156.149H437.87C442.676 156.157 447.283 158.069 450.681 161.468C454.08 164.866 455.992 169.473 456 174.279V229.226C455.995 234.032 454.083 238.641 450.684 242.04C447.285 245.439 442.677 247.351 437.87 247.356ZM313.127 190.14L325.023 196.474V229.186C325.028 232.415 326.313 235.511 328.597 237.795C330.88 240.078 333.976 241.364 337.206 241.369H437.87C441.093 241.366 444.184 240.087 446.467 237.812C448.75 235.536 450.039 232.449 450.052 229.226V174.279C450.05 171.049 448.765 167.952 446.481 165.668C444.197 163.383 441.1 162.099 437.87 162.096H337.225C333.996 162.102 330.9 163.387 328.617 165.67C326.333 167.954 325.048 171.05 325.043 174.279V183.815L313.127 190.14Z" fill="#076300"/>
<path d="M379.831 223.674L357.745 201.589L365.487 193.847L379.831 208.201L409.896 178.135L417.638 185.877L379.831 223.674Z" fill="#0BB501"/>
<path d="M453.026 369.749V314.803C453.023 310.784 451.426 306.93 448.584 304.088C445.742 301.246 441.888 299.649 437.869 299.646H337.225C333.206 299.649 329.353 301.246 326.511 304.088C323.669 306.93 322.071 310.784 322.069 314.803V322.544L306.793 330.663L322.069 338.782V369.749C322.069 373.769 323.665 377.624 326.508 380.466C329.35 383.309 333.205 384.906 337.225 384.906H437.869C441.889 384.906 445.744 383.309 448.587 380.466C451.429 377.624 453.026 373.769 453.026 369.749Z" fill="#F5F5F5"/>
<path d="M437.87 387.88H337.225C332.419 387.874 327.81 385.962 324.411 382.563C321.012 379.165 319.1 374.556 319.095 369.749V340.576L300.459 330.663L319.095 320.75V314.803C319.1 309.996 321.012 305.387 324.411 301.988C327.81 298.589 332.419 296.677 337.225 296.672H437.87C442.677 296.677 447.285 298.589 450.684 301.988C454.083 305.387 455.995 309.996 456 314.803V369.749C455.995 374.556 454.083 379.165 450.684 382.563C447.285 385.962 442.677 387.874 437.87 387.88ZM313.127 330.663L325.023 336.997V369.709C325.028 372.939 326.313 376.035 328.597 378.318C330.88 380.602 333.976 381.887 337.206 381.892H437.87C441.093 381.89 444.184 380.611 446.467 378.335C448.75 376.06 450.039 372.973 450.052 369.749V314.803C450.05 311.572 448.765 308.475 446.481 306.191C444.197 303.907 441.1 302.622 437.87 302.62H337.225C333.996 302.625 330.9 303.91 328.617 306.194C326.333 308.477 325.048 311.573 325.043 314.803V324.339L313.127 330.663Z" fill="#076300"/>
<path d="M379.831 364.198L357.745 342.112L365.487 334.37L379.831 348.724L409.896 318.659L417.638 326.391L379.831 364.198Z" fill="#0BB501"/>
<path d="M295.493 99.2814L282.189 112.585L286.395 116.791L299.699 103.487L295.493 99.2814Z" fill="#076300"/>
<path d="M271.751 86.0159H265.804V104.83H271.751V86.0159Z" fill="#076300"/>
<path d="M313.474 126.093H294.659V132.041H313.474V126.093Z" fill="#076300"/>
<path d="M399.784 407.427H393.836V401.48H399.784V407.427ZM383.924 407.427H377.976V401.48H383.924V407.427ZM368.063 407.427H362.115V401.48H368.063V407.427ZM352.203 407.427H346.255V401.48H352.203V407.427ZM336.342 407.427H330.395V401.48H336.342V407.427ZM319.699 405.594C317.626 404.879 315.633 403.952 313.751 402.828L316.784 397.723C318.322 398.633 319.946 399.39 321.632 399.983L319.699 405.594ZM305.504 395.82C304.094 394.155 302.853 392.355 301.796 390.447L307.001 387.572C307.863 389.136 308.879 390.611 310.034 391.973L305.504 395.82ZM298.208 380.207C297.856 378.085 297.7 375.934 297.742 373.784H303.69C303.643 375.596 303.773 377.409 304.076 379.196L298.208 380.207ZM303.69 363.871H297.742V357.923H303.69V363.871Z" fill="#076300"/>
<path d="M353.897 104.83C362.013 104.83 369.797 108.054 375.535 113.793C381.274 119.532 384.498 127.315 384.498 135.431C384.498 131.412 385.29 127.432 386.828 123.718C388.367 120.005 390.622 116.631 393.464 113.79C396.307 110.948 399.682 108.694 403.395 107.157C407.109 105.62 411.089 104.829 415.109 104.83C411.086 104.834 407.103 104.045 403.385 102.509C399.668 100.972 396.29 98.7181 393.445 95.8752C390.599 93.0324 388.342 89.6565 386.801 85.9408C385.261 82.225 384.468 78.242 384.468 74.2197C384.468 82.3313 381.249 90.1112 375.517 95.8507C369.785 101.59 362.009 104.82 353.897 104.83Z" fill="#0BB501"/>
<path d="M56 276.123C60.0778 276.131 63.9864 277.754 66.8699 280.638C69.7533 283.521 71.3767 287.43 71.3846 291.508C71.3872 287.42 73.0121 283.501 75.9023 280.611C78.7924 277.721 82.7116 276.096 86.7989 276.093C82.716 276.093 78.7998 274.473 75.9099 271.589C73.02 268.705 71.3925 264.792 71.3846 260.709C71.3846 264.792 69.7647 268.708 66.8804 271.598C63.996 274.488 60.083 276.115 56 276.123Z" fill="#076300"/>
<path d="M182.546 292.648L110.817 333.885V435.322H254.265V333.885L182.546 292.648Z" fill="#F5F5F5"/>
<path d="M254.265 333.885V435.322H110.817V333.885L182.546 292.648L254.265 333.885Z" fill="#F5F5F5"/>
<path style="mix-blend-mode:multiply" d="M254.265 333.904V352.035L182.536 310.778L110.808 352.045V333.914L182.536 292.638L254.265 333.904Z" fill="url(#paint0_linear_1784_1685)"/>
<path d="M200.637 385.163H163.86V435.322H200.637V385.163Z" fill="#0BB501"/>
<path d="M182.546 358.597C190.429 358.597 196.82 352.206 196.82 344.323C196.82 336.439 190.429 330.048 182.546 330.048C174.662 330.048 168.271 336.439 168.271 344.323C168.271 352.206 174.662 358.597 182.546 358.597Z" fill="#DEE1EC"/>
<path d="M182.546 361.561C179.134 361.563 175.798 360.553 172.96 358.658C170.122 356.764 167.91 354.07 166.603 350.918C165.296 347.766 164.954 344.297 165.619 340.95C166.284 337.604 167.927 334.529 170.34 332.117C172.753 329.704 175.827 328.061 179.174 327.396C182.521 326.73 185.989 327.073 189.141 328.379C192.294 329.686 194.987 331.898 196.882 334.736C198.776 337.574 199.786 340.911 199.784 344.323C199.777 348.892 197.958 353.272 194.727 356.503C191.496 359.735 187.116 361.553 182.546 361.561ZM182.546 333.022C180.311 333.02 178.125 333.681 176.265 334.922C174.406 336.162 172.956 337.927 172.099 339.991C171.242 342.056 171.017 344.329 171.452 346.521C171.887 348.714 172.962 350.729 174.542 352.31C176.122 353.891 178.136 354.969 180.328 355.405C182.52 355.842 184.793 355.619 186.859 354.764C188.924 353.909 190.69 352.461 191.932 350.602C193.174 348.743 193.837 346.558 193.837 344.323C193.834 341.328 192.644 338.457 190.528 336.338C188.411 334.22 185.541 333.027 182.546 333.022Z" fill="#076300"/>
<path d="M182.546 104.454L110.817 145.691V247.138H254.265V145.691L182.546 104.454Z" fill="#F5F5F5"/>
<path style="mix-blend-mode:multiply" d="M254.265 145.711V163.841L182.536 122.584L110.808 163.861V145.73L182.536 104.454L254.265 145.711Z" fill="url(#paint1_linear_1784_1685)"/>
<path d="M200.637 196.969H163.86V247.128H200.637V196.969Z" fill="#0BB501"/>
<path d="M257.249 250.112H107.844V143.976L182.546 101.024L257.249 143.976V250.112ZM113.791 244.164H251.301V147.416L182.546 107.883L113.791 147.416V244.164Z" fill="#076300"/>
<path d="M268.778 127.937V152.263H265.645L182.547 104.454L99.438 152.263H96.3154V127.937L182.547 77.1439L268.778 127.937Z" fill="#0BB501"/>
<path d="M271.752 155.237H264.813L182.537 107.883L100.261 155.237H93.3223V126.242L182.537 73.7042L271.752 126.242V155.237ZM99.2699 129.642V148.922L182.537 101.024L265.804 148.922V129.642L182.537 80.6035L99.2699 129.642Z" fill="#0BB501"/>
<path d="M182.546 170.403C190.429 170.403 196.82 164.012 196.82 156.129C196.82 148.245 190.429 141.854 182.546 141.854C174.662 141.854 168.271 148.245 168.271 156.129C168.271 164.012 174.662 170.403 182.546 170.403Z" fill="#DEE1EC"/>
<path d="M182.546 173.377C179.134 173.379 175.799 172.369 172.961 170.475C170.123 168.581 167.911 165.888 166.604 162.736C165.297 159.585 164.954 156.116 165.618 152.77C166.283 149.424 167.925 146.349 170.336 143.936C172.748 141.523 175.822 139.879 179.168 139.213C182.514 138.547 185.982 138.887 189.135 140.193C192.287 141.498 194.981 143.709 196.877 146.545C198.773 149.382 199.785 152.717 199.785 156.129C199.777 160.699 197.958 165.08 194.727 168.313C191.497 171.546 187.117 173.367 182.546 173.377ZM182.546 144.838C180.31 144.836 178.124 145.498 176.264 146.739C174.404 147.98 172.954 149.744 172.098 151.81C171.241 153.875 171.017 156.148 171.452 158.341C171.888 160.534 172.965 162.548 174.546 164.129C176.127 165.711 178.141 166.787 180.334 167.223C182.527 167.658 184.8 167.434 186.865 166.577C188.931 165.721 190.696 164.271 191.936 162.411C193.177 160.551 193.839 158.365 193.837 156.129C193.839 154.644 193.549 153.172 192.983 151.799C192.417 150.426 191.587 149.177 190.538 148.125C189.49 147.073 188.244 146.238 186.873 145.667C185.502 145.096 184.032 144.801 182.546 144.799V144.838Z" fill="#076300"/>
<path d="M257.249 438.296H107.844V332.15L182.546 289.208L257.249 332.15V438.296ZM113.791 432.348H251.301V335.6L182.546 296.077L113.791 335.6V432.348Z" fill="#076300"/>
<path d="M268.778 316.131V340.447H265.645L182.547 292.638L99.438 340.447H96.3154V316.131L182.547 265.338L268.778 316.131Z" fill="#0BB501"/>
<path d="M271.752 343.421H264.813L182.537 296.067L100.261 343.421H93.3223V314.426L182.537 261.888L271.752 314.426V343.421ZM99.2699 317.826V337.106L182.537 289.208L265.804 337.106V317.826L182.537 268.787L99.2699 317.826Z" fill="#0BB501"/>
<defs>
<linearGradient id="paint0_linear_1784_1685" x1="110.808" y1="322.346" x2="254.265" y2="322.346" gradientUnits="userSpaceOnUse">
<stop stop-color="#CACFDD"/>
<stop offset="1" stop-color="#EEF0F1"/>
</linearGradient>
<linearGradient id="paint1_linear_1784_1685" x1="110.808" y1="134.152" x2="254.265" y2="134.152" gradientUnits="userSpaceOnUse">
<stop stop-color="#CACFDD"/>
<stop offset="1" stop-color="#EEF0F1"/>
</linearGradient>
</defs>
</svg>
