<svg width="52" height="52" viewBox="0 0 52 52" fill="none" xmlns="http://www.w3.org/2000/svg">
<path d="M51.4018 8.36179C51.3224 7.78521 51.2974 7.20182 51.3247 6.62069C51.3201 3.31782 48.6438 0.64152 45.3408 0.636871H6.53753C3.23466 0.641412 0.55836 3.31776 0.553711 6.62069V45.424C0.558251 48.7269 3.2346 51.4032 6.53753 51.4078H45.3432H45.3409C48.6438 51.4033 51.3201 48.7269 51.3247 45.424V8.72494C51.3747 8.61144 51.4018 8.48664 51.4018 8.36179ZM6.53742 2.45294H45.3431H45.3408C46.5915 2.47564 47.7697 3.04313 48.5687 4.00337C49.3701 4.96356 49.7129 6.2257 49.5085 7.45832L2.36961 7.56501C2.07904 4.89318 3.72711 2.48699 6.53742 2.45294ZM44.5876 33.1118H43.2687L36.0454 28.9963L44.5873 28.9895L44.5876 33.1118ZM31.7849 28.658C33.7053 29.7772 42.4996 34.7528 44.3017 35.7884L38.2115 37.1867C37.9323 37.2525 37.6985 37.4478 37.585 37.7111C37.4715 37.9744 37.4874 38.2763 37.6281 38.526L41.8799 45.8627C41.7891 45.9217 39.8278 47.4131 39.6711 47.522C39.1695 46.6027 35.9324 40.9002 35.3422 39.8379L35.3445 39.8401C35.2015 39.5904 34.9495 39.4247 34.6658 39.3884C34.382 39.3521 34.096 39.452 33.8962 39.6585L29.8352 43.9103C29.9578 39.3657 30.1371 32.787 30.2597 28.2269C30.3164 28.0635 30.2506 27.9613 30.271 27.7956L31.7849 28.658ZM43.8978 45.7715C43.8865 45.7307 43.8728 45.6898 43.8547 45.6489L41.5552 41.6787H44.4199L44.4177 45.7715L43.8978 45.7715ZM28.3098 33.1187L8.0774 33.1119V28.9895L28.4213 28.9918L28.3098 33.1187ZM27.967 45.8058L7.91129 45.8035V41.6812H28.078L27.967 45.8058ZM34.364 41.7992L36.6226 45.8081H30.5342L34.364 41.7992ZM45.3443 49.5944L39.9417 49.5922L42.6089 47.5877H45.3284H45.3261C45.569 47.5877 45.7983 47.4924 45.9685 47.3222C46.1388 47.1519 46.2341 46.9204 46.2341 46.6797V40.7732C46.2341 40.5326 46.1388 40.301 45.9685 40.1308C45.7983 39.9605 45.569 39.8652 45.3261 39.8652H40.5023L39.8168 38.6825L46.9785 37.039C47.344 36.955 47.6187 36.6554 47.6732 36.2853C47.8479 35.425 46.604 35.0732 46.0705 34.7054V34.7077C46.2794 34.5397 46.402 34.2877 46.4042 34.0198V28.079C46.3997 27.5796 45.9956 27.1733 45.494 27.171L32.8615 27.1824L29.8537 25.4685C29.5768 25.3142 29.2386 25.3164 28.9616 25.4708C28.6847 25.6274 28.5099 25.9157 28.4962 26.2335L28.4713 27.1733L7.16964 27.171C6.67024 27.1756 6.2639 27.5796 6.26164 28.079V34.0199C6.26164 34.2605 6.35697 34.4897 6.52723 34.66C6.69748 34.8326 6.92902 34.9279 7.16966 34.9279L28.2603 34.9347L28.1264 39.8652L7.00144 39.8629V39.8652C6.50203 39.8674 6.09797 40.2715 6.09343 40.7732V46.7117C6.09343 47.2133 6.49977 47.6197 7.00144 47.6197L37.644 47.6242L38.5974 49.3177C38.661 49.4244 38.7427 49.5197 38.8426 49.5923H6.53798C4.23621 49.5901 2.37249 47.7264 2.37023 45.4246V9.38161L49.5092 9.27492V45.4248C49.5069 47.7266 47.6432 49.5903 45.3414 49.5926L45.3443 49.5944Z" fill="white"/>
<path d="M12.6075 6.24186C13.3521 6.23051 13.9514 5.62442 13.9514 4.87983C13.9514 4.13523 13.3521 3.52692 12.6075 3.51779C11.863 3.52687 11.2637 4.13523 11.2637 4.87983C11.2659 5.62436 11.8629 6.23047 12.6075 6.24186Z" fill="white"/>
<path d="M7.46885 6.24186C8.21338 6.23051 8.81269 5.62442 8.81269 4.87983C8.81269 4.13523 8.21344 3.52692 7.46885 3.51779C6.72431 3.52687 6.125 4.13523 6.125 4.87983C6.125 5.62442 6.72425 6.23047 7.46885 6.24186Z" fill="white"/>
<path d="M17.7459 6.24186C18.4904 6.23051 19.0897 5.62442 19.0897 4.87983C19.0897 4.13523 18.4905 3.52692 17.7459 3.51779C17.0013 3.52687 16.4043 4.13523 16.4043 4.87983C16.4043 5.62442 17.0013 6.23047 17.7459 6.24186Z" fill="white"/>
<path d="M44.8214 13.7558H6.49689C6.25627 13.7558 6.02473 13.8511 5.85446 14.0214C5.68421 14.1916 5.58887 14.4232 5.58887 14.6638V20.6023C5.58887 20.8452 5.68421 21.0745 5.85446 21.2447C6.02471 21.415 6.25625 21.5126 6.49689 21.5103H44.8214C45.062 21.5126 45.2935 21.415 45.4638 21.2447C45.634 21.0745 45.7294 20.8452 45.7294 20.6023V14.6638C45.7294 14.4232 45.634 14.1917 45.4638 14.0214C45.2935 13.8511 45.062 13.7558 44.8214 13.7558ZM43.9134 19.6943H7.40489V15.5719H43.9134V19.6943Z" fill="white"/>
</svg>
