<svg width="512" height="512" viewBox="0 0 512 512" fill="none" xmlns="http://www.w3.org/2000/svg">
<path d="M102.875 152.456L98.6324 156.698L113.072 171.137L117.314 166.895L102.875 152.456Z" fill="#076300"/>
<path d="M104.49 182.87H84.07V188.87H104.49V182.87Z" fill="#076300"/>
<path d="M133.8 137.35H127.8V157.77H133.8V137.35Z" fill="#076300"/>
<path d="M288.84 67.25C286.257 67.2445 283.744 66.4056 281.676 64.858C279.608 63.3104 278.094 61.1367 277.36 58.66C274.31 48.37 285.29 39.66 294.58 44.71C295.969 45.4543 297.196 46.4683 298.188 47.6926C299.181 48.9169 299.919 50.3269 300.36 51.84C300.891 53.6315 300.996 55.5223 300.667 57.3617C300.339 59.2012 299.585 60.9384 298.466 62.435C297.347 63.9316 295.894 65.1463 294.223 65.9822C292.552 66.8181 290.709 67.2522 288.84 67.25ZM283.12 57C283.403 57.945 283.915 58.8056 284.61 59.5057C285.305 60.2058 286.161 60.7237 287.104 61.0137C288.047 61.3036 289.047 61.3566 290.015 61.1679C290.984 60.9793 291.89 60.5548 292.655 59.9321C293.421 59.3093 294.02 58.5076 294.402 57.5978C294.783 56.688 294.934 55.6982 294.841 54.7161C294.749 53.734 294.416 52.7898 293.871 51.9672C293.327 51.1446 292.588 50.4689 291.72 50C290.676 49.4356 289.487 49.1938 288.305 49.3051C287.123 49.4164 286.001 49.8759 285.08 50.6253C284.159 51.3747 283.482 52.3805 283.133 53.5152C282.784 54.6499 282.779 55.8627 283.12 57Z" fill="#076300"/>
<path d="M252.6 109.9C250.886 109.897 249.206 109.417 247.748 108.515C246.291 107.612 245.112 106.322 244.345 104.789C243.578 103.256 243.252 101.539 243.404 99.8317C243.556 98.124 244.179 96.492 245.204 95.118C246.23 93.744 247.617 92.6819 249.211 92.0504C250.804 91.4189 252.542 91.2428 254.231 91.5417C255.919 91.8407 257.491 92.6029 258.771 93.7433C260.051 94.8837 260.989 96.3575 261.48 98C261.889 99.3822 261.97 100.841 261.717 102.26C261.463 103.679 260.882 105.019 260.02 106.174C259.158 107.329 258.039 108.267 256.751 108.914C255.463 109.561 254.041 109.899 252.6 109.9ZM249.5 101.58C249.651 102.093 249.927 102.561 250.303 102.942C250.678 103.323 251.142 103.605 251.653 103.764C252.164 103.923 252.706 103.953 253.231 103.852C253.757 103.751 254.249 103.522 254.665 103.185C255.08 102.847 255.406 102.413 255.613 101.92C255.821 101.427 255.903 100.89 255.853 100.357C255.803 99.8246 255.622 99.3125 255.327 98.8664C255.032 98.4203 254.631 98.054 254.16 97.8C253.595 97.4954 252.953 97.3648 252.314 97.4247C251.675 97.4845 251.068 97.7322 250.57 98.1365C250.071 98.5407 249.704 99.0834 249.514 99.6963C249.323 100.309 249.318 100.965 249.5 101.58Z" fill="#076300"/>
<path d="M425.29 105.49H280.71V465.75H425.29V105.49Z" fill="#F5F5F5"/>
<path d="M410 85.6499H295.99V105.49H410V85.6499Z" fill="white"/>
<path d="M352.99 399.68H327.69V424.98H352.99V399.68Z" fill="white"/>
<path d="M378.29 399.68H352.99V424.98H378.29V399.68Z" fill="white"/>
<path d="M384.75 424.98H321.25V436.71H384.75V424.98Z" fill="white"/>
<path d="M352.99 333.43H327.69V358.73H352.99V333.43Z" fill="white"/>
<path d="M378.29 333.43H352.99V358.73H378.29V333.43Z" fill="white"/>
<path d="M384.75 358.74H321.25V370.47H384.75V358.74Z" fill="white"/>
<path d="M352.99 267.19H327.69V292.49H352.99V267.19Z" fill="white"/>
<path d="M378.29 267.19H352.99V292.49H378.29V267.19Z" fill="white"/>
<path d="M384.75 292.49H321.25V304.22H384.75V292.49Z" fill="white"/>
<path d="M352.99 200.94H327.69V226.24H352.99V200.94Z" fill="white"/>
<path d="M378.29 200.94H352.99V226.24H378.29V200.94Z" fill="white"/>
<path d="M384.75 226.24H321.25V237.97H384.75V226.24Z" fill="white"/>
<path d="M352.99 134.69H327.69V159.99H352.99V134.69Z" fill="white"/>
<path d="M378.29 134.69H352.99V159.99H378.29V134.69Z" fill="white"/>
<path d="M384.75 160H321.25V171.73H384.75V160Z" fill="white"/>
<path d="M356 428H324.7V396.7H356V428ZM330.7 422H350V402.7H330.7V422Z" fill="#076300"/>
<path d="M381.3 428H350V396.7H381.3V428ZM356 422H375.3V402.7H356V422Z" fill="#076300"/>
<path d="M387.74 439.72H318.25V422H387.74V439.72ZM324.25 433.72H381.74V428H324.25V433.72Z" fill="#076300"/>
<path d="M356 361.74H324.7V330.43H356V361.74ZM330.7 355.74H350V336.43H330.7V355.74Z" fill="#076300"/>
<path d="M381.3 361.74H350V330.43H381.3V361.74ZM355.99 355.74H375.3V336.43H356L355.99 355.74Z" fill="#076300"/>
<path d="M387.74 373.47H318.25V355.74H387.74V373.47ZM324.25 367.47H381.74V361.74H324.25V367.47Z" fill="#076300"/>
<path d="M356 295.49H324.7V264.19H356V295.49ZM330.7 289.49H350V270.19H330.7V289.49Z" fill="#076300"/>
<path d="M381.3 295.49H350V264.19H381.3V295.49ZM355.99 289.49H375.3V270.19H356L355.99 289.49Z" fill="#076300"/>
<path d="M387.74 307.22H318.25V289.49H387.74V307.22ZM324.25 301.22H381.74V295.49H324.25V301.22Z" fill="#076300"/>
<path d="M356 229.24H324.7V197.94H356V229.24ZM330.7 223.24H350V203.94H330.7V223.24Z" fill="#076300"/>
<path d="M381.3 229.24H350V197.94H381.3V229.24ZM355.99 223.24H375.3V203.94H356L355.99 223.24Z" fill="#076300"/>
<path d="M387.74 241H318.25V223.24H387.74V241ZM324.25 235H381.74V229.26H324.25V235Z" fill="#076300"/>
<path d="M356 163H324.7V131.69H356V163ZM330.7 157H350V137.69H330.7V157Z" fill="#076300"/>
<path d="M381.3 163H350V131.69H381.3V163ZM356 157H375.3V137.69H356V157Z" fill="#076300"/>
<path d="M387.74 174.73H318.25V157H387.74V174.73ZM324.25 168.73H381.74V163H324.25V168.73Z" fill="#076300"/>
<path d="M413 108.49H293V82.6499H413V108.49ZM299 102.49H407V88.6499H299V102.49Z" fill="#076300"/>
<path style="mix-blend-mode:multiply" d="M305.81 167.9V213.54C305.81 214.66 305.366 215.734 304.575 216.527C303.783 217.32 302.71 217.767 301.59 217.77C300.468 217.77 299.392 218.216 298.599 219.009C297.806 219.802 297.36 220.878 297.36 222V465.74H280.71V163.67H301.59C302.71 163.673 303.783 164.119 304.575 164.912C305.366 165.705 305.81 166.78 305.81 167.9Z" fill="url(#paint0_linear_18_54)"/>
<path d="M446.83 175.12H440.83V169.12H446.83V175.12ZM446.83 159.12H440.83V153.12H446.83V159.12ZM446.83 143.12H440.83V137.12H446.83V143.12ZM446.83 127.12H440.83V121.12H446.83V127.12ZM446.83 111.12H440.83V105.12H446.83V111.12ZM440.46 95.8499C440.078 94.2544 439.4 92.7448 438.46 91.3999L443.46 88.0099C444.802 89.9657 445.772 92.1523 446.32 94.4599L440.46 95.8499ZM432.16 86.3999C430.627 85.817 429 85.5188 427.36 85.5199V79.5199C429.732 79.516 432.085 79.9499 434.3 80.7999L432.16 86.3999Z" fill="#076300"/>
<path d="M428.28 468.75H277.71V102.49H428.28V468.75ZM283.71 462.75H422.28V108.49H283.71V462.75Z" fill="#076300"/>
<path d="M116.05 447.88L101.76 420.61H110.32L84 370.37L57.49 420.61H66.15L51.76 447.88H116.05Z" fill="#0BB501"/>
<path d="M86.91 447.88H80.91V465.75H86.91V447.88Z" fill="#076300"/>
<path d="M476 462.75H36V468.75H476V462.75Z" fill="#076300"/>
<path d="M428.28 453.99H422.28V465.74H428.28V453.99Z" fill="#076300"/>
<path d="M280.71 201.12H132.05V465.74H280.71V201.12Z" fill="#0BB501"/>
<path d="M289.18 180.31H124.91V201.12H289.18V180.31Z" fill="white"/>
<path d="M283.71 468.75H129.05V198.12H283.71V468.75ZM135.05 462.75H277.71V204.12H135.05V462.75Z" fill="#076300"/>
<path d="M292.17 204.12H121.91V177.31H292.17V204.12ZM127.91 198.12H286.17V183.31H127.91V198.12Z" fill="#076300"/>
<path d="M192.25 230.06H165.45V274.24H192.25V230.06Z" fill="#F5F5F5"/>
<path d="M219.05 230.06H192.25V274.24H219.05V230.06Z" fill="#F5F5F5"/>
<path d="M245.84 230.06H219.04V274.24H245.84V230.06Z" fill="#F5F5F5"/>
<path d="M192.25 297.07H165.45V341.25H192.25V297.07Z" fill="#F5F5F5"/>
<path d="M219.05 297.07H192.25V341.25H219.05V297.07Z" fill="#F5F5F5"/>
<path d="M245.84 297.07H219.04V341.25H245.84V297.07Z" fill="#F5F5F5"/>
<path d="M192.25 364.09H165.45V408.27H192.25V364.09Z" fill="#F5F5F5"/>
<path d="M219.05 364.09H192.25V408.27H219.05V364.09Z" fill="#F5F5F5"/>
<path d="M245.84 364.09H219.04V408.27H245.84V364.09Z" fill="#F5F5F5"/>
<path d="M195.25 277.24H162.45V227.06H195.25V277.24ZM168.45 271.24H189.25V233.06H168.45V271.24Z" fill="#076300"/>
<path d="M222 277.24H189.25V227.06H222V277.24ZM195.21 271.24H216V233.06H195.25L195.21 271.24Z" fill="#076300"/>
<path d="M248.84 277.24H216V227.06H248.8L248.84 277.24ZM222.04 271.24H242.84V233.06H222L222.04 271.24Z" fill="#076300"/>
<path d="M195.25 344.26H162.45V294.07H195.25V344.26ZM168.45 338.26H189.25V300.07H168.45V338.26Z" fill="#076300"/>
<path d="M222 344.26H189.25V294.07H222V344.26ZM195.21 338.26H216V300.07H195.25L195.21 338.26Z" fill="#076300"/>
<path d="M248.84 344.26H216V294.07H248.8L248.84 344.26ZM222.04 338.26H242.84V300.07H222L222.04 338.26Z" fill="#076300"/>
<path d="M195.25 411.27H162.45V361.09H195.25V411.27ZM168.45 405.27H189.25V367.09H168.45V405.27Z" fill="#076300"/>
<path d="M222 411.27H189.25V361.09H222V411.27ZM195.21 405.27H216V367.09H195.25L195.21 405.27Z" fill="#076300"/>
<path d="M248.84 411.27H216V361.09H248.8L248.84 411.27ZM222.04 405.27H242.84V367.09H222L222.04 405.27Z" fill="#076300"/>
<path d="M217.19 434.73H194.33V465.74H217.19V434.73Z" fill="#076300"/>
<path d="M446.42 453.99L437.02 436.06H442.66L425.34 403.01L407.91 436.06H413.61L404.14 453.99H446.42Z" fill="#0BB501"/>
<defs>
<linearGradient id="paint0_linear_18_54" x1="280.71" y1="314.71" x2="305.81" y2="314.71" gradientUnits="userSpaceOnUse">
<stop stop-color="#CACFDD"/>
<stop offset="1" stop-color="#EEF0F1"/>
</linearGradient>
</defs>
</svg>
