<svg width="512" height="512" viewBox="0 0 512 512" fill="none" xmlns="http://www.w3.org/2000/svg">
<rect width="512" height="512" fill="white"/>
<path d="M380.873 223.586V435.077H83.5V223.586L232.182 131.695L380.873 223.586Z" fill="#F5F5F5"/>
<path d="M396.918 202.841V233.505L232.181 131.705L67.4541 233.505V202.841L232.181 101.032L396.918 202.841Z" fill="#0BB501"/>
<path d="M322.1 279.814H142.272V435.068H322.1V279.814Z" fill="white"/>
<path d="M333.201 259.841H131.174V279.823H333.201V259.841Z" fill="#0BB501"/>
<path d="M335.927 282.541H128.445V257.086H335.927V282.541ZM133.9 277.086H330.473V262.541H133.9V277.086Z" fill="#076300"/>
<path d="M324.828 304.723H139.546V277.086H324.828V304.723ZM145 299.268H319.373V282.541H145V299.268Z" fill="#076300"/>
<path d="M324.828 326.914H139.546V299.277H324.828V326.914ZM145 321.459H319.373V304.732H145V321.459Z" fill="#076300"/>
<path d="M324.828 349.086H139.546V321.459H324.828V349.086ZM145 343.632H319.373V326.914H145V343.632Z" fill="#076300"/>
<path d="M324.828 371.259H139.546V343.632H324.828V371.259ZM145 365.805H319.373V349.086H145V365.805Z" fill="#076300"/>
<path d="M324.828 393.441H139.546V365.804H324.828V393.441ZM145 387.986H319.373V371.259H145V387.986Z" fill="#076300"/>
<path d="M324.828 415.623H139.546V387.986H324.828V415.623ZM145 410.168H319.373V393.441H145V410.168Z" fill="#076300"/>
<path d="M324.828 437.823H139.546V410.168H324.828V437.823ZM145 432.368H319.373V415.623H145V432.368Z" fill="#076300"/>
<path d="M456 432.832H56V438.286H456V432.832Z" fill="#076300"/>
<path d="M383.6 437.823H80.7725V222.068L232.182 128.495L383.6 222.068V437.823ZM86.227 432.368H378.145V225.095L232.182 134.904L86.227 225.095V432.368Z" fill="#076300"/>
<path d="M399.637 238.395L232.182 134.914L64.7275 238.395V201.314L232.182 97.8227L399.637 201.314V238.395ZM232.182 128.495L394.182 228.614V204.359L232.182 104.241L70.1821 204.359V228.614L232.182 128.495Z" fill="#0BB501"/>
<path d="M414.965 279.723L411.108 283.58L422.898 295.369L426.755 291.513L414.965 279.723Z" fill="#076300"/>
<path d="M438.445 265.195H421.772V270.65H438.445V265.195Z" fill="#076300"/>
<path d="M403.028 290.859H397.573V307.532H403.028V290.859Z" fill="#076300"/>
<path d="M311.109 130.341L306.5 127.441L309.4 122.823L314.018 125.723L311.109 130.341ZM298.8 122.595L294.181 119.695L297.091 115.077L301.709 117.986L298.8 122.595ZM286.491 114.85L281.872 111.95L284.772 107.332L289.391 110.241L286.491 114.85ZM274.181 107.105L269.563 104.186L272.463 99.5682L277.081 102.477L274.181 107.105ZM195.7 102.923L192.863 98.2591L197.527 95.4318L200.363 100.086L195.7 102.923ZM261.872 99.3682L257.254 96.4591L260.163 91.8409L264.781 94.75L261.872 99.3682ZM208.127 95.3682L205.291 90.7045L209.954 87.8682L212.791 92.5318L208.127 95.3682ZM249.563 91.6227L244.936 88.7318L247.818 84.0954L252.436 87.0045L249.563 91.6227ZM220.545 87.8227L217.718 83.1591C219.381 82.0619 221.158 81.1475 223.018 80.4318L224.936 85.5409C223.395 86.1427 221.923 86.9077 220.545 87.8227ZM237.536 85.0409C235.99 84.6026 234.397 84.3524 232.791 84.2954L233 78.8409C235.031 78.9113 237.047 79.2163 239.009 79.75L237.536 85.0409Z" fill="#A9AFC4"/>
<path d="M138.727 95.5318C136.694 95.5273 134.704 94.9551 132.979 93.8797C131.254 92.8042 129.864 91.2683 128.966 89.4452C128.067 87.622 127.696 85.5841 127.894 83.5611C128.091 81.5382 128.85 79.6108 130.085 77.9962C131.32 76.3816 132.981 75.144 134.881 74.423C136.782 73.702 138.846 73.5263 140.841 73.9156C142.835 74.305 144.682 75.2439 146.172 76.6265C147.662 78.0092 148.736 79.7805 149.272 81.7409C149.716 83.3616 149.78 85.063 149.458 86.7123C149.136 88.3617 148.438 89.9143 147.417 91.2492C146.396 92.5841 145.081 93.6652 143.573 94.408C142.066 95.1509 140.407 95.5355 138.727 95.5318ZM138.772 79.1681C137.815 79.1672 136.874 79.4184 136.044 79.8965C135.214 80.3746 134.525 81.0628 134.045 81.8918C133.566 82.7208 133.313 83.6615 133.312 84.6192C133.312 85.5769 133.563 86.5179 134.042 87.3475C134.52 88.1772 135.209 88.8662 136.038 89.3454C136.867 89.8246 137.808 90.077 138.765 90.0772C139.723 90.0775 140.664 89.8256 141.494 89.3468C142.323 88.8681 143.012 88.1794 143.491 87.35C143.967 86.5183 144.215 85.576 144.211 84.6178C144.207 83.6596 143.951 82.7194 143.468 81.8918C142.985 81.0641 142.292 80.3784 141.46 79.9034C140.628 79.4285 139.685 79.1812 138.727 79.1863L138.772 79.1681Z" fill="#076300"/>
<path d="M85.0266 128.341C83.7382 128.341 82.467 128.045 81.311 127.476C80.1551 126.907 79.1454 126.08 78.3599 125.059C77.5744 124.037 77.034 122.849 76.7805 121.586C76.5271 120.323 76.5673 119.018 76.898 117.773C77.2288 116.528 77.8413 115.375 78.6882 114.404C79.5351 113.433 80.5939 112.67 81.7826 112.173C82.9714 111.676 84.2585 111.459 85.5444 111.539C86.8304 111.618 88.0809 111.992 89.1994 112.632C90.1609 113.173 91.005 113.9 91.6824 114.771C92.3598 115.642 92.8569 116.639 93.1448 117.705C93.4878 118.953 93.5378 120.265 93.2907 121.536C93.0437 122.807 92.5063 124.004 91.7206 125.034C90.9348 126.063 89.9219 126.897 88.7608 127.471C87.5997 128.045 86.3217 128.342 85.0266 128.341ZM82.1994 120.723C82.3287 121.191 82.5714 121.62 82.9061 121.972C83.2408 122.324 83.6571 122.588 84.1181 122.741C84.5792 122.893 85.0708 122.93 85.5494 122.848C86.028 122.765 86.479 122.566 86.8622 122.267C87.2455 121.969 87.5493 121.581 87.7467 121.137C87.9441 120.693 88.0291 120.208 87.9941 119.723C87.9592 119.239 87.8053 118.771 87.5462 118.36C87.287 117.949 86.9306 117.608 86.5085 117.368C85.9998 117.084 85.4186 116.955 84.8375 117C84.2563 117.044 83.7011 117.258 83.2412 117.616C82.7814 117.974 82.4373 118.46 82.2519 119.012C82.0666 119.565 82.0483 120.16 82.1994 120.723Z" fill="#076300"/>
</svg>
