<svg width="512" height="512" viewBox="0 0 512 512" fill="none" xmlns="http://www.w3.org/2000/svg">
<path d="M376.79 68.0801H100.42V445.54H376.79V68.0801Z" fill="#F5F5F5"/>
<path d="M376.79 68.0801H100.42V445.54H376.79V68.0801Z" fill="#F5F5F5"/>
<path d="M356 108.26V405.36C350.851 405.36 345.913 407.405 342.271 411.045C338.63 414.684 336.583 419.621 336.58 424.77H140.58C140.58 422.22 140.078 419.695 139.102 417.34C138.125 414.984 136.695 412.844 134.891 411.042C133.088 409.239 130.947 407.81 128.591 406.835C126.235 405.86 123.71 405.359 121.16 405.36V108.26C123.71 108.261 126.235 107.76 128.591 106.785C130.947 105.811 133.088 104.381 134.891 102.579C136.695 100.776 138.125 98.6359 139.102 96.2803C140.078 93.9247 140.58 91.3999 140.58 88.8501H336.58C336.583 93.9989 338.63 98.9359 342.271 102.576C345.913 106.215 350.851 108.26 356 108.26Z" fill="#0BB501"/>
<path d="M238.61 116.52L203.76 150.08H217.76V180.72H231.07V163.94H246.07V180.72H259.37V150.08H273.37L238.61 116.52Z" fill="white"/>
<path d="M330.36 203.64H146.85V216.76H330.36V203.64Z" fill="white"/>
<path d="M289.02 239.71H146.85V252.83H289.02V239.71Z" fill="white"/>
<path d="M330.36 239.71H304.76V252.83H330.36V239.71Z" fill="white"/>
<path d="M330.36 275.79H146.85V288.91H330.36V275.79Z" fill="white"/>
<path d="M207.13 311.86H159.99V324.98H207.13V311.86Z" fill="white"/>
<path d="M317.22 311.86H222.67V324.98H317.22V311.86Z" fill="white"/>
<path d="M294.87 350.3H167.62V363.42H294.87V350.3Z" fill="white"/>
<path style="mix-blend-mode:multiply" d="M376.79 316.74V445.54H332.63V439.72C327.592 436.595 323.426 432.248 320.519 427.081C317.611 421.915 316.057 416.098 316 410.17C303.11 396.82 302.51 374.9 316.09 361.23C316.205 352.079 319.899 343.337 326.381 336.877C332.864 330.417 341.619 326.753 350.77 326.67C354.21 323.341 358.29 320.745 362.762 319.038C367.235 317.331 372.007 316.549 376.79 316.74Z" fill="url(#paint0_linear_18_127)"/>
<path d="M379.79 448.54H97.42V65.0801H379.79V448.54ZM103.42 442.54H373.79V71.0801H103.42V442.54Z" fill="#076300"/>
<path d="M392.53 343.94C395.955 342.635 399.684 342.348 403.268 343.115C406.853 343.881 410.139 345.668 412.73 348.26C415.322 350.851 417.109 354.137 417.875 357.721C418.642 361.306 418.355 365.035 417.05 368.46C431.57 374.94 432.43 396.31 417.05 403.13C418.355 406.555 418.642 410.284 417.875 413.868C417.109 417.453 415.322 420.738 412.73 423.33C410.139 425.922 406.853 427.709 403.268 428.475C399.684 429.242 395.955 428.955 392.53 427.65C386 442.29 364.68 442.95 357.85 427.65C342.51 433.57 327.42 418.48 333.34 403.13C318.81 396.65 317.95 375.28 333.34 368.46C332.036 365.036 331.75 361.308 332.517 357.725C333.283 354.143 335.069 350.858 337.659 348.267C340.249 345.676 343.533 343.889 347.115 343.121C350.698 342.353 354.426 342.638 357.85 343.94C364.33 329.42 385.71 328.56 392.53 343.94Z" fill="#F5F5F5"/>
<path d="M356.36 431.27C352.68 432.181 348.827 432.126 345.174 431.109C341.522 430.092 338.194 428.149 335.514 425.468C332.834 422.787 330.892 419.458 329.877 415.806C328.862 412.153 328.808 408.3 329.72 404.62C315.84 396.22 315.32 375.5 329.72 366.95C328.812 363.272 328.869 359.421 329.886 355.771C330.903 352.121 332.846 348.796 335.525 346.117C338.205 343.439 341.531 341.498 345.181 340.482C348.831 339.466 352.682 339.41 356.36 340.32C364.65 326.64 385.36 325.72 394.03 340.32C397.713 339.409 401.568 339.465 405.222 340.484C408.876 341.503 412.205 343.449 414.885 346.134C417.565 348.819 419.505 352.151 420.517 355.808C421.529 359.464 421.578 363.319 420.66 367C434.61 375.44 435 396.16 420.66 404.67C421.561 408.348 421.498 412.196 420.476 415.842C419.455 419.488 417.509 422.809 414.828 425.483C412.147 428.157 408.821 430.093 405.172 431.106C401.524 432.118 397.675 432.171 394 431.26C385.61 445.17 364.93 445.68 356.36 431.27ZM359.43 423.83C360.84 426.98 362.01 430.14 365.67 432.83C367.61 434.218 369.832 435.159 372.178 435.588C374.524 436.016 376.936 435.921 379.24 435.308C381.545 434.696 383.686 433.581 385.51 432.045C387.334 430.508 388.795 428.587 389.79 426.42L390.95 423.82L393.61 424.82C396.493 425.915 399.631 426.154 402.646 425.508C405.662 424.862 408.426 423.358 410.607 421.177C412.788 418.996 414.292 416.232 414.938 413.216C415.584 410.201 415.346 407.063 414.25 404.18L413.25 401.51L415.86 400.36C428.99 394.54 427.86 376.54 415.86 371.17L413.26 370.01L414.26 367.35C415.356 364.467 415.594 361.329 414.948 358.314C414.302 355.298 412.798 352.534 410.617 350.353C408.436 348.172 405.672 346.668 402.656 346.022C399.641 345.375 396.503 345.614 393.62 346.71L390.95 347.71C389.49 344.41 388.29 341.18 384.39 338.46C382.444 337.142 380.233 336.264 377.913 335.886C375.593 335.509 373.218 335.641 370.954 336.274C368.691 336.907 366.592 338.025 364.803 339.551C363.015 341.077 361.581 342.974 360.6 345.11L359.44 347.71L356.78 346.71C353.897 345.614 350.759 345.375 347.744 346.022C344.728 346.668 341.964 348.172 339.783 350.353C337.602 352.534 336.098 355.298 335.452 358.314C334.806 361.329 335.045 364.467 336.14 367.35L337.14 370.01L334.53 371.17C321.42 376.99 322.48 394.98 334.53 400.36L337.13 401.52L336.13 404.18C335.035 407.063 334.796 410.201 335.442 413.216C336.088 416.232 337.592 418.996 339.773 421.177C341.954 423.358 344.718 424.862 347.734 425.508C350.749 426.154 353.887 425.915 356.77 424.82L359.43 423.83Z" fill="#076300"/>
<path d="M375.19 414.29C390.93 414.29 403.69 401.53 403.69 385.79C403.69 370.05 390.93 357.29 375.19 357.29C359.45 357.29 346.69 370.05 346.69 385.79C346.69 401.53 359.45 414.29 375.19 414.29Z" fill="#076300"/>
<path d="M393.73 286.55C397.716 286.55 401.664 287.335 405.347 288.861C409.03 290.387 412.376 292.623 415.194 295.443C418.013 298.262 420.248 301.609 421.773 305.292C423.297 308.976 424.081 312.923 424.08 316.91C424.08 308.858 427.279 301.136 432.972 295.442C438.666 289.749 446.388 286.55 454.44 286.55C446.388 286.55 438.666 283.351 432.972 277.658C427.279 271.964 424.08 264.242 424.08 256.19C424.081 260.176 423.297 264.124 421.773 267.807C420.248 271.491 418.013 274.838 415.194 277.657C412.376 280.476 409.03 282.713 405.347 284.239C401.664 285.765 397.716 286.55 393.73 286.55Z" fill="#076300"/>
<path d="M61.3 466.31C63.1892 466.31 65.06 466.682 66.8053 467.406C68.5506 468.129 70.1363 469.189 71.4717 470.525C72.8072 471.862 73.8662 473.448 74.5882 475.194C75.3103 476.94 75.6813 478.811 75.68 480.7C75.6853 476.885 77.2031 473.228 79.9006 470.531C82.5981 467.833 86.2551 466.315 90.07 466.31C88.1807 466.311 86.3097 465.94 84.5639 465.218C82.8181 464.496 81.2317 463.437 79.8953 462.102C78.559 460.766 77.4988 459.181 76.7756 457.435C76.0523 455.69 75.68 453.819 75.68 451.93C75.68 453.818 75.308 455.688 74.5854 457.433C73.8627 459.178 72.8035 460.763 71.4682 462.098C70.1329 463.433 68.5476 464.493 66.803 465.215C65.0583 465.938 63.1884 466.31 61.3 466.31Z" fill="#076300"/>
<path d="M74.9884 38.3499L70.7457 42.5925L83.9898 55.8366L88.2325 51.594L74.9884 38.3499Z" fill="#076300"/>
<path d="M76.29 66.1602H57.56V72.1602H76.29V66.1602Z" fill="#076300"/>
<path d="M103.42 24.66H97.42V43.39H103.42V24.66Z" fill="#076300"/>
<path d="M402.69 178.82H396.69V172.82H402.69V178.82ZM402.69 162.82H396.69V156.82H402.69V162.82ZM402.69 146.82H396.69V140.82H402.69V146.82ZM402.69 130.82H396.69V124.82H402.69V130.82ZM402.69 114.82H396.69V108.82H402.69V114.82ZM402.69 98.8201H396.69V92.8201H402.69V98.8201ZM402.69 82.8201H396.69V76.8201H402.69V82.8201ZM396.3 67.3901C395.978 65.6447 395.461 63.9408 394.76 62.3101L400.26 59.9301C401.148 61.9722 401.799 64.1095 402.2 66.3001L396.3 67.3901ZM389.8 55.0001C388.543 53.7438 387.152 52.6303 385.65 51.6801L388.84 46.6101C390.723 47.7944 392.468 49.1864 394.04 50.7601L389.8 55.0001ZM377.44 48.4701C375.652 48.1504 373.836 48.0164 372.02 48.0701V42.0701C374.205 42.0141 376.389 42.1816 378.54 42.5701L377.44 48.4701ZM362 48.0901H356V42.0901H362V48.0901Z" fill="#076300"/>
<path d="M371.41 398.36L359 385.96L362.88 382.08L371.41 390.62L388.02 374L391.9 377.88L371.41 398.36Z" fill="#F5F5F5"/>
<defs>
<linearGradient id="paint0_linear_18_127" x1="306.11" y1="381.12" x2="376.79" y2="381.12" gradientUnits="userSpaceOnUse">
<stop stop-color="#CACFDD"/>
<stop offset="1" stop-color="#EEF0F1"/>
</linearGradient>
</defs>
</svg>
