<svg width="512" height="512" viewBox="0 0 512 512" fill="none" xmlns="http://www.w3.org/2000/svg">
<path d="M402.53 374.13C410.961 374.13 419.047 377.479 425.009 383.441C430.971 389.403 434.32 397.489 434.32 405.92C434.319 401.745 435.14 397.611 436.737 393.753C438.334 389.895 440.676 386.39 443.628 383.438C446.58 380.486 450.085 378.144 453.943 376.547C457.8 374.95 461.935 374.129 466.11 374.13C461.935 374.13 457.801 373.308 453.944 371.71C450.088 370.113 446.583 367.771 443.631 364.819C440.679 361.867 438.337 358.363 436.74 354.506C435.142 350.649 434.32 346.515 434.32 342.34C434.32 350.771 430.971 358.857 425.009 364.819C419.047 370.781 410.961 374.13 402.53 374.13Z" fill="#076300"/>
<path d="M374 140.2V447.2H114.65C88.29 447.2 66.24 426.32 65.81 399.97C65.693 393.589 66.8498 387.248 69.2127 381.319C71.5756 375.39 75.0972 369.992 79.5714 365.441C84.0457 360.889 89.3827 357.276 95.2702 354.812C101.158 352.347 107.478 351.082 113.86 351.09V140.2H374Z" fill="#F5F5F5"/>
<path d="M374 140.2V447.2H114.65C88.29 447.2 66.24 426.31 65.8 399.96C65.6925 393.58 66.8561 387.243 69.223 381.318C71.59 375.393 75.1128 369.998 79.5862 365.448C84.0596 360.898 89.3941 357.285 95.2784 354.818C101.163 352.351 107.479 351.08 113.86 351.08V140.2H374Z" fill="white"/>
<path d="M334.37 195.04H145.7V391.56H334.37V195.04Z" fill="#0BB501"/>
<path d="M317.4 394.56H142.71V192.04H337.38V219.04H331.38V198.04H148.71V388.56H317.4V394.56Z" fill="#076300"/>
<path d="M245.07 347.13H189.97V341.13H239.07V195.04H245.07V347.13Z" fill="white"/>
<path d="M216.01 266.59H145.7V272.59H216.01V266.59Z" fill="white"/>
<path d="M334.38 290.3H275.33V296.3H334.38V290.3Z" fill="white"/>
<path d="M296.51 341.13H242.07V347.13H296.51V341.13Z" fill="white"/>
<g style="mix-blend-mode:multiply">
<path d="M374 291.43V375.3L369.77 379.53C362.058 387.219 351.61 391.535 340.72 391.53H300.22C300.047 389.261 300.34 386.981 301.08 384.83L310.34 357.62C311.221 355.043 312.682 352.703 314.61 350.78C325.69 339.7 313.35 352 374 291.43Z" fill="url(#paint0_linear_18_356)"/>
<path style="mix-blend-mode:multiply" d="M374 140.2V195.8C357.495 195.656 341.483 190.157 328.373 180.131C315.262 170.104 305.761 156.091 301.3 140.2H374Z" fill="url(#paint1_linear_18_356)"/>
</g>
<path d="M400.05 246.08H394.05V240.08H400.05V246.08ZM400.05 230.08H394.05V224.08H400.05V230.08ZM400.87 214.85L395.04 213.43C395.555 211.298 396.279 209.221 397.2 207.23L402.65 209.75C401.903 211.388 401.32 213.097 400.91 214.85H400.87ZM407.68 202.27L403.29 198.18C404.78 196.58 406.417 195.124 408.18 193.83L411.74 198.66C410.289 199.733 408.943 200.942 407.72 202.27H407.68ZM420.1 193.67L417 188.55C418.63 187.55 420.25 186.47 421.82 185.35L425.32 190.23C423.63 191.43 421.89 192.59 420.14 193.67H420.1ZM433.31 183.67L429.26 179.24C430.68 177.95 432.07 176.58 433.39 175.19L437.75 179.32C436.36 180.86 434.87 182.32 433.35 183.71L433.31 183.67ZM444.41 171.4L439.6 167.82C440.75 166.27 441.86 164.67 442.89 163.06L447.95 166.29C446.88 168.06 445.69 169.78 444.45 171.44L444.41 171.4ZM453 157.3L447.59 154.69C448.43 152.95 449.21 151.17 449.92 149.39L455.5 151.61C454.78 153.52 453.94 155.43 453 157.3ZM458.74 141.77L453 140.24C453.49 138.38 453.92 136.48 454.28 134.6L460.17 135.71C459.76 137.73 459.3 139.77 458.78 141.77H458.74ZM461.41 125.44L455.41 125.04C455.55 122.9 455.59 121.12 455.59 119.25H461.59C461.64 121.28 461.6 123.19 461.45 125.44H461.41ZM455 109.64C454.77 107.73 454.47 105.81 454.1 103.93L459.99 102.78C460.38 104.78 460.71 106.86 460.99 108.91L455 109.64ZM451.69 94.64C451.1 92.82 450.43 90.99 449.69 89.21L455.25 86.96C456.02 88.87 456.74 90.83 457.37 92.79L451.69 94.64ZM445.57 80.53C444.63 78.84 443.63 77.17 442.57 75.53L447.57 72.26C448.69 73.98 449.77 75.77 450.77 77.58L445.57 80.53ZM436.87 67.82C435.64 66.34 434.34 64.89 433.01 63.51L437.33 59.35C438.76 60.83 440.15 62.35 441.47 63.97L436.87 67.82ZM426 56.93C424.51 55.71 423 54.54 421.39 53.43L424.85 48.53C426.54 49.72 428.2 50.98 429.8 52.29L426 56.93ZM413.2 48.34C411.51 47.43 409.77 46.57 408.02 45.78L410.49 40.31C412.37 41.16 414.24 42.08 416.06 43.07L413.2 48.34ZM399.01 42.34C397.19 41.77 395.31 41.25 393.44 40.81L394.79 35C396.79 35.48 398.79 36 400.79 36.65L399.01 42.34Z" fill="#076300"/>
<path d="M113.86 92.1399C101.114 92.1399 88.8894 97.2033 79.8764 106.216C70.8635 115.229 65.8 127.454 65.8 140.2V399.2C65.8 386.454 70.8635 374.229 79.8764 365.216C88.8894 356.203 101.114 351.14 113.86 351.14V92.1399Z" fill="#0BB501"/>
<path d="M377 450.21H114.65C86.52 450.21 63.27 427.7 62.81 400.03C62.571 386.855 67.4404 374.1 76.3978 364.436C85.3552 354.772 97.7052 348.95 110.86 348.19V137.19H377V450.21ZM113.86 354.1C107.88 354.099 101.96 355.29 96.4454 357.603C90.9309 359.916 85.9328 363.305 81.7431 367.572C77.5534 371.839 74.2563 376.898 72.0442 382.454C69.8322 388.01 68.7497 393.951 68.86 399.93C69.26 424.35 89.86 444.21 114.7 444.21H371V143.21H116.86V354.1H113.86Z" fill="#076300"/>
<path d="M68.8 399.16H62.8C62.8 133.16 62.8 140.5 62.8 140.16C62.8159 126.623 68.2005 113.645 77.7727 104.073C87.3448 94.5006 100.323 89.116 113.86 89.1001H116.86V140.2V354.1H113.86C101.913 354.113 90.4599 358.865 82.0124 367.312C73.5648 375.76 68.8132 387.214 68.8 399.16ZM110.86 95.2401C99.4514 96.0132 88.7621 101.09 80.954 109.444C73.1459 117.798 68.8017 128.805 68.8 140.24C68.8 140.51 68.8 133.49 68.8 375.24C72.9134 367.516 78.9409 360.977 86.3053 356.249C93.6697 351.522 102.124 348.764 110.86 348.24V95.2401Z" fill="#5E6175"/>
<path d="M374.72 180.18C408.211 180.18 435.36 153.03 435.36 119.54C435.36 86.0494 408.211 58.8999 374.72 58.8999C341.229 58.8999 314.08 86.0494 314.08 119.54C314.08 153.03 341.229 180.18 374.72 180.18Z" fill="white"/>
<path d="M374.72 183.18C362.133 183.18 349.829 179.448 339.364 172.455C328.898 165.462 320.741 155.523 315.924 143.894C311.108 132.265 309.847 119.469 312.303 107.124C314.758 94.7794 320.819 83.4399 329.72 74.5397C338.62 65.6394 349.959 59.5783 362.304 57.1228C374.649 54.6672 387.445 55.9275 399.074 60.7442C410.703 65.561 420.642 73.7179 427.635 84.1834C434.628 94.649 438.36 106.953 438.36 119.54C438.369 127.9 436.729 136.179 433.534 143.905C430.339 151.63 425.652 158.649 419.741 164.561C413.829 170.472 406.81 175.159 399.085 178.354C391.36 181.549 383.08 183.189 374.72 183.18ZM374.72 61.8999C360.668 61.9013 347.1 67.0351 336.567 76.3364C326.033 85.6376 319.26 98.4659 317.519 112.41C315.779 126.354 319.192 140.453 327.116 152.058C335.039 163.663 346.929 171.975 360.55 175.43C397.36 184.69 432.36 156.66 432.36 119.54C432.344 104.258 426.266 89.606 415.46 78.7998C404.654 67.9937 390.002 61.9158 374.72 61.8999Z" fill="#076300"/>
<path d="M374.72 85.3201L341.72 117.12H355V146.12H367.61V130.22H381.83V146.12H394.44V117.12H407.74L374.72 85.3201Z" fill="#0BB501"/>
<path d="M333.17 354.32C324.93 362.55 325.32 362.05 325.11 362.67L315.82 389.93C315.758 390.117 315.742 390.315 315.772 390.509C315.802 390.704 315.877 390.888 315.993 391.047C316.108 391.206 316.259 391.336 316.434 391.425C316.61 391.514 316.803 391.561 317 391.56C317.3 391.56 316.6 391.77 326 388.56C346.41 381.56 345 382.14 345.48 381.66L353 374.15L333.17 354.32Z" fill="#DEE1EC"/>
<path d="M333.17 354.32C324.93 362.55 325.32 362.05 325.11 362.67L315.82 389.93C315.758 390.117 315.742 390.315 315.772 390.509C315.802 390.704 315.877 390.888 315.993 391.047C316.108 391.206 316.259 391.336 316.434 391.425C316.61 391.514 316.803 391.561 317 391.56C317.3 391.56 316.6 391.77 326 388.56C346.41 381.56 345 382.14 345.48 381.66L353 374.15L333.17 354.32Z" fill="#DEE1EC"/>
<path d="M325.6 361.88C325.11 362.37 325.91 360.3 315.82 389.93C315.758 390.117 315.741 390.317 315.772 390.512C315.802 390.707 315.879 390.892 315.996 391.051C316.112 391.211 316.265 391.34 316.441 391.429C316.618 391.517 316.813 391.562 317.01 391.56C317.29 391.56 315.33 392.21 344.7 382.15C345.3 381.96 344.82 382.31 352.99 374.15L333.17 354.33L325.6 361.88Z" fill="white"/>
<path d="M317 394.56C316.327 394.556 315.665 394.392 315.068 394.082C314.471 393.772 313.957 393.325 313.566 392.778C313.176 392.23 312.921 391.597 312.822 390.932C312.724 390.267 312.785 389.587 313 388.95L322.29 361.71C322.534 360.974 322.949 360.306 323.5 359.76L333.19 350.08L357.26 374.15L347.62 383.78C347.067 384.351 346.379 384.774 345.62 385.01C315.74 395.23 318 394.56 317 394.56ZM327.87 363.85L319.81 387.5L343.5 379.39L348.74 374.15L333.16 358.57L327.87 363.85Z" fill="#076300"/>
<path d="M320 377.78L315.86 389.93C315.798 390.117 315.781 390.317 315.812 390.512C315.843 390.707 315.919 390.892 316.036 391.051C316.152 391.211 316.305 391.34 316.481 391.428C316.658 391.517 316.853 391.562 317.05 391.56C317.3 391.56 316.29 391.9 329.58 387.34C329.033 385.012 327.846 382.883 326.153 381.194C324.46 379.505 322.329 378.322 320 377.78Z" fill="#076300"/>
<path d="M446.494 241.002L433.894 253.603L453.721 273.43L466.322 260.829L446.494 241.002Z" fill="white"/>
<path d="M453.42 234.08L446.49 241L466.31 260.82L473.24 253.9C477.63 249.51 477.6 241.06 473.24 236.7L470.61 234.08C468.326 231.809 465.236 230.534 462.015 230.534C458.794 230.534 455.704 231.809 453.42 234.08Z" fill="#0BB501"/>
<path d="M433.89 253.6L328.22 359.28C329.534 357.966 331.316 357.228 333.175 357.228C335.033 357.228 336.816 357.966 338.13 359.28C339.444 360.594 340.182 362.377 340.182 364.235C340.182 366.094 339.444 367.876 338.13 369.19C339.445 367.875 341.23 367.136 343.09 367.136C344.95 367.136 346.734 367.875 348.05 369.19C349.365 370.506 350.104 372.29 350.104 374.15C350.104 376.01 349.365 377.795 348.05 379.11L453.72 273.43L433.89 253.6Z" fill="#A9AFC4"/>
<path d="M453.72 277.67L429.65 253.6L446.49 236.76L470.56 260.83L453.72 277.67ZM438.13 253.6L453.72 269.18L462.07 260.83L446.49 245.24L438.13 253.6Z" fill="#076300"/>
<path d="M466.31 265.07L442.25 241L451.25 232C454.1 229.166 457.956 227.575 461.975 227.575C465.994 227.575 469.85 229.166 472.7 232L475.32 234.62C480.83 240.13 480.83 250.55 475.32 256.06L466.31 265.07ZM450.73 241L466.31 256.58L471.12 251.78C474.33 248.57 474.33 242.03 471.12 238.83L468.49 236.2C466.767 234.493 464.44 233.536 462.015 233.536C459.59 233.536 457.263 234.493 455.54 236.2L450.73 241Z" fill="#076300"/>
<path d="M350.17 381.23L345.92 377C346.293 376.628 346.589 376.186 346.791 375.699C346.993 375.212 347.097 374.691 347.098 374.164C347.098 373.637 346.995 373.115 346.794 372.628C346.592 372.141 346.297 371.698 345.925 371.325C345.553 370.952 345.111 370.656 344.624 370.454C344.137 370.252 343.615 370.148 343.089 370.147C342.562 370.147 342.04 370.25 341.553 370.451C341.066 370.653 340.623 370.948 340.25 371.32L336 367.07C336.752 366.318 337.174 365.298 337.174 364.235C337.174 363.172 336.752 362.152 336 361.4C335.248 360.648 334.228 360.226 333.165 360.226C332.102 360.226 331.082 360.648 330.33 361.4L326.09 357.16L433.88 249.36L458 273.43L350.17 381.23ZM343.17 364.14C345.168 364.157 347.115 364.772 348.76 365.905C350.405 367.039 351.673 368.639 352.4 370.5L449.47 273.43L433.88 257.85L336.81 354.92C338.671 355.645 340.273 356.911 341.408 358.554C342.543 360.197 343.16 362.143 343.18 364.14H343.17Z" fill="#076300"/>
<path d="M256.75 99.7301C260.572 99.7301 264.237 101.248 266.939 103.951C269.642 106.653 271.16 110.318 271.16 114.14C271.16 110.318 272.678 106.653 275.381 103.951C278.083 101.248 281.748 99.7301 285.57 99.7301C281.748 99.7301 278.083 98.2119 275.381 95.5095C272.678 92.8071 271.16 89.1418 271.16 85.3201C271.16 89.1418 269.642 92.8071 266.939 95.5095C264.237 98.2119 260.572 99.7301 256.75 99.7301Z" fill="#076300"/>
<path d="M61.6856 444.149L48.7738 457.061L53.0165 461.303L65.9282 448.391L61.6856 444.149Z" fill="#076300"/>
<path d="M81.87 455.84H75.87V474.11H81.87V455.84Z" fill="#076300"/>
<path d="M53.75 429.32H35.48V435.32H53.75V429.32Z" fill="#076300"/>
<path d="M337.37 262.49H331.37V354.33H337.37V262.49Z" fill="#076300"/>
<defs>
<linearGradient id="paint0_linear_18_356" x1="300.13" y1="341.49" x2="373.96" y2="341.49" gradientUnits="userSpaceOnUse">
<stop stop-color="#CACFDD"/>
<stop offset="1" stop-color="#EEF0F1"/>
</linearGradient>
<linearGradient id="paint1_linear_18_356" x1="301.26" y1="168" x2="373.96" y2="168" gradientUnits="userSpaceOnUse">
<stop stop-color="#CACFDD"/>
<stop offset="1" stop-color="#EEF0F1"/>
</linearGradient>
</defs>
</svg>
