<svg width="512" height="512" viewBox="0 0 512 512" fill="none" xmlns="http://www.w3.org/2000/svg">
<rect width="512" height="512" fill="white"/>
<path d="M225.509 75.7033L140.516 124.775V222.918L196.453 255.168V406.741L217.26 436.64H237.41L256.906 405.483V380.754L246.243 370.112L255.97 360.562V335.272L238.732 318.034L256.115 301.191V254.377L310.503 222.97V124.806L225.509 75.7033ZM243.881 144.738C243.883 148.373 242.807 151.926 240.79 154.948C238.772 157.971 235.904 160.327 232.547 161.719C229.19 163.111 225.496 163.477 221.931 162.769C218.367 162.061 215.092 160.312 212.522 157.743C209.952 155.175 208.201 151.901 207.491 148.337C206.781 144.773 207.145 141.078 208.535 137.721C209.925 134.363 212.28 131.493 215.301 129.474C218.323 127.455 221.875 126.377 225.509 126.377C227.924 126.377 230.314 126.853 232.545 127.777C234.775 128.702 236.801 130.057 238.508 131.765C240.214 133.473 241.567 135.501 242.489 137.733C243.411 139.964 243.884 142.355 243.881 144.77V144.738Z" fill="#0BB501"/>
<path d="M228.631 284.068H222.389V407.355H228.631V284.068Z" fill="#076300"/>
<path style="mix-blend-mode:multiply" d="M172.483 158.751L137.237 194.008V222.72L165.731 239.168L180.442 224.458L160.291 204.307L172.483 158.751Z" fill="url(#paint0_linear_1784_1521)"/>
<path d="M109.379 90.4007L104.966 94.8144L120.568 110.417L124.982 106.003L109.379 90.4007Z" fill="#076300"/>
<path d="M111.219 123.287H89.1543V129.529H111.219V123.287Z" fill="#076300"/>
<path d="M142.752 73.9972H136.51V96.0622H142.752V73.9972Z" fill="#076300"/>
<path d="M239.127 439.813H215.616L193.332 407.771V257.051L137.395 224.801V123.058L225.509 72.187L313.624 123.058V224.801L259.236 256.208V302.492L243.184 318.096L259.09 334.003V361.904L250.664 370.112L260.027 379.475V406.356L239.127 439.813ZM218.882 433.571H235.663L253.785 404.557V382.044L241.811 370.112L252.849 359.272V336.562L234.289 317.992L253.015 299.87V252.557C257.53 249.966 249.946 254.335 307.403 221.16V126.606C240.042 87.7189 289.717 116.348 225.53 79.3444L143.657 126.606V221.149L199.595 253.451V405.763L218.882 433.571ZM225.509 166.211C221.261 166.208 217.108 164.947 213.577 162.585C210.045 160.223 207.294 156.867 205.669 152.942C204.045 149.016 203.621 144.697 204.451 140.531C205.281 136.364 207.328 132.537 210.333 129.534C213.338 126.531 217.165 124.486 221.332 123.658C225.499 122.83 229.818 123.256 233.743 124.882C237.668 126.508 241.022 129.262 243.382 132.794C245.742 136.327 247.002 140.48 247.002 144.728C246.994 150.425 244.726 155.886 240.697 159.913C236.668 163.94 231.206 166.205 225.509 166.211ZM225.509 129.487C222.495 129.49 219.55 130.385 217.045 132.061C214.54 133.737 212.588 136.118 211.436 138.903C210.284 141.688 209.984 144.752 210.573 147.708C211.162 150.663 212.615 153.378 214.746 155.508C216.878 157.639 219.594 159.089 222.55 159.677C225.506 160.264 228.57 159.961 231.354 158.808C234.138 157.654 236.518 155.7 238.192 153.194C239.866 150.688 240.76 147.742 240.76 144.728C240.744 140.693 239.13 136.829 236.272 133.981C233.414 131.132 229.544 129.532 225.509 129.529V129.487Z" fill="#076300"/>
<path d="M444.287 320.697L426.841 303.241H411.778L411.913 289.602L394.02 271.719H369.635L370.02 247.521L336.906 214.408L353.156 153.727L283.757 84.3379C274.862 86.7098 200.105 106.736 188.963 109.732C188.443 111.677 163.996 202.913 163.569 204.525L232.979 273.935L295.398 257.217L402.55 364.369L438.389 370.799L452.568 356.588L444.287 320.697ZM444.287 320.697L426.841 303.241H411.778L411.913 289.602L394.02 271.719H369.635L370.02 247.521L336.906 214.408L353.156 153.727L283.757 84.3379C274.862 86.7098 200.105 106.736 188.963 109.732C188.443 111.677 163.996 202.913 163.569 204.525L232.979 273.935L295.398 257.217L402.55 364.369L438.389 370.799L452.568 356.588L444.287 320.697ZM225.51 163.09C221.878 163.088 218.329 162.009 215.311 159.99C212.293 157.971 209.941 155.103 208.553 151.748C207.165 148.392 206.803 144.701 207.513 141.14C208.222 137.578 209.972 134.308 212.54 131.741C215.108 129.174 218.38 127.426 221.942 126.719C225.503 126.011 229.195 126.375 232.549 127.765C235.904 129.155 238.771 131.509 240.788 134.528C242.805 137.547 243.882 141.097 243.882 144.728C243.882 147.14 243.406 149.529 242.483 151.757C241.559 153.986 240.206 156.01 238.5 157.715C236.794 159.42 234.768 160.773 232.539 161.695C230.311 162.617 227.922 163.091 225.51 163.09Z" fill="#F5F5F5"/>
<path d="M328.788 245.153L324.374 249.567L421.247 346.44L425.661 342.026L328.788 245.153Z" fill="#076300"/>
<path style="mix-blend-mode:multiply" d="M248.634 148.993C248.65 143.836 247.132 138.791 244.273 134.499C241.414 130.207 237.344 126.861 232.58 124.887C227.815 122.914 222.572 122.401 217.515 123.415C212.459 124.428 207.818 126.922 204.182 130.58L175.76 158.991L163.558 204.536L183.708 224.697L240.999 167.407C243.427 164.996 245.352 162.127 246.663 158.966C247.973 155.805 248.644 152.415 248.634 148.993ZM225.508 163.09C221.877 163.088 218.328 162.009 215.31 159.99C212.292 157.971 209.94 155.103 208.552 151.748C207.164 148.392 206.802 144.701 207.511 141.14C208.221 137.578 209.97 134.308 212.539 131.741C215.107 129.174 218.379 127.426 221.94 126.719C225.502 126.011 229.193 126.375 232.548 127.765C235.902 129.155 238.769 131.509 240.786 134.528C242.804 137.547 243.88 141.097 243.88 144.728C243.88 147.14 243.405 149.529 242.482 151.757C241.558 153.986 240.205 156.01 238.499 157.715C236.792 159.42 234.767 160.773 232.538 161.695C230.309 162.617 227.92 163.091 225.508 163.09Z" fill="url(#paint1_linear_1784_1521)"/>
<path d="M439.376 374.128L400.968 367.241L294.408 260.692L231.989 277.42L160.052 205.472L186.382 107.194L284.692 80.9048L356.64 152.843L340.38 213.514L373.16 246.294L372.796 268.64H395.267L415.033 288.354L414.918 300.161H428.12L447.126 319.137L456 357.535L439.376 374.128ZM404.005 361.446L437.295 367.418L449.134 355.548L441.457 322.258L425.54 306.351H408.624L408.77 290.871L392.728 274.83H366.46L366.876 248.822L333.42 215.365L349.68 154.684L282.819 87.8437L191.511 112.301L167.043 203.62L233.893 270.471L296.312 253.753L404.005 361.446ZM225.508 166.211C221.26 166.208 217.108 164.947 213.576 162.585C210.045 160.223 207.293 156.867 205.668 152.942C204.044 149.016 203.62 144.697 204.45 140.531C205.28 136.364 207.327 132.537 210.332 129.534C213.337 126.531 217.165 124.486 221.331 123.658C225.498 122.83 229.817 123.256 233.742 124.882C237.667 126.508 241.021 129.262 243.381 132.794C245.742 136.327 247.001 140.48 247.001 144.728C246.993 150.425 244.726 155.886 240.696 159.913C236.667 163.94 231.205 166.205 225.508 166.211ZM225.508 129.487C222.494 129.49 219.549 130.385 217.044 132.061C214.539 133.737 212.587 136.118 211.435 138.903C210.283 141.688 209.983 144.752 210.572 147.708C211.161 150.663 212.614 153.378 214.746 155.508C216.877 157.639 219.593 159.089 222.549 159.677C225.505 160.264 228.569 159.961 231.353 158.808C234.138 157.654 236.517 155.7 238.191 153.194C239.866 150.688 240.759 147.742 240.759 144.728C240.743 140.693 239.129 136.829 236.271 133.981C233.413 131.132 229.543 129.532 225.508 129.529V129.487Z" fill="#076300"/>
<path d="M216.636 142.57L66.6885 292.517C63.3936 295.812 63.3936 301.154 66.6885 304.449L67.1446 304.905C70.4394 308.2 75.7814 308.2 79.0762 304.905L229.023 154.958C232.318 151.663 232.318 146.321 229.023 143.026L228.567 142.57C225.273 139.275 219.931 139.275 216.636 142.57Z" fill="#F5F5F5"/>
<path d="M73.1031 310.492C71.5851 310.502 70.0805 310.208 68.6779 309.627C67.2754 309.046 66.0033 308.191 64.9367 307.111L64.4477 306.653C62.2808 304.485 61.0635 301.546 61.0635 298.481C61.0635 295.416 62.2808 292.477 64.4477 290.31L214.43 140.359C216.598 138.194 219.537 136.979 222.601 136.979C225.665 136.979 228.604 138.194 230.773 140.359L231.231 140.816C233.395 142.985 234.611 145.924 234.611 148.988C234.611 152.052 233.395 154.991 231.231 157.16L81.28 307.111C80.2097 308.189 78.9354 309.043 77.5315 309.623C76.1277 310.204 74.6223 310.499 73.1031 310.492ZM218.841 144.77L68.8898 294.72C67.8944 295.719 67.3354 297.071 67.3354 298.481C67.3354 299.891 67.8944 301.243 68.8898 302.242L69.3476 302.7C69.8404 303.194 70.4258 303.585 71.0702 303.853C71.7146 304.12 72.4054 304.258 73.1031 304.258C73.8008 304.258 74.4916 304.12 75.136 303.853C75.7805 303.585 76.3658 303.194 76.8586 302.7L226.809 152.749C227.805 151.75 228.364 150.398 228.364 148.988C228.364 147.578 227.805 146.226 226.809 145.227L226.352 144.77C225.355 143.775 224.004 143.216 222.596 143.216C221.188 143.216 219.837 143.775 218.841 144.77Z" fill="#076300"/>
<path d="M375.606 179.318L369.561 177.748L371.122 171.714L377.166 173.274L375.606 179.318ZM379.559 162.736L373.317 161.976C373.554 160.093 373.621 158.192 373.515 156.296L379.757 155.963C379.891 158.222 379.825 160.489 379.559 162.736ZM371.684 147.027C371.04 145.243 370.239 143.52 369.291 141.878L374.701 138.757C375.828 140.723 376.782 142.783 377.551 144.915L371.684 147.027ZM363.361 134.346L359.002 129.883L363.465 125.513L367.824 129.987L363.361 134.346ZM351.73 122.434L347.413 117.971L351.887 113.612L356.245 118.075L351.73 122.434ZM340.131 110.523L335.762 106.06L340.235 101.701L344.594 106.164L340.131 110.523ZM328.469 98.5902L324.11 94.1272L328.573 89.7683L332.932 94.2313L328.469 98.5902ZM316.838 86.6786L312.479 82.2156L316.942 77.8567L321.312 82.3197L316.838 86.6786Z" fill="#076300"/>
<path d="M292.775 384.676C301.504 384.679 309.875 388.148 316.047 394.32C322.219 400.492 325.688 408.863 325.691 417.592C325.69 413.27 326.54 408.99 328.193 404.996C329.846 401.003 332.269 397.374 335.325 394.318C338.381 391.261 342.008 388.836 346.001 387.182C349.994 385.528 354.274 384.676 358.596 384.676C349.869 384.676 341.499 381.21 335.329 375.039C329.158 368.868 325.691 360.498 325.691 351.771C325.688 360.499 322.219 368.869 316.046 375.039C309.874 381.21 301.503 384.676 292.775 384.676Z" fill="#076300"/>
<path d="M56 193.54C60.3952 193.54 64.6104 195.286 67.7183 198.393C70.8262 201.501 72.5722 205.717 72.5722 210.112C72.5722 207.935 73.0012 205.779 73.8347 203.767C74.6681 201.756 75.8898 199.929 77.4298 198.39C78.9697 196.851 80.7979 195.63 82.8097 194.798C84.8215 193.966 86.9776 193.538 89.1548 193.54C84.7568 193.54 80.539 191.792 77.4291 188.683C74.3193 185.573 72.5722 181.355 72.5722 176.957C72.5722 181.353 70.8265 185.569 67.7189 188.679C64.6114 191.788 60.3962 193.537 56 193.54Z" fill="#076300"/>
<defs>
<linearGradient id="paint0_linear_1784_1521" x1="137.237" y1="198.96" x2="245.357" y2="198.96" gradientUnits="userSpaceOnUse">
<stop stop-color="#CACFDD"/>
<stop offset="1" stop-color="#EEF0F1"/>
</linearGradient>
<linearGradient id="paint1_linear_1784_1521" x1="163.568" y1="173.826" x2="248.634" y2="173.826" gradientUnits="userSpaceOnUse">
<stop stop-color="#CACFDD"/>
<stop offset="1" stop-color="#EEF0F1"/>
</linearGradient>
</defs>
</svg>
