<svg width="512" height="512" viewBox="0 0 512 512" fill="none" xmlns="http://www.w3.org/2000/svg">
<path d="M289 285.31V411.31H121.77V285.31L205.38 233.63L289 285.31Z" fill="#0BB501"/>
<path d="M224.14 331.54H185.97V411.31H224.14V331.54Z" fill="white"/>
<path d="M298.03 272.68V290.88L205.38 233.63L112.74 290.88V272.68L205.38 215.43L298.03 272.68Z" fill="white"/>
<path d="M301 296.26L205.35 237.16L109.71 296.26V271L205.35 211.9L301 271V296.26ZM205.38 230.1L295 285.5V274.36L205.38 219L115.74 274.4V285.5L205.38 230.1Z" fill="#076300"/>
<path d="M168.26 331.54H142.3V365.28H168.26V331.54Z" fill="white"/>
<path d="M268.89 331.54H242.93V365.28H268.89V331.54Z" fill="white"/>
<path d="M171.26 368.28H139.26V328.54H171.26V368.28ZM145.26 362.28H165.26V334.54H145.26V362.28Z" fill="#076300"/>
<path d="M271.89 368.28H239.89V328.54H271.89V368.28ZM245.89 362.28H265.89V334.54H245.89V362.28Z" fill="#076300"/>
<path d="M205.38 299.49C212.836 299.49 218.88 293.446 218.88 285.99C218.88 278.534 212.836 272.49 205.38 272.49C197.924 272.49 191.88 278.534 191.88 285.99C191.88 293.446 197.924 299.49 205.38 299.49Z" fill="white"/>
<path style="mix-blend-mode:multiply" d="M289 338V411.3H121.76V370.25L183.14 389.48C182.05 369.32 198.82 350.2 221.14 350.12L249.89 350.01C257.812 349.968 265.61 348.042 272.64 344.39C277.845 341.671 283.33 339.528 289 338Z" fill="url(#paint0_linear_18_153)"/>
<path d="M351.89 200.78L275.69 173.64C271.211 172.048 267.217 169.331 264.09 165.75L222 109.47L85.05 129.07V36H313.19C321.426 35.9985 329.367 39.0685 335.46 44.61L390.11 94.31C394.2 98.0266 397.504 102.524 399.83 107.537C402.155 112.55 403.454 117.977 403.65 123.5L405 160.68C405.314 165.311 403.826 169.884 400.848 173.444C397.87 177.005 393.632 179.277 389.018 179.787C384.404 180.296 379.772 179.004 376.089 176.18C372.405 173.356 369.955 169.218 369.25 164.63L363.25 132.73C362.519 128.809 360.409 125.279 357.3 122.78L326.94 98.36C326.023 97.6243 324.964 97.085 323.83 96.7754C322.696 96.4659 321.51 96.3928 320.346 96.5606C319.183 96.7285 318.066 97.1337 317.065 97.7512C316.065 98.3686 315.202 99.1851 314.53 100.15L305.14 113.65C303.937 115.381 303.185 117.386 302.955 119.482C302.724 121.578 303.022 123.698 303.82 125.65L308.18 136.36C308.814 137.919 309.756 139.336 310.948 140.524C312.14 141.713 313.559 142.65 315.12 143.28L335.12 151.4C340.919 153.753 345.82 157.888 349.115 163.209C352.41 168.53 353.928 174.76 353.45 181L351.89 200.78Z" fill="white"/>
<path d="M354.58 204.92L274.68 176.47C269.719 174.699 265.295 171.687 261.83 167.72C261.62 167.46 264.52 171.33 220.64 112.72L85.48 132.09L84.62 126.15L223.31 106.25L266.42 163.86C269.194 167.027 272.728 169.436 276.69 170.86L349.21 196.68L350.46 180.83C350.925 175.207 349.577 169.583 346.616 164.78C343.654 159.978 339.233 156.249 334 154.14L314 146C312.07 145.214 310.317 144.052 308.842 142.58C307.367 141.109 306.2 139.358 305.41 137.43L301 126.74C300.014 124.333 299.648 121.717 299.935 119.131C300.221 116.546 301.151 114.073 302.64 111.94L312.03 98.43C312.937 97.1218 314.103 96.0143 315.456 95.1766C316.81 94.3389 318.321 93.7889 319.896 93.5609C321.471 93.3329 323.077 93.4318 324.612 93.8515C326.147 94.2711 327.58 95.0025 328.82 96L359.2 120.42C362.861 123.371 365.344 127.536 366.2 132.16L372.2 164.06C372.763 167.905 374.797 171.381 377.872 173.757C380.948 176.132 384.825 177.221 388.688 176.795C392.55 176.368 396.096 174.46 398.58 171.47C401.063 168.481 402.289 164.645 402 160.77L400.68 123.59C400.479 118.471 399.263 113.444 397.104 108.798C394.944 104.153 391.884 99.9831 388.1 96.53L333.45 46.83C327.909 41.7861 320.683 38.9936 313.19 39H85.05V33H313.19C322.173 32.996 330.835 36.3444 337.48 42.39L392.13 92.09C396.505 96.0858 400.042 100.912 402.534 106.287C405.027 111.662 406.426 117.479 406.65 123.4L408 160.57C408.108 163.375 407.65 166.173 406.651 168.797C405.653 171.421 404.136 173.816 402.19 175.84C390.51 188.09 369.49 182.23 366.3 165.18L360.3 133.28C359.702 130.061 357.971 127.163 355.42 125.11L325.06 100.7C324.465 100.22 323.778 99.8683 323.041 99.666C322.304 99.4638 321.534 99.4156 320.777 99.5244C320.021 99.6333 319.295 99.8968 318.645 100.299C317.995 100.701 317.435 101.232 317 101.86L307.61 115.37C306.692 116.682 306.119 118.205 305.944 119.797C305.77 121.389 305.999 123 306.61 124.48L310.97 135.18C311.454 136.367 312.171 137.446 313.077 138.353C313.984 139.259 315.063 139.976 316.25 140.46L336.25 148.58C342.661 151.16 348.079 155.721 351.713 161.599C355.347 167.477 357.007 174.362 356.45 181.25L354.58 204.92Z" fill="#076300"/>
<path d="M377.4 274.14V263.48L370.13 256.2L377.47 249.1V229.35L400.41 216.11V174.72L364.55 154L328.71 174.7V216.09L352.3 229.7V293.6L361.07 306.2H369.56L377.78 293.05V282.66L373.29 278.17L377.4 274.14ZM377.4 274.14V263.48L370.13 256.2L377.47 249.1V229.35L400.41 216.11V174.72L364.55 154L328.71 174.7V216.09L352.3 229.7V293.6L361.07 306.2H369.56L377.78 293.05V282.66L373.29 278.17L377.4 274.14Z" fill="#F5F5F5"/>
<path style="mix-blend-mode:multiply" d="M369.06 182.25L365.92 222.4L328.7 209.15V175.89L337.86 179.16C337.958 176.197 337.103 173.281 335.42 170.84L362.61 155.14C367.563 163.271 369.82 172.759 369.06 182.25Z" fill="url(#paint1_linear_18_153)"/>
<path d="M377.4 274.14V263.48L370.13 256.2L377.47 249.1V229.35L400.41 216.11V174.72L364.55 154L328.71 174.7V216.09L352.3 229.7V293.6L361.07 306.2H369.56L377.78 293.05V282.66L373.29 278.17L377.4 274.14Z" stroke="#076300" stroke-width="6" stroke-miterlimit="10"/>
<path d="M335.11 151.36C340.918 153.713 345.826 157.854 349.123 163.183C352.421 168.512 353.936 174.752 353.45 181L351.89 200.76L275.69 173.62" fill="#DEE1EC"/>
<path d="M354.58 204.92L274.68 176.47C269.719 174.699 265.295 171.687 261.83 167.72L266.35 163.78C269.146 166.954 272.705 169.363 276.69 170.78L349.21 196.6L350.46 180.75C350.907 175.14 349.551 169.534 346.591 164.747C343.63 159.961 339.219 156.245 334 154.14L314 146L316.25 140.44L336.25 148.56C342.661 151.14 348.079 155.701 351.713 161.579C355.347 167.456 357.007 174.342 356.45 181.23L354.58 204.92Z" fill="#076300"/>
<path d="M292 414.31H118.77V283.63L205.38 230.1L292 283.63V414.31ZM124.77 408.31H286V287L205.38 237.17L124.77 287V408.31Z" fill="#076300"/>
<path d="M440 456.94V366L354.43 366.33L342.24 359.42C332.76 354.04 322.084 351.12 311.186 350.926C300.288 350.732 289.515 353.271 279.85 358.31C270.607 363.131 260.344 365.668 249.92 365.71L221.17 365.82C218.218 365.831 215.298 366.422 212.575 367.562C209.852 368.702 207.38 370.366 205.301 372.461C203.222 374.556 201.576 377.041 200.457 379.772C199.338 382.503 198.768 385.428 198.78 388.38C198.792 391.331 199.385 394.25 200.525 396.972C201.665 399.694 203.33 402.164 205.425 404.242C207.52 406.321 210.004 407.966 212.734 409.084C215.465 410.202 218.389 410.772 221.34 410.76L202.29 410.84C200.019 410.844 197.761 410.506 195.59 409.84L115.75 384.84C109.625 383.272 103.133 384.102 97.5988 387.159C92.0649 390.217 87.907 395.271 85.9745 401.291C84.0419 407.311 84.4804 413.842 87.2005 419.549C89.9206 425.256 94.717 429.71 100.61 432L219.36 472.29C233.322 476.938 248.372 477.203 262.49 473.05L354.72 443.66L440 456.94Z" fill="white"/>
<path d="M218.41 475.16L99.6499 434.86C92.6297 432.606 86.7924 427.655 83.4224 421.097C80.0524 414.539 79.4256 406.91 81.6799 399.89C83.9343 392.87 88.8851 387.033 95.4432 383.663C102.001 380.292 109.63 379.666 116.65 381.92L196.51 406.92C199.254 407.665 202.102 407.952 204.94 407.77C200.938 404.42 198.061 399.921 196.7 394.882C195.339 389.843 195.559 384.508 197.33 379.598C199.1 374.689 202.337 370.441 206.601 367.432C210.865 364.422 215.951 362.794 221.17 362.77L249.93 362.66C259.873 362.61 269.66 360.19 278.48 355.6C288.582 350.305 299.854 347.636 311.258 347.838C322.662 348.041 333.832 351.109 343.74 356.76L355.23 363.28L440 363V369L353.63 369.33L340.76 362C331.724 356.844 321.537 354.045 311.135 353.859C300.734 353.674 290.453 356.109 281.24 360.94C271.567 365.972 260.833 368.625 249.93 368.68L221.18 368.79C218.623 368.799 216.093 369.312 213.734 370.299C211.376 371.286 209.235 372.728 207.433 374.542C205.632 376.357 204.205 378.508 203.235 380.874C202.265 383.24 201.771 385.773 201.78 388.33C201.789 390.887 202.302 393.417 203.289 395.776C204.276 398.134 205.718 400.275 207.532 402.077C209.347 403.878 211.498 405.305 213.864 406.275C216.229 407.245 218.763 407.739 221.32 407.73V413.73L202.32 413.8C199.748 413.804 197.191 413.427 194.73 412.68L114.87 387.68C109.363 385.918 103.381 386.415 98.2406 389.063C93.1002 391.711 89.2223 396.293 87.4599 401.8C85.6976 407.307 86.1951 413.289 88.8431 418.429C91.4912 423.57 96.0727 427.448 101.58 429.21L220.34 469.5C233.717 473.97 248.145 474.221 261.67 470.22L354.5 440.64L440.5 454L439.58 459.93L355 446.75L263.4 475.93C248.679 480.29 232.973 480.021 218.41 475.16Z" fill="#076300"/>
<path d="M265.7 407.72H221.34V413.72H265.7V407.72Z" fill="#5E6175"/>
<path d="M89.6161 241.309L85.3734 245.551L98.7872 258.965L103.03 254.722L89.6161 241.309Z" fill="#076300"/>
<path d="M90.97 269.48H72V275.48H90.97V269.48Z" fill="#076300"/>
<path d="M118.39 227.43H112.39V246.39H118.39V227.43Z" fill="#076300"/>
<path d="M399.05 247.89L395.74 242.89L400.74 239.58L404.05 244.58L399.05 247.89ZM412.47 239L409 234.1C410.463 233.064 411.805 231.866 413 230.53L417.5 234.53C415.996 236.204 414.309 237.703 412.47 239ZM423.07 225L417.44 222.93C418.053 221.262 418.479 219.532 418.71 217.77L424.71 218.55C424.406 220.755 423.856 222.918 423.07 225ZM424.91 208.17H418.91V202.17H424.91V208.17ZM424.91 192.17H418.91V186.17H424.91V192.17ZM424.91 176.17H418.91V170.17H424.91V176.17ZM424.91 160.17H418.91V154.17H424.91V160.17Z" fill="#A9AFC4"/>
<path d="M130.76 176.07C134.718 176.069 138.638 176.847 142.296 178.362C145.953 179.876 149.276 182.096 152.075 184.895C154.874 187.694 157.094 191.017 158.608 194.674C160.123 198.332 160.901 202.252 160.9 206.21C160.903 198.216 164.08 190.549 169.734 184.897C175.388 179.245 183.055 176.07 191.05 176.07C183.054 176.07 175.385 172.894 169.731 167.239C164.077 161.585 160.9 153.916 160.9 145.92C160.901 149.879 160.123 153.799 158.609 157.457C157.095 161.115 154.875 164.439 152.076 167.239C149.277 170.039 145.954 172.26 142.296 173.775C138.639 175.29 134.719 176.07 130.76 176.07Z" fill="#076300"/>
<path d="M391.31 328.3C393.109 328.3 394.89 328.654 396.551 329.343C398.213 330.032 399.723 331.041 400.994 332.313C402.265 333.586 403.273 335.096 403.961 336.758C404.648 338.42 405.001 340.201 405 342C405 338.371 406.441 334.89 409.006 332.323C411.571 329.756 415.051 328.313 418.68 328.31C416.883 328.31 415.103 327.956 413.443 327.268C411.782 326.58 410.274 325.571 409.003 324.3C407.733 323.028 406.725 321.519 406.039 319.858C405.352 318.197 404.999 316.417 405 314.62C405 316.417 404.646 318.197 403.958 319.857C403.27 321.518 402.261 323.026 400.99 324.297C399.718 325.567 398.209 326.575 396.548 327.262C394.887 327.948 393.107 328.301 391.31 328.3Z" fill="#076300"/>
<defs>
<linearGradient id="paint0_linear_18_153" x1="121.76" y1="374.67" x2="289" y2="374.67" gradientUnits="userSpaceOnUse">
<stop stop-color="#CACFDD"/>
<stop offset="1" stop-color="#EEF0F1"/>
</linearGradient>
<linearGradient id="paint1_linear_18_153" x1="328.7" y1="188.77" x2="369.2" y2="188.77" gradientUnits="userSpaceOnUse">
<stop stop-color="#CACFDD"/>
<stop offset="1" stop-color="#EEF0F1"/>
</linearGradient>
</defs>
</svg>
