<svg width="512" height="512" viewBox="0 0 512 512" fill="none" xmlns="http://www.w3.org/2000/svg">
<path d="M337.68 263.58V443.37H59.5699V263.58L198.63 177.65L337.68 263.58Z" fill="#0BB501"/>
<path d="M302.29 51H280.29V218H302.29V51Z" fill="#F5F5F5"/>
<path style="mix-blend-mode:multiply" d="M302.012 75.7734H279.898V97.8921H302.012V75.7734Z" fill="url(#paint0_linear_18_302)"/>
<path d="M352.29 230.81C353.972 230.809 355.637 231.14 357.191 231.783C358.745 232.426 360.157 233.37 361.346 234.559C362.535 235.748 363.478 237.16 364.121 238.714C364.765 240.267 365.095 241.933 365.095 243.614C365.094 241.933 365.425 240.267 366.068 238.714C366.711 237.16 367.655 235.748 368.844 234.559C370.033 233.37 371.445 232.426 372.999 231.783C374.552 231.14 376.218 230.809 377.9 230.81C376.218 230.81 374.552 230.478 372.998 229.835C371.444 229.191 370.033 228.247 368.843 227.058C367.654 225.868 366.711 224.456 366.068 222.902C365.425 221.348 365.094 219.682 365.095 218C365.095 219.682 364.765 221.348 364.122 222.902C363.478 224.456 362.535 225.868 361.346 227.058C360.157 228.247 358.745 229.191 357.191 229.835C355.637 230.478 353.972 230.81 352.29 230.81Z" fill="#076300"/>
<path d="M441.566 51.4024C442.407 51.4024 443.239 51.568 444.016 51.8897C444.793 52.2115 445.499 52.6831 446.093 53.2776C446.688 53.8721 447.159 54.5779 447.481 55.3547C447.803 56.1314 447.968 56.964 447.968 57.8047C447.968 56.1067 448.643 54.4783 449.844 53.2776C451.044 52.0769 452.673 51.4024 454.371 51.4024C452.673 51.4024 451.044 50.7278 449.844 49.5272C448.643 48.3265 447.968 46.698 447.968 45C447.968 45.8408 447.803 46.6733 447.481 47.4501C447.159 48.2269 446.688 48.9326 446.093 49.5272C445.499 50.1217 444.793 50.5933 444.016 50.915C443.239 51.2368 442.407 51.4024 441.566 51.4024Z" fill="#076300"/>
<path d="M303.29 215H300.307V52.5146H281.273V215H278.29V50H303.29V215Z" fill="#076300"/>
<path d="M460.378 68.1475H266.035V90.2661H460.378V68.1475Z" fill="#F5F5F5"/>
<path d="M460.383 68.1475H266.035V90.2661H460.383V68.1475Z" fill="#F5F5F5"/>
<path d="M317.389 102.202V205.823H454.366V102.202H317.389ZM445.976 197.433H325.784V110.592H445.976V197.433Z" fill="#E1830E"/>
<path d="M317.389 102.202V205.823H454.366V102.202H317.389ZM445.976 197.433H325.784V110.592H445.976V197.433Z" fill="#0BB501"/>
<path d="M445.971 110.592H325.779V197.428H445.971V110.592Z" fill="#F5F5F5"/>
<path d="M333.123 185V163.909H341.444C343.037 163.909 344.396 164.194 345.522 164.764C346.655 165.327 347.517 166.127 348.107 167.163C348.704 168.193 349.003 169.405 349.003 170.799C349.003 172.199 348.701 173.404 348.097 174.413C347.493 175.416 346.617 176.185 345.471 176.72C344.331 177.256 342.951 177.523 341.331 177.523H335.759V173.94H340.61C341.461 173.94 342.168 173.823 342.731 173.589C343.294 173.356 343.713 173.006 343.988 172.539C344.269 172.072 344.41 171.492 344.41 170.799C344.41 170.098 344.269 169.508 343.988 169.027C343.713 168.547 343.291 168.183 342.721 167.936C342.158 167.682 341.448 167.555 340.589 167.555H337.582V185H333.123ZM344.513 175.402L349.755 185H344.832L339.704 175.402H344.513ZM352.154 185V163.909H366.366V167.586H356.614V172.611H365.635V176.288H356.614V181.324H366.407V185H352.154ZM381.353 169.975C381.27 169.144 380.917 168.499 380.292 168.039C379.667 167.579 378.819 167.349 377.748 167.349C377.02 167.349 376.406 167.452 375.905 167.658C375.404 167.857 375.019 168.135 374.751 168.492C374.491 168.849 374.36 169.254 374.36 169.707C374.346 170.085 374.425 170.414 374.597 170.696C374.775 170.977 375.019 171.221 375.328 171.427C375.637 171.626 375.994 171.801 376.399 171.952C376.804 172.096 377.237 172.22 377.697 172.323L379.592 172.776C380.512 172.982 381.356 173.257 382.125 173.6C382.894 173.943 383.56 174.365 384.123 174.866C384.686 175.368 385.122 175.958 385.431 176.638C385.747 177.317 385.908 178.097 385.915 178.975C385.908 180.266 385.578 181.385 384.926 182.333C384.281 183.273 383.347 184.004 382.125 184.526C380.91 185.041 379.444 185.299 377.728 185.299C376.025 185.299 374.542 185.038 373.279 184.516C372.022 183.994 371.041 183.222 370.333 182.199C369.633 181.169 369.266 179.895 369.232 178.378H373.547C373.595 179.085 373.797 179.676 374.154 180.15C374.518 180.616 375.002 180.97 375.606 181.21C376.217 181.444 376.907 181.56 377.676 181.56C378.431 181.56 379.087 181.451 379.643 181.231C380.206 181.011 380.642 180.706 380.951 180.314C381.26 179.923 381.414 179.473 381.414 178.965C381.414 178.491 381.274 178.093 380.992 177.771C380.718 177.448 380.313 177.173 379.777 176.947C379.248 176.72 378.6 176.514 377.831 176.329L375.534 175.752C373.756 175.32 372.352 174.643 371.322 173.723C370.292 172.803 369.781 171.564 369.788 170.006C369.781 168.729 370.121 167.613 370.807 166.659C371.501 165.704 372.451 164.96 373.66 164.424C374.868 163.888 376.241 163.621 377.779 163.621C379.344 163.621 380.711 163.888 381.878 164.424C383.052 164.96 383.965 165.704 384.617 166.659C385.269 167.613 385.606 168.718 385.626 169.975H381.353ZM392.068 185H387.29L394.57 163.909H400.317L407.588 185H402.809L397.526 168.729H397.361L392.068 185ZM391.769 176.71H403.056V180.191H391.769V176.71ZM410.126 185V163.909H414.585V181.324H423.627V185H410.126ZM426.58 185V163.909H440.792V167.586H431.039V172.611H440.061V176.288H431.039V181.324H440.833V185H426.58Z" fill="black"/>
<path style="mix-blend-mode:multiply" d="M354.5 68.1475H331.537V90.2661H354.5V68.1475Z" fill="url(#paint1_linear_18_302)"/>
<path style="mix-blend-mode:multiply" d="M331.537 102.202H354.51V108.145C354.51 111.191 353.299 114.113 351.145 116.267C348.991 118.421 346.07 119.631 343.023 119.631C339.977 119.631 337.055 118.421 334.901 116.267C332.747 114.113 331.537 111.191 331.537 108.145V102.202Z" fill="url(#paint2_linear_18_302)"/>
<path style="mix-blend-mode:multiply" d="M437.765 68.1475H414.803V90.2661H437.765V68.1475Z" fill="url(#paint3_linear_18_302)"/>
<path style="mix-blend-mode:multiply" d="M414.803 102.202H437.775V108.145C437.775 111.191 436.565 114.113 434.411 116.267C432.257 118.421 429.335 119.631 426.289 119.631C423.243 119.631 420.321 118.421 418.167 116.267C416.013 114.113 414.803 111.191 414.803 108.145V102.202Z" fill="url(#paint4_linear_18_302)"/>
<path d="M351.443 122.987L335.902 137.969H342.184V151.638H348.117V144.147H354.809V151.638H360.742V137.954H367.005L351.443 122.987Z" fill="#076300"/>
<path d="M387.225 122.987L371.689 137.969H377.947V151.638H383.879V144.147H390.571V151.638H396.509V137.954H402.767L387.225 122.987Z" fill="#076300"/>
<path d="M423.013 122.987L407.471 137.969H413.729V151.638H419.667V144.147H426.354V151.638H432.292V137.954H438.569L423.013 122.987Z" fill="#076300"/>
<path d="M290.316 83.0247C292.426 83.0247 294.136 81.3142 294.136 79.2042C294.136 77.0943 292.426 75.3838 290.316 75.3838C288.206 75.3838 286.495 77.0943 286.495 79.2042C286.495 81.3142 288.206 83.0247 290.316 83.0247Z" fill="#076300"/>
<path d="M461.882 91.7643H264.537V66.6492H461.882V91.7643ZM267.533 88.7678H458.885V69.6456H267.533V88.7678Z" fill="#076300"/>
<path d="M455.864 207.322H315.891V100.704H455.864V207.322ZM318.887 204.325H452.867V103.7H318.887V204.325Z" fill="#076300"/>
<path d="M343.018 111.731C342.068 111.729 341.157 111.351 340.486 110.679C339.815 110.006 339.437 109.095 339.437 108.145V63.523C339.419 63.0412 339.499 62.5607 339.671 62.1103C339.843 61.6598 340.104 61.2487 340.438 60.9015C340.773 60.5542 341.174 60.278 341.618 60.0894C342.061 59.9007 342.539 59.8035 343.021 59.8035C343.503 59.8035 343.98 59.9007 344.424 60.0894C344.867 60.278 345.269 60.5542 345.603 60.9015C345.938 61.2487 346.199 61.6598 346.371 62.1103C346.543 62.5607 346.622 63.0412 346.604 63.523V108.145C346.604 109.096 346.226 110.008 345.554 110.68C344.881 111.353 343.969 111.731 343.018 111.731Z" fill="#F5F5F5"/>
<path d="M343.018 113.229C341.671 113.226 340.38 112.689 339.428 111.736C338.476 110.783 337.941 109.492 337.939 108.145V63.5229C337.918 62.8422 338.034 62.1642 338.279 61.529C338.525 60.8939 338.896 60.3146 339.37 59.8255C339.844 59.3364 340.411 58.9476 341.038 58.682C341.666 58.4165 342.34 58.2797 343.021 58.2797C343.702 58.2797 344.376 58.4165 345.003 58.682C345.63 58.9476 346.198 59.3364 346.672 59.8255C347.145 60.3146 347.516 60.8939 347.762 61.529C348.008 62.1642 348.124 62.8422 348.102 63.5229V108.145C348.1 109.492 347.563 110.784 346.61 111.737C345.657 112.69 344.366 113.226 343.018 113.229ZM343.018 61.4354C342.465 61.4367 341.936 61.6573 341.545 62.0486C341.155 62.4399 340.936 62.9702 340.936 63.5229V108.145C340.922 108.427 340.966 108.709 341.064 108.974C341.163 109.239 341.314 109.482 341.509 109.686C341.704 109.891 341.938 110.054 342.198 110.166C342.458 110.277 342.738 110.334 343.021 110.334C343.303 110.334 343.583 110.277 343.843 110.166C344.103 110.054 344.337 109.891 344.532 109.686C344.727 109.482 344.879 109.239 344.977 108.974C345.076 108.709 345.12 108.427 345.106 108.145V63.5229C345.104 62.9697 344.884 62.4395 344.493 62.0483C344.102 61.6571 343.571 61.4367 343.018 61.4354Z" fill="#076300"/>
<path d="M426.284 111.731C425.334 111.729 424.423 111.351 423.752 110.679C423.08 110.006 422.703 109.095 422.703 108.145V63.523C422.685 63.0412 422.765 62.5607 422.937 62.1103C423.109 61.6598 423.37 61.2487 423.704 60.9015C424.039 60.5542 424.44 60.278 424.883 60.0894C425.327 59.9007 425.804 59.8035 426.287 59.8035C426.769 59.8035 427.246 59.9007 427.69 60.0894C428.133 60.278 428.534 60.5542 428.869 60.9015C429.203 61.2487 429.464 61.6598 429.636 62.1103C429.808 62.5607 429.888 63.0412 429.87 63.523V108.145C429.87 108.616 429.777 109.082 429.597 109.517C429.417 109.952 429.152 110.347 428.82 110.68C428.487 111.013 428.091 111.277 427.656 111.458C427.221 111.638 426.755 111.731 426.284 111.731Z" fill="#F5F5F5"/>
<path d="M426.284 113.229C424.937 113.226 423.646 112.689 422.694 111.736C421.742 110.783 421.206 109.492 421.205 108.145V63.5229C421.184 62.8422 421.299 62.1642 421.545 61.529C421.791 60.8939 422.162 60.3146 422.636 59.8255C423.11 59.3364 423.677 58.9476 424.304 58.682C424.931 58.4165 425.605 58.2797 426.286 58.2797C426.967 58.2797 427.642 58.4165 428.269 58.682C428.896 58.9476 429.463 59.3364 429.937 59.8255C430.411 60.3146 430.782 60.8939 431.028 61.529C431.274 62.1642 431.389 62.8422 431.368 63.5229V108.145C431.365 109.492 430.829 110.784 429.876 111.737C428.923 112.69 427.631 113.226 426.284 113.229ZM426.284 61.4354C425.731 61.4367 425.201 61.6573 424.811 62.0486C424.421 62.4399 424.201 62.9702 424.201 63.5229V108.145C424.188 108.427 424.231 108.709 424.33 108.974C424.428 109.239 424.58 109.482 424.775 109.686C424.97 109.891 425.204 110.054 425.464 110.166C425.724 110.277 426.004 110.334 426.286 110.334C426.569 110.334 426.849 110.277 427.109 110.166C427.369 110.054 427.603 109.891 427.798 109.686C427.993 109.482 428.145 109.239 428.243 108.974C428.342 108.709 428.385 108.427 428.371 108.145V63.5229C428.371 62.9693 428.152 62.4383 427.76 62.0468C427.369 61.6553 426.838 61.4354 426.284 61.4354Z" fill="#076300"/>
<path d="M460.222 211.166L458.104 213.284L465.233 220.414L467.352 218.295L460.222 211.166Z" fill="#076300"/>
<path d="M474.527 202.417H464.444V205.414H474.527V202.417Z" fill="#076300"/>
<path d="M452.957 217.784H449.961V227.867H452.957V217.784Z" fill="#076300"/>
<path d="M272.572 159.144H269.576V156.148H272.572V159.144ZM272.572 151.153H269.576V148.157H272.572V151.153ZM272.572 143.163H269.576V140.167H272.572V143.163ZM272.572 135.173H269.576V132.176H272.572V135.173ZM272.572 127.182H269.576V124.186H272.572V127.182ZM272.572 119.192H269.576V116.195H272.572V119.192ZM272.572 111.201H269.576V108.205H272.572V111.201ZM268.747 104.209C268.328 103.542 267.773 102.97 267.119 102.531L268.782 100.034C269.788 100.71 270.639 101.592 271.279 102.621L268.747 104.209ZM263.123 101.593C261.951 101.543 260.797 101.289 259.712 100.843L260.846 98.0717C261.621 98.3835 262.444 98.5592 263.278 98.5911L263.123 101.593ZM255.198 97.2677C254.521 96.3128 254.014 95.2485 253.7 94.1214L256.581 93.3024C256.81 94.1006 257.173 94.8538 257.655 95.5297L255.198 97.2677ZM256.286 88.7378H253.29V85.7414H256.286V88.7378ZM256.286 80.7473H253.29V78.4001H256.286V80.7473Z" fill="#076300"/>
<path d="M340.68 446.37H56.5699V261.91L198.63 174.12L340.63 261.91L340.68 446.37ZM62.5699 440.37H334.68V265.26L198.68 181.17L62.5699 265.26V440.37Z" fill="#076300"/>
<path d="M435.6 440.37H37V446.37H435.6V440.37Z" fill="#076300"/>
<path d="M231.26 340.22H166.01V443.37H231.26V340.22Z" fill="white"/>
<path d="M242.39 428.96H154.88V443.37H242.39V428.96Z" fill="white"/>
<path d="M245.38 446.37H151.88V426H245.38V446.37ZM157.88 440.37H239.38V432H157.88V440.37Z" fill="#076300"/>
<path d="M234.16 266.25C234.16 256.826 230.417 247.788 223.754 241.123C217.091 234.458 208.054 230.713 198.63 230.71V266.25H234.16Z" fill="white"/>
<path d="M198.63 230.71C189.204 230.71 180.164 234.454 173.499 241.119C166.834 247.784 163.09 256.824 163.09 266.25H198.63V230.71Z" fill="white"/>
<path d="M198.63 266.25V301.78C208.053 301.78 217.09 298.037 223.754 291.374C230.417 284.71 234.16 275.673 234.16 266.25C234.16 266.15 235.38 266.25 198.63 266.25Z" fill="white"/>
<path d="M163.09 266.25C163.093 275.674 166.838 284.711 173.503 291.374C180.168 298.037 189.206 301.78 198.63 301.78V266.25H163.09Z" fill="white"/>
<path d="M237.16 269.25H195.63V227.71H198.63C208.846 227.723 218.641 231.788 225.864 239.013C233.087 246.238 237.149 256.033 237.16 266.25V269.25ZM201.63 263.25H231.03C230.318 255.693 226.992 248.622 221.625 243.255C216.258 237.888 209.187 234.562 201.63 233.85V263.25Z" fill="#076300"/>
<path d="M201.63 269.25H160.09V266.25C160.101 256.032 164.164 246.235 171.39 239.01C178.615 231.784 188.412 227.721 198.63 227.71H201.63V269.25ZM166.23 263.25H195.63V233.85C188.073 234.562 181.002 237.888 175.635 243.255C170.268 248.622 166.942 255.693 166.23 263.25Z" fill="#076300"/>
<path d="M198.63 304.78H195.63V263.25H237.16V266.25C237.149 276.466 233.087 286.26 225.863 293.483C218.64 300.707 208.846 304.769 198.63 304.78ZM201.63 269.25V298.65C209.187 297.938 216.258 294.612 221.625 289.245C226.992 283.878 230.318 276.807 231.03 269.25H201.63Z" fill="#076300"/>
<path d="M201.63 304.78H198.63C188.413 304.769 178.618 300.707 171.393 293.484C164.168 286.261 160.103 276.466 160.09 266.25V263.25H201.63V304.78ZM166.23 269.25C166.942 276.807 170.268 283.878 175.635 289.245C181.002 294.612 188.073 297.938 195.63 298.65V269.25H166.23Z" fill="#076300"/>
<path d="M180.7 398.01C184.135 398.01 186.92 395.225 186.92 391.79C186.92 388.355 184.135 385.57 180.7 385.57C177.265 385.57 174.48 388.355 174.48 391.79C174.48 395.225 177.265 398.01 180.7 398.01Z" fill="#0BB501"/>
<path d="M48.0699 126.54C57.6177 126.54 66.7745 130.333 73.5258 137.084C80.2771 143.835 84.0699 152.992 84.0699 162.54C84.0699 152.992 87.8628 143.835 94.6141 137.084C101.365 130.333 110.522 126.54 120.07 126.54C110.522 126.54 101.365 122.747 94.6141 115.996C87.8628 109.245 84.0699 100.088 84.0699 90.54C84.0699 100.088 80.2771 109.245 73.5258 115.996C66.7745 122.747 57.6177 126.54 48.0699 126.54Z" fill="#076300"/>
<path d="M352.69 244.18V272.86L198.63 177.65L44.5699 272.86V244.18L198.63 148.97L352.69 244.18Z" fill="white"/>
<path style="mix-blend-mode:multiply" d="M265.14 190.07V218.75L198.63 177.65L59.5699 263.58V285.27L198.63 199.33L265.14 240.44V332.82C265.153 343.707 269.483 354.144 277.18 361.843C284.877 369.542 295.313 373.874 306.2 373.89H337.69V263.58L352.69 272.85V244.17L265.14 190.07Z" fill="url(#paint5_linear_18_302)"/>
<path d="M355.69 278.24L198.63 181.18L41.5699 278.24V242.5L198.63 145.44L355.69 242.5V278.24ZM198.63 174.12L349.69 267.48V245.85L198.63 152.5L47.5699 245.85V267.48L198.63 174.12Z" fill="#076300"/>
<defs>
<linearGradient id="paint0_linear_18_302" x1="279.898" y1="86.8303" x2="302.012" y2="86.8303" gradientUnits="userSpaceOnUse">
<stop stop-color="#CACFDD"/>
<stop offset="1" stop-color="#EEF0F1"/>
</linearGradient>
<linearGradient id="paint1_linear_18_302" x1="331.537" y1="79.2043" x2="354.5" y2="79.2043" gradientUnits="userSpaceOnUse">
<stop stop-color="#CACFDD"/>
<stop offset="1" stop-color="#EEF0F1"/>
</linearGradient>
<linearGradient id="paint2_linear_18_302" x1="331.537" y1="110.912" x2="354.5" y2="110.912" gradientUnits="userSpaceOnUse">
<stop stop-color="#CACFDD"/>
<stop offset="1" stop-color="#EEF0F1"/>
</linearGradient>
<linearGradient id="paint3_linear_18_302" x1="414.803" y1="79.2043" x2="437.765" y2="79.2043" gradientUnits="userSpaceOnUse">
<stop stop-color="#CACFDD"/>
<stop offset="1" stop-color="#EEF0F1"/>
</linearGradient>
<linearGradient id="paint4_linear_18_302" x1="414.803" y1="110.912" x2="437.765" y2="110.912" gradientUnits="userSpaceOnUse">
<stop stop-color="#CACFDD"/>
<stop offset="1" stop-color="#EEF0F1"/>
</linearGradient>
<linearGradient id="paint5_linear_18_302" x1="59.5699" y1="275.77" x2="352.69" y2="275.77" gradientUnits="userSpaceOnUse">
<stop stop-color="#CACFDD"/>
<stop offset="1" stop-color="#EEF0F1"/>
</linearGradient>
</defs>
</svg>
