<svg width="512" height="512" viewBox="0 0 512 512" fill="none" xmlns="http://www.w3.org/2000/svg">
<path d="M320.78 231.76V396.93H167V231.76L243.89 160.87L320.78 231.76Z" fill="#F5F5F5"/>
<path d="M70.22 225.99V396.93H422.65V225.99L243.89 144.65L70.22 225.99Z" fill="white"/>
<path d="M320.78 231.76V396.93H167V231.76L243.89 160.87L320.78 231.76Z" fill="white"/>
<path style="mix-blend-mode:multiply" d="M437.53 228.56H422.65V247.42H335.12V282.55L243.89 198.64L152.7 282.55V247.42H70.22V228.56H55.83L146.17 142.65H347.19L437.53 228.56Z" fill="url(#paint0_linear_18_394)"/>
<path d="M425.65 399.93H67.22V224.08L243.88 141.34C246.03 142.34 423.55 223.1 425.65 224.06V399.93ZM73.22 393.93H419.65V227.93L243.91 148L73.22 228V393.93Z" fill="#076300"/>
<path d="M323.78 399.93H164V230.45L243.89 156.79L323.78 230.45V399.93ZM170 393.93H317.78V233.07L243.89 165L170 233.07V393.93Z" fill="#076300"/>
<path d="M438.72 396.93H52.4V421.92H438.72V396.93Z" fill="white"/>
<path d="M441.72 424.92H49.4V393.92H441.72V424.92ZM55.4 418.92H435.72V399.92H55.4V418.92Z" fill="#076300"/>
<path d="M470 409.42H438.72V396.93H470C471.591 396.93 473.117 397.562 474.243 398.687C475.368 399.813 476 401.339 476 402.93V403.4C476.003 404.19 475.849 404.972 475.549 405.702C475.249 406.432 474.807 407.096 474.25 407.656C473.692 408.215 473.03 408.659 472.301 408.961C471.571 409.264 470.79 409.42 470 409.42Z" fill="white"/>
<path d="M470 412.42H435.72V393.93H470C472.387 393.93 474.676 394.878 476.364 396.566C478.052 398.254 479 400.543 479 402.93V403.4C479.003 404.584 478.772 405.756 478.321 406.85C477.87 407.944 477.207 408.939 476.371 409.777C475.535 410.615 474.542 411.279 473.449 411.733C472.356 412.186 471.184 412.42 470 412.42ZM441.74 406.42H470C470.796 406.42 471.559 406.104 472.121 405.541C472.684 404.979 473 404.216 473 403.42V402.95C473 402.154 472.684 401.391 472.121 400.829C471.559 400.266 470.796 399.95 470 399.95H441.72L441.74 406.42Z" fill="#076300"/>
<path d="M457.36 228.56H317.36L243.89 160.86L170.43 228.56H36L146.17 123.8H347.19L457.36 228.56Z" fill="#0BB501"/>
<path d="M464.87 231.56H316.19L243.89 164.94L171.6 231.56H28.49L145 120.8H348.39L464.87 231.56ZM318.53 225.56H449.85L346 126.8H147.37L43.51 225.56H169.26L243.89 156.78L318.53 225.56Z" fill="#076300"/>
<path d="M335.12 228.56V263.7L243.89 179.79L152.7 263.7V228.56L243.89 144.65L335.12 228.56Z" fill="#076300"/>
<path d="M476 440.83H36V446.83H476V440.83Z" fill="#076300"/>
<path d="M280.42 281.94H207.68V396.93H280.42V281.94Z" fill="#0BB501"/>
<path d="M292.82 380.86H195.27V396.92H292.82V380.86Z" fill="white"/>
<path d="M295.82 399.93H192.27V377.87H295.82V399.93ZM198.27 393.93H289.82V383.87H198.27V393.93Z" fill="#076300"/>
<path d="M224.06 346.37C227.887 346.37 230.99 343.267 230.99 339.44C230.99 335.613 227.887 332.51 224.06 332.51C220.233 332.51 217.13 335.613 217.13 339.44C217.13 343.267 220.233 346.37 224.06 346.37Z" fill="white"/>
<path d="M136.4 283.46H101.61V313.82H136.4V283.46Z" fill="white"/>
<path d="M136.4 313.82H101.61V344.18H136.4V313.82Z" fill="white"/>
<path d="M143.93 344.17H94.5V357.57H143.93V344.17Z" fill="white"/>
<path d="M139.41 316.82H98.61V280.46H139.41V316.82ZM104.61 310.82H133.41V286.46H104.61V310.82Z" fill="#076300"/>
<path d="M139.41 347.17H98.61V310.82H139.41V347.17ZM104.61 341.17H133.41V316.82H104.61V341.17Z" fill="#076300"/>
<path d="M146.93 360.57H91.5V341.17H146.93V360.57ZM97.5 354.57H140.93V347.17H97.5V354.57Z" fill="#076300"/>
<path d="M388.92 283.46H354.13V313.82H388.92V283.46Z" fill="white"/>
<path d="M388.92 313.82H354.13V344.18H388.92V313.82Z" fill="white"/>
<path d="M396.45 344.17H347.02V357.57H396.45V344.17Z" fill="white"/>
<path d="M391.92 316.82H351.13V280.46H391.92V316.82ZM357.13 310.82H385.92V286.46H357.13V310.82Z" fill="#076300"/>
<path d="M391.92 347.17H351.13V310.82H391.92V347.17ZM357.13 341.17H385.92V316.82H357.13V341.17Z" fill="#076300"/>
<path d="M399.45 360.57H344V341.17H399.43L399.45 360.57ZM350.02 354.57H393.45V347.17H350L350.02 354.57Z" fill="#076300"/>
<path d="M376.787 93.6614L363.323 107.125L367.566 111.367L381.029 97.9041L376.787 93.6614Z" fill="#076300"/>
<path d="M352.75 80.22H346.75V99.26H352.75V80.22Z" fill="#076300"/>
<path d="M395 120.8H375.95V126.8H395V120.8Z" fill="#076300"/>
<path d="M158.54 89.8599C155.879 89.8559 153.291 88.9929 151.161 87.3992C149.031 85.8056 147.472 83.5666 146.717 81.0155C145.961 78.4644 146.05 75.7376 146.97 73.2411C147.889 70.7446 149.591 68.6118 151.82 67.1602C154.05 65.7085 156.689 65.0158 159.344 65.1849C161.999 65.3541 164.528 66.3761 166.556 68.0989C168.583 69.8217 170 72.1532 170.595 74.7463C171.191 77.3393 170.933 80.0553 169.86 82.4899C168.896 84.6873 167.311 86.5553 165.3 87.8646C163.289 89.1738 160.94 89.8673 158.54 89.8599ZM158.59 71.1699C157.447 71.1663 156.325 71.4716 155.341 72.0535C154.358 72.6355 153.55 73.4725 153.003 74.4759C152.456 75.4793 152.191 76.6119 152.235 77.7539C152.278 78.8958 152.63 80.0046 153.253 80.963C153.875 81.9214 154.745 82.6938 155.77 83.1984C156.796 83.7029 157.938 83.921 159.078 83.8295C160.217 83.738 161.31 83.3403 162.241 82.6785C163.173 82.0167 163.909 81.1154 164.37 80.0699C164.79 79.106 164.964 78.0531 164.878 77.0052C164.791 75.9574 164.446 74.9475 163.873 74.0657C163.301 73.1839 162.518 72.4579 161.596 71.9525C160.674 71.4472 159.641 71.1783 158.59 71.1699Z" fill="#076300"/>
<path d="M101.62 133.36C100.208 133.358 98.8142 133.041 97.5403 132.432C96.2663 131.823 95.1444 130.937 94.2562 129.839C93.368 128.741 92.736 127.459 92.4062 126.086C92.0764 124.713 92.0571 123.284 92.3498 121.903C92.6425 120.521 93.2398 119.223 94.0981 118.101C94.9564 116.98 96.054 116.065 97.3111 115.421C98.5682 114.778 99.9529 114.424 101.364 114.384C102.776 114.344 104.178 114.619 105.47 115.19C107.462 116.07 109.09 117.609 110.082 119.547C111.074 121.486 111.369 123.707 110.918 125.837C110.466 127.967 109.296 129.878 107.603 131.247C105.91 132.617 103.798 133.363 101.62 133.36ZM101.62 120.36C100.99 120.357 100.371 120.524 99.8291 120.844C99.2868 121.164 98.8412 121.625 98.5396 122.178C98.2379 122.731 98.0915 123.355 98.1157 123.984C98.14 124.614 98.3341 125.225 98.6774 125.752C99.0207 126.28 99.5005 126.706 100.066 126.983C100.631 127.26 101.261 127.38 101.889 127.328C102.516 127.277 103.118 127.056 103.631 126.69C104.143 126.324 104.547 125.827 104.8 125.25C105.024 124.723 105.116 124.149 105.067 123.579C105.018 123.009 104.829 122.459 104.518 121.978C104.207 121.498 103.783 121.1 103.283 120.822C102.783 120.543 102.222 120.391 101.65 120.38L101.62 120.36Z" fill="#076300"/>
<path d="M445.45 368.21H439.45V364.05H445.45V368.21ZM445.45 354.05H439.45V348.05H445.45V354.05ZM445.45 338.05H439.45V332.05H445.45V338.05ZM445.45 322.05H439.45V316.05H445.45V322.05ZM445.45 306.05H439.45V300.05H445.45V306.05ZM445.45 290.05H439.45V284.05H445.45V290.05ZM445.45 274.05H439.45V268.05H445.45V274.05ZM445.94 259.11L440.27 257.11C441.094 254.732 442.509 252.602 444.38 250.92L448.38 255.38C447.267 256.399 446.428 257.682 445.94 259.11ZM461.63 253.11H455.63V247.11H461.63V253.11Z" fill="#076300"/>
<defs>
<linearGradient id="paint0_linear_18_394" x1="55.83" y1="212.6" x2="437.53" y2="212.6" gradientUnits="userSpaceOnUse">
<stop stop-color="#CACFDD"/>
<stop offset="1" stop-color="#EEF0F1"/>
</linearGradient>
</defs>
</svg>
