<svg width="74" height="51" viewBox="0 0 74 51" fill="none" xmlns="http://www.w3.org/2000/svg">
<path fill-rule="evenodd" clip-rule="evenodd" d="M54.4907 37.2182C53.5145 37.2182 52.5685 36.905 51.7733 36.3093L44.7404 31.0413C44.2405 30.6668 44.1388 29.958 44.5134 29.4579C44.8879 28.958 45.5967 28.8563 46.0966 29.2307L53.1294 34.499C53.6182 34.8652 54.2204 35.0191 54.8253 34.9321C55.432 34.845 55.9679 34.5261 56.3343 34.0342C57.0849 33.026 56.8587 31.5791 55.8304 30.8088L42.1857 20.5878C39.9155 18.8872 36.9873 18.1717 34.152 18.6247C32.3056 18.9196 30.7348 18.9326 29.4834 18.663C27.1589 18.1621 26.2906 16.7737 25.9717 15.6971C25.6409 14.5807 26.0768 13.3965 27.0562 12.7507C29.0542 11.4328 34.3013 8.35011 39.8535 8.18871C46.4973 7.9955 50.5765 5.70587 50.617 5.6827C51.1579 5.37031 51.8485 5.55606 52.1609 6.097C52.4732 6.63794 52.2871 7.33027 51.7462 7.64267C51.5628 7.7485 47.1726 10.239 39.9192 10.4497C34.9473 10.5942 30.1383 13.4273 28.3016 14.6388C28.1616 14.7311 28.0954 14.9019 28.1406 15.0545C28.2773 15.5155 28.6144 16.1617 29.96 16.4517C30.9362 16.662 32.2266 16.6416 33.7953 16.391C35.5104 16.1171 37.231 16.1853 38.9094 16.5939C40.5978 17.005 42.1564 17.7396 43.5421 18.7775L57.1868 28.9984C59.2104 30.5145 59.6422 33.3794 58.1489 35.3849C57.4203 36.3635 56.3541 36.9979 55.1467 37.1711C54.9272 37.2027 54.7083 37.2182 54.4907 37.2182Z" fill="white"/>
<path fill-rule="evenodd" clip-rule="evenodd" d="M48.6959 41.4145C47.7197 41.4145 46.7738 41.1013 45.9786 40.5056L40.6464 36.511C40.1465 36.1366 40.0447 35.4278 40.4192 34.9279C40.7938 34.428 41.5024 34.3262 42.0024 34.7007L47.3346 38.695C47.8233 39.0612 48.4255 39.215 49.0303 39.1282C49.6347 39.0414 50.1691 38.7247 50.5351 38.2358C50.9013 37.7469 51.0553 37.1448 50.9687 36.5403C50.8819 35.9359 50.565 35.4013 50.0761 35.0351C49.5762 34.6606 49.4744 33.9518 49.8491 33.4519C50.2235 32.952 50.9323 32.8503 51.4322 33.2247C52.4048 33.9532 53.0352 35.0166 53.2078 36.2191C53.3804 37.4215 53.0741 38.6194 52.3457 39.5918C51.6174 40.5641 50.554 41.1946 49.3517 41.367C49.1326 41.399 48.9135 41.4145 48.6959 41.4145Z" fill="white"/>
<path fill-rule="evenodd" clip-rule="evenodd" d="M43.3214 45.9294C42.3452 45.9294 41.3991 45.6162 40.6039 45.0205L36.5468 41.9814C36.0468 41.607 35.9451 40.8982 36.3196 40.3982C36.694 39.8983 37.403 39.7966 37.9027 40.1713L41.9599 43.2104C42.4486 43.5766 43.051 43.7305 43.6556 43.6435C44.26 43.5567 44.7942 43.24 45.1604 42.7511C45.5266 42.2624 45.6805 41.6602 45.5938 41.0558C45.507 40.4513 45.1901 39.9168 44.7014 39.5506C44.2014 39.1762 44.0997 38.4673 44.4742 37.9674C44.8486 37.4675 45.5574 37.3658 46.0575 37.7403C47.0301 38.4687 47.6605 39.5321 47.8329 40.7348C48.0053 41.9372 47.6992 43.135 46.971 44.1073C46.2427 45.0796 45.1795 45.7101 43.977 45.8825C43.7579 45.9139 43.539 45.9294 43.3214 45.9294Z" fill="white"/>
<path fill-rule="evenodd" clip-rule="evenodd" d="M38.3707 50.7626C37.3945 50.7626 36.4485 50.4494 35.6533 49.8537L32.1649 47.2406C31.665 46.8662 31.5633 46.1574 31.9377 45.6575C32.3122 45.1576 33.021 45.0559 33.5209 45.4303L37.0093 48.0433C37.498 48.4095 38.1004 48.5634 38.7049 48.4765C39.3091 48.3897 39.8436 48.0728 40.2098 47.5841C40.9655 46.575 40.7595 45.1393 39.7507 44.3834C39.2508 44.0089 39.1491 43.3001 39.5237 42.8002C39.8981 42.3003 40.607 42.1986 41.1069 42.5732C43.1142 44.0769 43.5237 46.9332 42.0203 48.9402C41.292 49.9126 40.2286 50.543 39.0264 50.7156C38.807 50.747 38.5881 50.7626 38.3707 50.7626Z" fill="white"/>
<path fill-rule="evenodd" clip-rule="evenodd" d="M14.3901 35.6935C13.2972 35.6935 12.2014 35.3032 11.3314 34.5115C10.4329 33.6939 9.90628 32.5753 9.84894 31.3618C9.79161 30.1482 10.2104 28.985 11.028 28.0865L14.6075 24.1523C16.309 22.282 19.2021 22.125 21.0566 23.8022C21.9616 24.6206 22.4915 25.7423 22.549 26.9607C22.6064 28.1745 22.1878 29.3377 21.3702 30.2364L17.7565 34.2081C16.8602 35.1932 15.6271 35.6935 14.3901 35.6935ZM18.0238 24.9004C17.3868 24.9004 16.7469 25.1619 16.2806 25.6744L12.7011 29.6086C12.2902 30.0604 12.0797 30.6452 12.1083 31.255C12.137 31.8651 12.4017 32.4274 12.8535 32.8384C13.786 33.6868 15.2348 33.6185 16.0834 32.6858L19.6971 28.7141C20.108 28.2625 20.3185 27.6775 20.2896 27.0673C20.2608 26.4549 19.9943 25.8911 19.5394 25.4798C19.1098 25.0914 18.5679 24.9004 18.0238 24.9004Z" fill="white"/>
<path fill-rule="evenodd" clip-rule="evenodd" d="M19.4493 40.2932C18.3566 40.2932 17.2606 39.9028 16.3906 39.1111C14.5357 37.4235 14.3994 34.5411 16.0872 32.686L18.2371 30.3231C19.9386 28.4529 22.8316 28.2958 24.6862 29.973C25.5911 30.7914 26.1211 31.9131 26.1786 33.1315C26.236 34.3453 25.8173 35.5087 24.9995 36.4072L22.8155 38.8076C21.9196 39.7929 20.6865 40.2932 19.4493 40.2932ZM17.7603 34.2085C16.9119 35.1409 16.9802 36.5898 17.9129 37.4382C18.8454 38.2867 20.2942 38.2183 21.1426 37.2857L23.3266 34.8853C23.7376 34.4335 23.9481 33.8488 23.9194 33.2385C23.8906 32.6261 23.6241 32.0624 23.1692 31.6508C22.2371 30.8077 20.7753 30.8953 19.9104 31.8456L17.7603 34.2085Z" fill="white"/>
<path fill-rule="evenodd" clip-rule="evenodd" d="M24.4992 44.8928C23.4063 44.8928 22.3105 44.5024 21.4405 43.7107C19.5854 42.0231 19.4493 39.1407 21.1371 37.2856L22.2488 36.0637C23.9365 34.2086 26.8189 34.0725 28.674 35.7603C29.5725 36.5779 30.0991 37.6963 30.1562 38.9098C30.2136 40.1236 29.7949 41.2868 28.9771 42.1855L27.8656 43.4074C26.9693 44.3923 25.7362 44.8928 24.4992 44.8928ZM22.9626 42.0376C23.895 42.8861 25.3439 42.8175 26.1925 41.8851L27.3041 40.6632C27.715 40.2116 27.9255 39.6267 27.8968 39.0164C27.8682 38.4065 27.6035 37.8444 27.1517 37.4334C26.2192 36.585 24.7704 36.6533 23.9219 37.586L22.8102 38.8079C21.9616 39.7403 22.0301 41.1892 22.9626 42.0376Z" fill="white"/>
<path fill-rule="evenodd" clip-rule="evenodd" d="M29.5539 49.4922C28.461 49.4922 27.3652 49.1019 26.4952 48.3102C24.64 46.6224 24.504 43.7402 26.1918 41.8851L26.5886 41.449C28.2762 39.5939 31.1587 39.4578 33.0138 41.1456C33.9123 41.9632 34.4389 43.0816 34.496 44.2949C34.5533 45.5087 34.1347 46.6721 33.3169 47.5706L32.9201 48.0067C32.024 48.9918 30.7909 49.4922 29.5539 49.4922ZM28.0171 46.6371C28.9495 47.4856 30.3984 47.4172 31.2468 46.4846L31.6434 46.0485C32.0544 45.5969 32.2649 45.0119 32.236 44.4017C32.2072 43.7918 31.9427 43.2297 31.4909 42.8187C30.5584 41.9703 29.1095 42.0386 28.2611 42.9713L27.8643 43.4074C27.0163 44.3398 27.0848 45.7887 28.0171 46.6371Z" fill="white"/>
<path fill-rule="evenodd" clip-rule="evenodd" d="M8.86527 25.2347C8.62926 25.2347 8.39148 25.1613 8.18806 25.0089L1.15501 19.7407C0.914873 19.5608 0.756222 19.293 0.713614 18.9961C0.671006 18.6992 0.748172 18.3974 0.928028 18.1575L14.1964 0.44461C14.5708 -0.0552964 15.2796 -0.157007 15.7795 0.217432L22.8126 5.48569C23.0527 5.66555 23.2114 5.93337 23.254 6.23025C23.2966 6.52713 23.2194 6.82892 23.0396 7.06886L9.77122 24.7818C9.54896 25.0782 9.20908 25.2347 8.86527 25.2347ZM3.41617 18.6083L8.63888 22.5206L20.551 6.61804L15.3283 2.70577L3.41617 18.6083Z" fill="white"/>
<path fill-rule="evenodd" clip-rule="evenodd" d="M42.4355 10.2727C42.265 10.2727 42.0923 10.234 41.9295 10.1525C39.8582 9.1142 35.815 7.56873 32.0081 8.88604C29.5516 9.73624 26.9498 9.73251 24.4842 8.87505C22.6207 8.2271 21.4716 7.30975 21.4237 7.27107C20.9375 6.87876 20.8616 6.1668 21.2539 5.68064C21.6452 5.19565 22.3548 5.11888 22.8408 5.50805C22.8535 5.51826 23.7919 6.25358 25.3061 6.76586C27.2904 7.43679 29.2963 7.43109 31.2683 6.74858C33.2797 6.05272 35.4996 5.92647 37.8668 6.37355C39.5395 6.68948 41.2474 7.28069 42.943 8.13069C43.5015 8.41049 43.7273 9.09025 43.4473 9.64847C43.249 10.0439 42.8498 10.2725 42.4355 10.2727Z" fill="white"/>
<path fill-rule="evenodd" clip-rule="evenodd" d="M65.1333 24.974C65.0944 24.974 65.0555 24.972 65.0167 24.9679C64.7184 24.9369 64.4445 24.7888 64.2554 24.556L50.3038 7.37595C50.1147 7.14308 50.026 6.84462 50.0568 6.54637C50.0878 6.24792 50.236 5.97421 50.4687 5.78512L57.2901 0.245508C57.7749 -0.148369 58.4873 -0.0743459 58.8811 0.410442L72.8328 17.5903C73.2264 18.075 73.1526 18.7874 72.6678 19.1811L65.8464 24.7207C65.6438 24.8852 65.3917 24.974 65.1333 24.974ZM52.7727 6.82813L65.2982 22.2522L70.3639 18.1385L57.8383 2.71441L52.7727 6.82813Z" fill="white"/>
<path fill-rule="evenodd" clip-rule="evenodd" d="M56.5217 31.0345C56.5152 31.0345 56.5091 31.0345 56.5026 31.0343C55.8781 31.0304 55.3748 30.5208 55.3789 29.8963C55.3829 29.274 55.8885 28.7725 56.5097 28.7725C56.5136 28.7725 56.5178 28.7725 56.5219 28.7725C56.8461 28.7725 58.1162 28.5697 61.1392 26.027C62.8758 24.5665 64.3003 23.0772 64.3146 23.0623C64.7456 22.6103 65.4615 22.5934 65.9135 23.0244C66.3655 23.4554 66.3826 24.1711 65.9518 24.6233C65.8909 24.6871 64.4393 26.2055 62.6107 27.745C59.9822 29.9583 57.99 31.0345 56.5217 31.0345Z" fill="white"/>
<path fill-rule="evenodd" clip-rule="evenodd" d="M13.1025 28.6178C13.0794 28.6178 13.056 28.6171 13.0326 28.6157C12.4889 28.5825 11.7253 28.3168 9.83448 26.6111C8.8867 25.7562 8.08323 24.9227 8.04946 24.8878C7.61632 24.4377 7.63006 23.7219 8.08029 23.2885C8.53032 22.8556 9.24641 22.8693 9.67956 23.3193C9.69134 23.3315 10.3937 24.0596 11.2229 24.8165C12.6042 26.0775 13.1353 26.3245 13.2364 26.3637C13.8271 26.434 14.2673 26.9544 14.2307 27.5556C14.1936 28.1558 13.6957 28.6178 13.1025 28.6178ZM13.1703 26.358C13.1707 26.358 13.1709 26.358 13.1712 26.358C13.1709 26.358 13.1705 26.358 13.1703 26.358Z" fill="white"/>
</svg>
