<svg width="152" height="64" viewBox="0 0 152 64" fill="none" xmlns="http://www.w3.org/2000/svg">
<mask id="mask0_4559_1748" style="mask-type:luminance" maskUnits="userSpaceOnUse" x="0" y="0" width="152" height="64">
<path d="M151.536 0H0V64H151.536V0Z" fill="white"/>
</mask>
<g mask="url(#mask0_4559_1748)">
<path d="M115.758 34.6984C115.324 34.9113 114.911 35.1811 114.536 35.5379C113.735 36.3055 113.115 37.4478 112.896 39.1418L112.441 38.5871L109.186 34.6414L107.932 33.1183L106.8 31.7481L86.3925 6.99784L66.0804 29.9881L63.5515 32.8545L60.0409 36.8271C59.9062 34.9263 58.787 33.3012 57.1828 32.4588L60.6545 28.531L62.6567 26.2613L84.5698 1.44814C85.0606 0.899462 85.764 0.575654 86.4972 0.602638C87.2334 0.61763 87.9247 0.947434 88.3946 1.51409L109.183 26.7291L110.346 28.1443L111.083 29.0318L112.439 30.6748L115.755 34.7014L115.758 34.6984Z" fill="url(#paint0_linear_4559_1748)"/>
<path d="M101.548 33.7063V50.6402C101.548 51.4797 100.872 52.1572 100.034 52.1572H90.2684V38.5994C90.2684 38.3715 90.0859 38.1856 89.8554 38.1856H83.0947C82.8672 38.1856 82.6817 38.3684 82.6817 38.5994V52.1572H71.5575C70.7195 52.1572 70.0432 51.4797 70.0432 50.6402V33.7332C70.0432 33.3674 70.1808 33.0106 70.4233 32.7288L71.5575 31.4456L85.1627 16.0407C85.7763 15.3451 86.8686 15.3631 87.4582 16.0828L100.127 31.4456L101.192 32.7378C101.417 33.0136 101.539 33.3525 101.539 33.7033L101.548 33.7063Z" fill="white"/>
<path d="M151.537 25.563L142.295 49.3868C141.571 51.2547 139.778 52.4839 137.776 52.4839H136.088C134.089 52.4839 132.294 51.2547 131.569 49.3868L122.328 25.563H131.498L136.956 42.7667L142.415 25.563H151.531H151.537Z" fill="white"/>
<path d="M16.5985 25.3858V34.3595C16.5985 34.3595 8.42522 32.1228 8.39229 40.5119C8.35937 48.9008 8.39229 52.1539 8.39229 52.1539H0.0184733V40.7427C0.0184733 40.7427 -1.22054 25.3828 16.5955 25.3828L16.5985 25.3858Z" fill="white"/>
<path d="M121.013 25.3857V34.3624C121.013 34.3624 118.107 33.5678 115.755 34.7012C115.321 34.911 114.908 35.1839 114.534 35.5407C113.731 36.3052 113.112 37.4505 112.894 39.1415C112.837 39.5613 112.807 40.02 112.804 40.5148C112.804 40.7996 112.801 41.0755 112.801 41.3512C112.774 49.1196 112.804 52.1568 112.804 52.1568H104.43V40.7456C104.43 40.7456 104.125 36.9379 106.013 33.1182C106.241 32.6595 106.498 32.2006 106.794 31.7449C107.411 30.7945 108.192 29.8681 109.171 29.0315C109.533 28.7228 109.925 28.4229 110.346 28.1411C112.777 26.5041 116.201 25.3857 121.013 25.3857Z" fill="white"/>
<path d="M30.4392 46.958C26.2373 46.3134 25.0791 42.4757 25.0791 42.4757C41.6322 37.0189 38.8011 26.0814 38.8011 26.0814C37.4633 25.3978 28.3922 23.1971 22.7867 27.8264C17.1812 32.4556 17.0255 39.9272 18.3902 44.1487C22.7867 57.4607 38.6604 51.4373 38.6604 51.4373V45.1711C37.8643 45.7797 34.6471 47.5997 30.4392 46.958ZM27.5631 31.2983C29.3797 29.7992 32.3156 30.5128 32.7496 30.7317C32.7496 30.7317 33.8959 35.1571 26.1386 36.5842C25.6986 35.217 25.7465 32.7975 27.5631 31.2983Z" fill="white"/>
<path d="M66.0803 29.9881C65.1855 28.5369 64.0213 27.2717 62.6566 26.2613C60.4299 24.6063 57.6735 23.6289 54.6928 23.6289C47.7016 23.6289 41.9615 28.9987 41.3569 35.8466C41.318 36.2424 41.3 36.6412 41.3 37.0489V61.7873C41.3 61.7873 46.5284 62.0151 48.0487 56.0967V48.6941C50.006 49.8184 52.2746 50.46 54.6958 50.46C62.0909 50.46 68.0885 44.4545 68.0885 37.046C68.0885 34.4555 67.3582 32.0389 66.0833 29.9881H66.0803ZM54.6928 42.5897C51.7299 42.5897 49.3297 40.185 49.3297 37.2169C49.3297 34.2486 51.7299 31.8441 54.6928 31.8441C55.5936 31.8441 56.4406 32.0659 57.1858 32.4587C58.7869 33.3012 59.9062 34.9292 60.0438 36.827C60.0559 36.956 60.0588 37.0849 60.0588 37.2169C60.0588 40.185 57.6587 42.5897 54.6958 42.5897H54.6928Z" fill="white"/>
<path d="M85.9443 27.4697H83.8822V29.5355H85.9443V27.4697Z" fill="white"/>
<path d="M85.9443 30.1499H83.8822V32.2157H85.9443V30.1499Z" fill="white"/>
<path d="M88.5387 27.4697H86.4767V29.5355H88.5387V27.4697Z" fill="white"/>
<path d="M88.5387 30.1499H86.4767V32.2157H88.5387V30.1499Z" fill="white"/>
<path d="M54.6503 56.3307V55.7407H58.7623V56.3307H57.0383V61.2335H56.3744V56.3307H54.6503ZM59.2744 61.2335V57.1139H59.8847V57.7361H59.9275C60.0025 57.5323 60.1381 57.3669 60.3345 57.24C60.5308 57.113 60.7522 57.0495 60.9985 57.0495C61.0448 57.0495 61.1029 57.0504 61.1725 57.0522C61.242 57.0539 61.2946 57.0567 61.3304 57.0602V57.704C61.309 57.6986 61.2598 57.6905 61.1832 57.6798C61.1082 57.6672 61.0288 57.6611 60.9449 57.6611C60.745 57.6611 60.5665 57.703 60.4094 57.7871C60.2542 57.8693 60.1311 57.9837 60.04 58.1304C59.9508 58.2752 59.9062 58.4405 59.9062 58.6266V61.2335H59.2744ZM64.6708 59.5492V57.1139H65.3026V61.2335H64.6708V60.5361H64.628C64.5316 60.7453 64.3817 60.9232 64.1782 61.0698C63.9747 61.2147 63.7177 61.2871 63.4072 61.2871C63.1502 61.2871 62.9217 61.2307 62.7218 61.1182C62.522 61.0037 62.3649 60.832 62.2507 60.6032C62.1365 60.3726 62.0793 60.082 62.0793 59.7316V57.1139H62.7111V59.6886C62.7111 59.989 62.795 60.2286 62.9628 60.4074C63.1323 60.5862 63.3483 60.6756 63.6107 60.6756C63.7677 60.6756 63.9274 60.6354 64.0899 60.5548C64.254 60.4744 64.3915 60.351 64.5022 60.1848C64.6145 60.0185 64.6708 59.8066 64.6708 59.5492ZM68.2481 57.1139V57.6502H66.1171V57.1139H68.2481ZM66.7382 56.1269H67.37V60.0533C67.37 60.2322 67.3959 60.3663 67.4477 60.4556C67.5012 60.5433 67.5691 60.6023 67.6511 60.6326C67.735 60.6613 67.8234 60.6756 67.9161 60.6756C67.9857 60.6756 68.0429 60.672 68.0875 60.6649C68.1321 60.6559 68.1678 60.6488 68.1946 60.6435L68.3231 61.212C68.2803 61.2281 68.2205 61.2442 68.1437 61.2603C68.067 61.2782 67.9698 61.2871 67.8519 61.2871C67.6735 61.2871 67.4986 61.2486 67.3272 61.1718C67.1577 61.0949 67.0167 60.9778 66.9042 60.8204C66.7935 60.6631 66.7382 60.4646 66.7382 60.225V56.1269ZM69.9187 58.7552V61.2335H69.2869V55.7407H69.9187V57.7576H69.9722C70.0686 57.5448 70.2132 57.3758 70.4059 57.2507C70.6005 57.1237 70.8592 57.0602 71.1822 57.0602C71.4625 57.0602 71.7079 57.1166 71.9185 57.2292C72.1291 57.3401 72.2924 57.5109 72.4084 57.7415C72.5262 57.9703 72.5851 58.2618 72.5851 58.6158V61.2335H71.9533V58.6587C71.9533 58.3315 71.8686 58.0785 71.6989 57.8997C71.5312 57.7191 71.2983 57.6288 71.0002 57.6288C70.7932 57.6288 70.6076 57.6726 70.4434 57.7603C70.2809 57.8479 70.1525 57.9758 70.0579 58.1438C69.965 58.3119 69.9187 58.5157 69.9187 58.7552ZM74.2014 61.2764C74.0694 61.2764 73.956 61.2289 73.8614 61.1342C73.7668 61.0395 73.7196 60.9259 73.7196 60.7936C73.7196 60.6613 73.7668 60.5478 73.8614 60.453C73.956 60.3582 74.0694 60.3109 74.2014 60.3109C74.3335 60.3109 74.4468 60.3582 74.5414 60.453C74.6361 60.5478 74.6833 60.6613 74.6833 60.7936C74.6833 60.8812 74.661 60.9617 74.6163 61.035C74.5735 61.1082 74.5156 61.1673 74.4423 61.212C74.3709 61.2549 74.2907 61.2764 74.2014 61.2764ZM75.3453 56.3307V55.7407H79.4573V56.3307H77.7332V61.2335H77.0693V56.3307H75.3453ZM79.9693 61.2335V57.1139H80.5797V57.7361H80.6226C80.6976 57.5323 80.8331 57.3669 81.0294 57.24C81.2258 57.113 81.4471 57.0495 81.6934 57.0495C81.7399 57.0495 81.7978 57.0504 81.8674 57.0522C81.937 57.0539 81.9897 57.0567 82.0254 57.0602V57.704C82.004 57.6986 81.9549 57.6905 81.8781 57.6798C81.8032 57.6672 81.7238 57.6611 81.6398 57.6611C81.4399 57.6611 81.2615 57.703 81.1044 57.7871C80.9491 57.8693 80.826 57.9837 80.735 58.1304C80.6458 58.2752 80.6012 58.4405 80.6012 58.6266V61.2335H79.9693ZM85.3658 59.5492V57.1139H85.9976V61.2335H85.3658V60.5361H85.323C85.2266 60.7453 85.0767 60.9232 84.8732 61.0698C84.6697 61.2147 84.4128 61.2871 84.1021 61.2871C83.8452 61.2871 83.6167 61.2307 83.4168 61.1182C83.2169 61.0037 83.0598 60.832 82.9456 60.6032C82.8314 60.3726 82.7743 60.082 82.7743 59.7316V57.1139H83.4061V59.6886C83.4061 59.989 83.49 60.2286 83.6578 60.4074C83.8273 60.5862 84.0433 60.6756 84.3057 60.6756C84.4626 60.6756 84.6225 60.6354 84.7848 60.5548C84.949 60.4744 85.0865 60.351 85.1971 60.1848C85.3095 60.0185 85.3658 59.8066 85.3658 59.5492ZM90.0675 58.0364L89.5 58.1974C89.4642 58.1027 89.4116 58.0105 89.3419 57.9211C89.2742 57.83 89.1814 57.7548 89.0636 57.6959C88.9458 57.6369 88.795 57.6074 88.6111 57.6074C88.3595 57.6074 88.1497 57.6655 87.982 57.7817C87.816 57.8961 87.7331 58.0419 87.7331 58.2188C87.7331 58.3762 87.7901 58.5004 87.9043 58.5917C88.0186 58.6828 88.1971 58.7589 88.4398 58.8197L89.0502 58.9699C89.4178 59.0592 89.6918 59.1961 89.8721 59.3802C90.0524 59.5625 90.1425 59.7977 90.1425 60.0856C90.1425 60.3216 90.0746 60.5326 89.939 60.7185C89.8051 60.9044 89.6178 61.0511 89.3768 61.1583C89.1359 61.2656 88.8557 61.3193 88.5361 61.3193C88.1168 61.3193 87.7696 61.2281 87.4948 61.0457C87.2199 60.8634 87.0459 60.5969 86.9727 60.2464L87.5724 60.0963C87.6295 60.3179 87.7375 60.4842 87.8963 60.5951C88.057 60.706 88.2667 60.7614 88.5255 60.7614C88.82 60.7614 89.0538 60.6988 89.2268 60.5737C89.4018 60.4467 89.4892 60.2948 89.4892 60.1178C89.4892 59.9747 89.4393 59.8549 89.3393 59.7584C89.2394 59.6599 89.0859 59.5867 88.8789 59.5385L88.1935 59.3775C87.8169 59.2881 87.5403 59.1495 87.3636 58.9618C87.1887 58.7722 87.1013 58.5353 87.1013 58.2511C87.1013 58.0186 87.1664 57.813 87.2967 57.6342C87.4287 57.4554 87.6082 57.315 87.8347 57.2132C88.0633 57.1112 88.322 57.0602 88.6111 57.0602C89.0181 57.0602 89.3375 57.1496 89.5695 57.3285C89.8034 57.5072 89.9693 57.7433 90.0675 58.0364ZM92.8819 57.1139V57.6502H90.7508V57.1139H92.8819ZM91.3719 56.1269H92.0037V60.0533C92.0037 60.2322 92.0296 60.3663 92.0814 60.4556C92.1349 60.5433 92.2027 60.6023 92.2848 60.6326C92.3687 60.6613 92.4571 60.6756 92.5499 60.6756C92.6195 60.6756 92.6766 60.672 92.7212 60.6649C92.7658 60.6559 92.8015 60.6488 92.8284 60.6435L92.9568 61.212C92.9139 61.2281 92.8541 61.2442 92.7775 61.2603C92.7007 61.2782 92.6035 61.2871 92.4856 61.2871C92.3072 61.2871 92.1323 61.2486 91.9609 61.1718C91.7914 61.0949 91.6504 60.9778 91.5379 60.8204C91.4273 60.6631 91.3719 60.4646 91.3719 60.225V56.1269ZM94.2927 61.2764C94.1607 61.2764 94.0473 61.2289 93.9527 61.1342C93.8581 61.0395 93.8109 60.9259 93.8109 60.7936C93.8109 60.6613 93.8581 60.5478 93.9527 60.453C94.0473 60.3582 94.1607 60.3109 94.2927 60.3109C94.4248 60.3109 94.5382 60.3582 94.6328 60.453C94.7273 60.5478 94.7746 60.6613 94.7746 60.7936C94.7746 60.8812 94.7523 60.9617 94.7077 61.035C94.6648 61.1082 94.6069 61.1673 94.5336 61.212C94.4623 61.2549 94.382 61.2764 94.2927 61.2764ZM95.4365 56.3307V55.7407H99.5486V56.3307H97.8245V61.2335H97.1606V56.3307H95.4365ZM100.061 61.2335V57.1139H100.671V57.7361H100.714C100.789 57.5323 100.924 57.3669 101.121 57.24C101.317 57.113 101.538 57.0495 101.785 57.0495C101.831 57.0495 101.889 57.0504 101.959 57.0522C102.028 57.0539 102.081 57.0567 102.117 57.0602V57.704C102.095 57.6986 102.046 57.6905 101.969 57.6798C101.895 57.6672 101.815 57.6611 101.731 57.6611C101.531 57.6611 101.353 57.703 101.196 57.7871C101.04 57.8693 100.917 57.9837 100.826 58.1304C100.737 58.2752 100.692 58.4405 100.692 58.6266V61.2335H100.061ZM104.076 61.33C103.815 61.33 103.579 61.2808 103.366 61.1825C103.154 61.0824 102.985 60.9384 102.86 60.7507C102.735 60.5611 102.673 60.3323 102.673 60.0641C102.673 59.8281 102.719 59.6368 102.812 59.4901C102.905 59.3417 103.029 59.2255 103.184 59.1414C103.339 59.0575 103.511 58.9949 103.698 58.9537C103.887 58.9108 104.077 58.8768 104.268 58.8518C104.518 58.8197 104.721 58.7955 104.876 58.7794C105.033 58.7615 105.147 58.7321 105.219 58.6909C105.292 58.6497 105.329 58.5782 105.329 58.4764V58.4549C105.329 58.1903 105.256 57.9847 105.112 57.838C104.969 57.6914 104.752 57.6181 104.461 57.6181C104.16 57.6181 103.923 57.6842 103.752 57.8165C103.58 57.9488 103.46 58.0902 103.39 58.2404L102.791 58.0257C102.898 57.7755 103.04 57.5805 103.219 57.4411C103.399 57.2998 103.596 57.2015 103.808 57.1461C104.022 57.0888 104.233 57.0602 104.44 57.0602C104.572 57.0602 104.724 57.0763 104.895 57.1086C105.068 57.1389 105.235 57.2023 105.395 57.2989C105.558 57.3955 105.693 57.5412 105.8 57.7361C105.907 57.931 105.96 58.192 105.96 58.5192V61.2335H105.329V60.6756H105.296C105.254 60.7649 105.182 60.8606 105.082 60.9626C104.982 61.0645 104.849 61.1512 104.683 61.2228C104.517 61.2943 104.315 61.33 104.076 61.33ZM104.172 60.7614C104.422 60.7614 104.632 60.7122 104.804 60.6139C104.977 60.5156 105.107 60.3886 105.195 60.2331C105.284 60.0775 105.329 59.9139 105.329 59.7423V59.163C105.302 59.1951 105.243 59.2246 105.152 59.2515C105.063 59.2765 104.959 59.2988 104.841 59.3185C104.725 59.3364 104.612 59.3524 104.501 59.3668C104.392 59.3792 104.304 59.39 104.236 59.399C104.072 59.4204 103.919 59.4553 103.776 59.5036C103.635 59.55 103.521 59.6207 103.433 59.7155C103.347 59.8084 103.305 59.9354 103.305 60.0963C103.305 60.3162 103.386 60.4825 103.548 60.5951C103.712 60.706 103.92 60.7614 104.172 60.7614ZM107.745 58.7552V61.2335H107.114V57.1139H107.724V57.7576H107.777C107.874 57.5484 108.02 57.3803 108.216 57.2533C108.413 57.1247 108.666 57.0602 108.977 57.0602C109.255 57.0602 109.499 57.1175 109.708 57.2319C109.916 57.3446 110.079 57.5162 110.194 57.7468C110.311 57.9758 110.369 58.2654 110.369 58.6158V61.2335H109.737V58.6587C109.737 58.335 109.653 58.083 109.485 57.9024C109.318 57.72 109.088 57.6288 108.795 57.6288C108.593 57.6288 108.413 57.6726 108.254 57.7603C108.097 57.8479 107.973 57.9758 107.882 58.1438C107.791 58.3119 107.745 58.5157 107.745 58.7552ZM114.436 58.0364L113.869 58.1974C113.833 58.1027 113.781 58.0105 113.71 57.9211C113.643 57.83 113.551 57.7548 113.433 57.6959C113.315 57.6369 113.164 57.6074 112.98 57.6074C112.728 57.6074 112.519 57.6655 112.351 57.7817C112.185 57.8961 112.102 58.0419 112.102 58.2188C112.102 58.3762 112.158 58.5004 112.273 58.5917C112.387 58.6828 112.566 58.7589 112.808 58.8197L113.418 58.9699C113.786 59.0592 114.061 59.1961 114.241 59.3802C114.421 59.5625 114.511 59.7977 114.511 60.0856C114.511 60.3216 114.444 60.5326 114.307 60.7185C114.174 60.9044 113.987 61.0511 113.746 61.1583C113.504 61.2656 113.225 61.3193 112.905 61.3193C112.485 61.3193 112.139 61.2281 111.863 61.0457C111.589 60.8634 111.415 60.5969 111.341 60.2464L111.941 60.0963C111.999 60.3179 112.107 60.4842 112.265 60.5951C112.426 60.706 112.635 60.7614 112.894 60.7614C113.188 60.7614 113.423 60.6988 113.596 60.5737C113.771 60.4467 113.858 60.2948 113.858 60.1178C113.858 59.9747 113.808 59.8549 113.708 59.7584C113.608 59.6599 113.455 59.5867 113.248 59.5385L112.563 59.3775C112.186 59.2881 111.909 59.1495 111.732 58.9618C111.557 58.7722 111.47 58.5353 111.47 58.2511C111.47 58.0186 111.535 57.813 111.665 57.6342C111.797 57.4554 111.977 57.315 112.204 57.2132C112.432 57.1112 112.69 57.0602 112.98 57.0602C113.386 57.0602 113.706 57.1496 113.938 57.3285C114.172 57.5072 114.338 57.7433 114.436 58.0364ZM115.463 62.7783V57.1139H116.073V57.7683H116.148C116.194 57.6968 116.258 57.6056 116.341 57.4948C116.424 57.3821 116.543 57.2819 116.699 57.1943C116.856 57.1049 117.069 57.0602 117.336 57.0602C117.682 57.0602 117.987 57.147 118.252 57.3204C118.516 57.4939 118.722 57.7397 118.871 58.058C119.018 58.3762 119.092 58.7517 119.092 59.1844C119.092 59.6207 119.018 59.9988 118.871 60.3189C118.722 60.6372 118.517 60.8839 118.255 61.0591C117.992 61.2326 117.69 61.3193 117.347 61.3193C117.083 61.3193 116.871 61.2755 116.713 61.1879C116.553 61.0984 116.431 60.9974 116.346 60.8848C116.26 60.7704 116.194 60.6756 116.148 60.6005H116.094V62.7783H115.463ZM116.083 59.1737C116.083 59.4847 116.129 59.7593 116.219 59.9971C116.311 60.2331 116.444 60.4181 116.619 60.5522C116.793 60.6845 117.008 60.7507 117.261 60.7507C117.526 60.7507 117.746 60.681 117.922 60.5415C118.101 60.4003 118.235 60.2107 118.324 59.9729C118.415 59.7333 118.461 59.4668 118.461 59.1737C118.461 58.884 118.416 58.6229 118.326 58.3905C118.239 58.1563 118.106 57.9712 117.928 57.8354C117.752 57.6977 117.529 57.6288 117.261 57.6288C117.005 57.6288 116.788 57.694 116.614 57.8246C116.439 57.9534 116.306 58.134 116.217 58.3664C116.128 58.597 116.083 58.8661 116.083 59.1737ZM121.266 61.33C121.005 61.33 120.769 61.2808 120.557 61.1825C120.344 61.0824 120.176 60.9384 120.051 60.7507C119.926 60.5611 119.863 60.3323 119.863 60.0641C119.863 59.8281 119.91 59.6368 120.003 59.4901C120.095 59.3417 120.22 59.2255 120.375 59.1414C120.53 59.0575 120.701 58.9949 120.888 58.9537C121.078 58.9108 121.268 58.8768 121.459 58.8518C121.709 58.8197 121.912 58.7955 122.067 58.7794C122.223 58.7615 122.338 58.7321 122.41 58.6909C122.482 58.6497 122.52 58.5782 122.52 58.4764V58.4549C122.52 58.1903 122.447 57.9847 122.303 57.838C122.16 57.6914 121.943 57.6181 121.652 57.6181C121.35 57.6181 121.113 57.6842 120.942 57.8165C120.771 57.9488 120.651 58.0902 120.581 58.2404L119.981 58.0257C120.089 57.7755 120.231 57.5805 120.409 57.4411C120.59 57.2998 120.786 57.2015 120.999 57.1461C121.212 57.0888 121.424 57.0602 121.631 57.0602C121.762 57.0602 121.914 57.0763 122.086 57.1086C122.259 57.1389 122.425 57.2023 122.586 57.2989C122.749 57.3955 122.883 57.5412 122.99 57.7361C123.098 57.931 123.151 58.192 123.151 58.5192V61.2335H122.52V60.6756H122.487C122.444 60.7649 122.373 60.8606 122.273 60.9626C122.173 61.0645 122.039 61.1512 121.874 61.2228C121.708 61.2943 121.505 61.33 121.266 61.33ZM121.363 60.7614C121.612 60.7614 121.824 60.7122 121.994 60.6139C122.167 60.5156 122.298 60.3886 122.385 60.2331C122.475 60.0775 122.52 59.9139 122.52 59.7423V59.163C122.492 59.1951 122.434 59.2246 122.342 59.2515C122.253 59.2765 122.15 59.2988 122.032 59.3185C121.916 59.3364 121.803 59.3524 121.691 59.3668C121.583 59.3792 121.494 59.39 121.427 59.399C121.263 59.4204 121.109 59.4553 120.967 59.5036C120.826 59.55 120.711 59.6207 120.624 59.7155C120.538 59.8084 120.495 59.9354 120.495 60.0963C120.495 60.3162 120.577 60.4825 120.739 60.5951C120.903 60.706 121.111 60.7614 121.363 60.7614ZM124.304 61.2335V57.1139H124.914V57.7361H124.957C125.032 57.5323 125.168 57.3669 125.365 57.24C125.561 57.113 125.782 57.0495 126.028 57.0495C126.075 57.0495 126.132 57.0504 126.202 57.0522C126.272 57.0539 126.324 57.0567 126.36 57.0602V57.704C126.338 57.6986 126.29 57.6905 126.213 57.6798C126.138 57.6672 126.059 57.6611 125.975 57.6611C125.774 57.6611 125.596 57.703 125.44 57.7871C125.284 57.8693 125.161 57.9837 125.07 58.1304C124.98 58.2752 124.936 58.4405 124.936 58.6266V61.2335H124.304ZM128.708 61.3193C128.312 61.3193 127.97 61.2317 127.682 61.0565C127.397 60.8794 127.177 60.6326 127.021 60.3162C126.868 59.9979 126.791 59.6278 126.791 59.2059C126.791 58.7839 126.868 58.412 127.021 58.0902C127.177 57.7665 127.393 57.5144 127.669 57.3338C127.948 57.1515 128.273 57.0602 128.644 57.0602C128.857 57.0602 129.069 57.096 129.278 57.1675C129.487 57.2391 129.677 57.3553 129.849 57.5162C130.019 57.6753 130.156 57.8863 130.258 58.1491C130.36 58.4119 130.41 58.7356 130.41 59.12V59.3882H127.241V58.8411H129.768C129.768 58.6087 129.722 58.4012 129.628 58.2188C129.538 58.0364 129.408 57.8926 129.239 57.7871C129.07 57.6816 128.872 57.6288 128.644 57.6288C128.393 57.6288 128.175 57.6914 127.991 57.8165C127.809 57.9399 127.669 58.1009 127.57 58.2993C127.472 58.4978 127.423 58.7105 127.423 58.9376V59.3024C127.423 59.6135 127.476 59.8772 127.584 60.0936C127.692 60.3081 127.843 60.4718 128.036 60.5844C128.229 60.6952 128.453 60.7507 128.708 60.7507C128.874 60.7507 129.024 60.7274 129.158 60.681C129.294 60.6326 129.41 60.5611 129.508 60.4664C129.606 60.3698 129.682 60.2501 129.736 60.107L130.347 60.2787C130.283 60.4861 130.175 60.6684 130.023 60.8257C129.871 60.9813 129.684 61.1029 129.46 61.1905C129.237 61.2764 128.986 61.3193 128.708 61.3193ZM132.003 58.7552V61.2335H131.372V57.1139H131.982V57.7576H132.036C132.132 57.5484 132.279 57.3803 132.475 57.2533C132.671 57.1247 132.925 57.0602 133.235 57.0602C133.513 57.0602 133.757 57.1175 133.966 57.2319C134.175 57.3446 134.337 57.5162 134.453 57.7468C134.57 57.9758 134.627 58.2654 134.627 58.6158V61.2335H133.996V58.6587C133.996 58.335 133.912 58.083 133.743 57.9024C133.576 57.72 133.346 57.6288 133.053 57.6288C132.851 57.6288 132.671 57.6726 132.512 57.7603C132.356 57.8479 132.231 57.9758 132.14 58.1438C132.049 58.3119 132.003 58.5157 132.003 58.7552ZM137.452 61.3193C137.067 61.3193 136.735 61.2281 136.456 61.0457C136.178 60.8634 135.964 60.6121 135.814 60.292C135.664 59.972 135.589 59.6063 135.589 59.1951C135.589 58.7768 135.665 58.4075 135.82 58.0874C135.975 57.7657 136.191 57.5144 136.467 57.3338C136.746 57.1515 137.07 57.0602 137.441 57.0602C137.731 57.0602 137.992 57.1139 138.223 57.2212C138.455 57.3285 138.645 57.4787 138.794 57.6718C138.941 57.8649 139.034 58.0902 139.069 58.3476H138.438C138.389 58.1598 138.283 57.9936 138.116 57.8488C137.952 57.7021 137.731 57.6288 137.452 57.6288C137.206 57.6288 136.991 57.6932 136.804 57.8219C136.62 57.9488 136.477 58.1286 136.374 58.361C136.271 58.5917 136.221 58.8626 136.221 59.1737C136.221 59.4919 136.271 59.7691 136.37 60.0051C136.473 60.2411 136.615 60.4244 136.799 60.5548C136.985 60.6854 137.202 60.7507 137.452 60.7507C137.616 60.7507 137.766 60.722 137.899 60.6649C138.034 60.6076 138.147 60.5254 138.24 60.4181C138.332 60.3109 138.398 60.1821 138.438 60.0319H139.069C139.034 60.2751 138.946 60.4942 138.805 60.689C138.665 60.8821 138.481 61.0358 138.251 61.1503C138.021 61.2629 137.756 61.3193 137.452 61.3193ZM140.4 62.7783C140.293 62.7783 140.197 62.7694 140.113 62.7515C140.029 62.7354 139.971 62.7193 139.939 62.7032L140.1 62.1454C140.253 62.1846 140.39 62.199 140.506 62.1883C140.624 62.1775 140.729 62.1247 140.82 62.03C140.913 61.937 140.998 61.786 141.075 61.5767L141.193 61.2549L139.671 57.1139H140.357L141.492 60.3966H141.535L142.67 57.1139H143.356L141.61 61.8342C141.532 62.0469 141.434 62.2232 141.318 62.3625C141.202 62.5039 141.067 62.6084 140.914 62.6763C140.762 62.7443 140.591 62.7783 140.4 62.7783Z" fill="white"/>
</g>
<defs>
<linearGradient id="paint0_linear_4559_1748" x1="86.4703" y1="0.601074" x2="86.4703" y2="39.1418" gradientUnits="userSpaceOnUse">
<stop stop-color="white"/>
<stop offset="1" stop-color="white"/>
</linearGradient>
</defs>
</svg>
