<svg width="129" height="54" viewBox="0 0 129 54" fill="none" xmlns="http://www.w3.org/2000/svg">
<g clip-path="url(#clip0_2584_11585)">
<mask id="mask0_2584_11585" style="mask-type:luminance" maskUnits="userSpaceOnUse" x="0" y="0" width="129" height="54">
<path d="M128.606 0H0V54H128.606V0Z" fill="white"/>
</mask>
<g mask="url(#mask0_2584_11585)">
<path d="M98.2419 29.2768C97.8736 29.4563 97.5231 29.684 97.2052 29.9851C96.5247 30.6327 95.9994 31.5965 95.8133 33.0258L95.4273 32.5578L92.6641 29.2286L91.5998 27.9435L90.6397 26.7874L73.3199 5.90439L56.0814 25.3024L53.9352 27.7209L50.9558 31.0728C50.8415 29.469 49.8916 28.0979 48.5302 27.387L51.4765 24.073L53.1758 22.158L71.7731 1.22183C72.1896 0.758879 72.7866 0.485667 73.4088 0.508434C74.0337 0.521083 74.6203 0.799355 75.0191 1.27747L92.6615 22.5526L93.6493 23.7467L94.2747 24.4955L95.4254 25.8818L98.2391 29.2793L98.2419 29.2768Z" fill="url(#paint0_linear_2584_11585)"/>
<path d="M86.1824 28.4395V42.7275C86.1824 43.4358 85.6083 44.0075 84.8971 44.0075H76.6094V32.5681C76.6094 32.3758 76.4545 32.2189 76.2588 32.2189H70.5211C70.3281 32.2189 70.1707 32.3732 70.1707 32.5681V44.0075H60.7297C60.0186 44.0075 59.4445 43.4358 59.4445 42.7275V28.4622C59.4445 28.1536 59.5614 27.8526 59.7671 27.6148L60.7297 26.5321L72.2763 13.5342C72.7969 12.9472 73.724 12.9624 74.2244 13.5696L84.976 26.5321L85.8802 27.6223C86.0706 27.8551 86.1747 28.141 86.1747 28.437L86.1824 28.4395Z" fill="#5E23DC"/>
<path d="M128.607 21.5686L120.764 41.6699C120.149 43.246 118.628 44.2832 116.928 44.2832H115.496C113.799 44.2832 112.276 43.246 111.661 41.6699L103.818 21.5686H111.6L116.233 36.0843L120.866 21.5686H128.602H128.607Z" fill="#5E23DC"/>
<path d="M14.0869 21.4194V28.9909C14.0869 28.9909 7.15035 27.1037 7.12241 34.182C7.09447 41.2602 7.12241 44.005 7.12241 44.005H0.0156782V34.3768C0.0156782 34.3768 -1.03585 21.4169 14.0844 21.4169L14.0869 21.4194Z" fill="#5E23DC"/>
<path d="M102.702 21.4194V28.9934C102.702 28.9934 100.236 28.323 98.2391 29.2793C97.8708 29.4563 97.5203 29.6866 97.2034 29.9876C96.5219 30.6327 95.9966 31.599 95.8115 33.0258C95.7629 33.38 95.7376 33.767 95.7348 34.1845C95.7348 34.4248 95.732 34.6576 95.732 34.8902C95.7096 41.4448 95.7348 44.0075 95.7348 44.0075H88.6281V34.3793C88.6281 34.3793 88.369 31.1665 89.9717 27.9436C90.1647 27.5566 90.3832 27.1694 90.6347 26.7849C91.1579 25.983 91.8208 25.2013 92.6514 24.4955C92.9587 24.235 93.2914 23.982 93.6493 23.7442C95.7124 22.363 98.6177 21.4194 102.702 21.4194Z" fill="#5E23DC"/>
<path d="M25.8333 39.6209C22.2672 39.077 21.2843 35.839 21.2843 35.839C35.3326 31.2348 32.9299 22.0063 32.9299 22.0063C31.7945 21.4295 24.096 19.5727 19.3387 23.4786C14.5814 27.3845 14.4493 33.6886 15.6075 37.2506C19.3387 48.4826 32.8105 43.4004 32.8105 43.4004V38.1132C32.1348 38.6268 29.4044 40.1623 25.8333 39.6209ZM23.3924 26.4081C24.9341 25.1431 27.4258 25.7452 27.7941 25.93C27.7941 25.93 28.7669 29.6639 22.1834 30.868C21.81 29.7144 21.8506 27.673 23.3924 26.4081Z" fill="#5E23DC"/>
<path d="M56.0813 25.3025C55.3219 24.078 54.3339 23.0105 53.1757 22.158C51.2859 20.7616 48.9466 19.9369 46.4169 19.9369C40.4836 19.9369 35.612 24.4677 35.0989 30.2456C35.0659 30.5796 35.0507 30.916 35.0507 31.26V52.133C35.0507 52.133 39.4879 52.3253 40.7782 47.3316V41.0856C42.4393 42.0343 44.3646 42.5757 46.4194 42.5757C52.6956 42.5757 57.7856 37.5085 57.7856 31.2575C57.7856 29.0718 57.1659 27.0329 56.0839 25.3025H56.0813ZM46.4169 35.9351C43.9023 35.9351 41.8654 33.9061 41.8654 31.4017C41.8654 28.8973 43.9023 26.8684 46.4169 26.8684C47.1814 26.8684 47.9002 27.0556 48.5327 27.387C49.8915 28.0979 50.8414 29.4715 50.9583 31.0728C50.9685 31.1817 50.971 31.2904 50.971 31.4017C50.971 33.9061 48.934 35.9351 46.4194 35.9351H46.4169Z" fill="#5E23DC"/>
<path d="M72.9396 23.1775H71.1895V24.9205H72.9396V23.1775Z" fill="#5E23DC"/>
<path d="M72.9396 25.4391H71.1895V27.1821H72.9396V25.4391Z" fill="#5E23DC"/>
<path d="M75.1414 23.1775H73.3914V24.9205H75.1414V23.1775Z" fill="#5E23DC"/>
<path d="M75.1414 25.4391H73.3914V27.1821H75.1414V25.4391Z" fill="#5E23DC"/>
<path d="M46.3808 47.5289V47.0311H49.8707V47.5289H48.4075V51.6656H47.844V47.5289H46.3808ZM50.3052 51.6656V48.1897H50.8232V48.7147H50.8596C50.9232 48.5427 51.0383 48.4032 51.205 48.2961C51.3715 48.1889 51.5594 48.1354 51.7684 48.1354C51.8078 48.1354 51.8571 48.1362 51.9161 48.1376C51.9751 48.1391 52.0198 48.1415 52.0502 48.1444V48.6876C52.032 48.683 51.9903 48.6763 51.9252 48.6672C51.8616 48.6566 51.7942 48.6514 51.723 48.6514C51.5534 48.6514 51.4018 48.6868 51.2685 48.7577C51.1368 48.8271 51.0323 48.9236 50.955 49.0474C50.8793 49.1696 50.8414 49.3091 50.8414 49.466V51.6656H50.3052ZM54.8851 50.2445V48.1897H55.4213V51.6656H54.8851V51.0772H54.8487C54.767 51.2537 54.6397 51.4038 54.4671 51.5275C54.2943 51.6498 54.0762 51.7109 53.8127 51.7109C53.5945 51.7109 53.4007 51.6633 53.231 51.5683C53.0614 51.4718 52.9281 51.3269 52.8312 51.1338C52.7343 50.9392 52.6858 50.6941 52.6858 50.3984V48.1897H53.2219V50.3622C53.2219 50.6156 53.2932 50.8177 53.4355 50.9686C53.5794 51.1195 53.7627 51.1949 53.9854 51.1949C54.1187 51.1949 54.2542 51.161 54.3921 51.093C54.5314 51.0252 54.648 50.9211 54.742 50.7808C54.8373 50.6405 54.8851 50.4617 54.8851 50.2445ZM57.9211 48.1897V48.6423H56.1126V48.1897H57.9211ZM56.6397 47.357H57.1759V50.6699C57.1759 50.8208 57.1979 50.9339 57.2418 51.0093C57.2872 51.0833 57.3448 51.1331 57.4144 51.1587C57.4857 51.1829 57.5606 51.1949 57.6394 51.1949C57.6984 51.1949 57.7469 51.1919 57.7848 51.1859C57.8227 51.1783 57.853 51.1723 57.8757 51.1678L57.9848 51.6475C57.9484 51.6611 57.8976 51.6746 57.8325 51.6882C57.7674 51.7033 57.6849 51.7109 57.5849 51.7109C57.4334 51.7109 57.285 51.6784 57.1395 51.6136C56.9957 51.5487 56.876 51.4499 56.7806 51.3171C56.6866 51.1844 56.6397 51.0169 56.6397 50.8147V47.357ZM59.3389 49.5746V51.6656H58.8027V47.0311H59.3389V48.7329H59.3843C59.4661 48.5533 59.5888 48.4107 59.7524 48.3051C59.9175 48.198 60.1371 48.1444 60.4113 48.1444C60.6491 48.1444 60.8573 48.192 61.0361 48.287C61.2148 48.3806 61.3534 48.5247 61.4519 48.7193C61.5519 48.9124 61.6018 49.1582 61.6018 49.4569V51.6656H61.0656V49.4931C61.0656 49.2171 60.9937 49.0036 60.8498 48.8528C60.7074 48.7004 60.5098 48.6242 60.2567 48.6242C60.0811 48.6242 59.9236 48.6612 59.7842 48.7351C59.6463 48.809 59.5373 48.9169 59.457 49.0587C59.3782 49.2005 59.3389 49.3725 59.3389 49.5746ZM62.9736 51.7018C62.8615 51.7018 62.7653 51.6618 62.685 51.5818C62.6047 51.5019 62.5646 51.4061 62.5646 51.2945C62.5646 51.1829 62.6047 51.0871 62.685 51.0071C62.7653 50.9271 62.8615 50.8872 62.9736 50.8872C63.0857 50.8872 63.1819 50.9271 63.2622 51.0071C63.3425 51.0871 63.3826 51.1829 63.3826 51.2945C63.3826 51.3684 63.3636 51.4363 63.3257 51.4981C63.2894 51.5599 63.2402 51.6098 63.178 51.6475C63.1175 51.6837 63.0493 51.7018 62.9736 51.7018ZM63.9444 47.5289V47.0311H67.4342V47.5289H65.971V51.6656H65.4075V47.5289H63.9444ZM67.8687 51.6656V48.1897H68.3867V48.7147H68.4231C68.4868 48.5427 68.6018 48.4032 68.7684 48.2961C68.9351 48.1889 69.1229 48.1354 69.3319 48.1354C69.3713 48.1354 69.4205 48.1362 69.4796 48.1376C69.5387 48.1391 69.5833 48.1415 69.6136 48.1444V48.6876C69.5955 48.683 69.5538 48.6763 69.4887 48.6672C69.4251 48.6566 69.3577 48.6514 69.2865 48.6514C69.1168 48.6514 68.9654 48.6868 68.8321 48.7577C68.7003 48.8271 68.5957 48.9236 68.5185 49.0474C68.4428 49.1696 68.405 49.3091 68.405 49.466V51.6656H67.8687ZM72.4486 50.2445V48.1897H72.9848V51.6656H72.4486V51.0772H72.4123C72.3305 51.2537 72.2033 51.4038 72.0305 51.5275C71.8579 51.6498 71.6398 51.7109 71.3762 51.7109C71.1581 51.7109 70.9642 51.6633 70.7945 51.5683C70.6249 51.4718 70.4916 51.3269 70.3946 51.1338C70.2977 50.9392 70.2493 50.6941 70.2493 50.3984V48.1897H70.7855V50.3622C70.7855 50.6156 70.8566 50.8177 70.9991 50.9686C71.1429 51.1195 71.3263 51.1949 71.5489 51.1949C71.6821 51.1949 71.8178 51.161 71.9555 51.093C72.0949 51.0252 72.2116 50.9211 72.3054 50.7808C72.4009 50.6405 72.4486 50.4617 72.4486 50.2445ZM76.4389 48.9681L75.9573 49.104C75.9269 49.024 75.8822 48.9462 75.8231 48.8708C75.7656 48.7939 75.6868 48.7305 75.5869 48.6808C75.4869 48.631 75.3589 48.6061 75.2029 48.6061C74.9893 48.6061 74.8113 48.6551 74.6689 48.7532C74.5281 48.8497 74.4577 48.9727 74.4577 49.122C74.4577 49.2548 74.5061 49.3596 74.603 49.4366C74.7 49.5135 74.8515 49.5777 75.0574 49.629L75.5755 49.7557C75.8875 49.8311 76.12 49.9466 76.273 50.1019C76.426 50.2558 76.5025 50.4542 76.5025 50.6971C76.5025 50.8962 76.4449 51.0742 76.3299 51.2311C76.2162 51.388 76.0572 51.5117 75.8527 51.6022C75.6482 51.6927 75.4104 51.738 75.1392 51.738C74.7834 51.738 74.4887 51.6611 74.2555 51.5072C74.0222 51.3533 73.8745 51.1285 73.8124 50.8328L74.3213 50.7061C74.3698 50.8931 74.4614 51.0334 74.5962 51.127C74.7326 51.2206 74.9106 51.2673 75.1302 51.2673C75.3801 51.2673 75.5786 51.2145 75.7254 51.1089C75.8739 51.0018 75.9481 50.8736 75.9481 50.7242C75.9481 50.6035 75.9058 50.5025 75.8209 50.421C75.7361 50.338 75.6058 50.2761 75.4301 50.2355L74.8484 50.0996C74.5288 50.0242 74.2941 49.9073 74.1442 49.7489C73.9957 49.5889 73.9215 49.3891 73.9215 49.1492C73.9215 48.953 73.9767 48.7796 74.0873 48.6288C74.1994 48.4778 74.3517 48.3594 74.544 48.2735C74.7379 48.1875 74.9575 48.1444 75.2029 48.1444C75.5483 48.1444 75.8194 48.2199 76.0162 48.3708C76.2147 48.5216 76.3556 48.7208 76.4389 48.9681ZM78.8274 48.1897V48.6423H77.0188V48.1897H78.8274ZM77.5459 47.357H78.0821V50.6699C78.0821 50.8208 78.1041 50.9339 78.148 51.0093C78.1934 51.0833 78.251 51.1331 78.3207 51.1587C78.3919 51.1829 78.4669 51.1949 78.5457 51.1949C78.6047 51.1949 78.6532 51.1919 78.691 51.1859C78.7289 51.1783 78.7592 51.1723 78.782 51.1678L78.891 51.6475C78.8546 51.6611 78.8039 51.6746 78.7388 51.6882C78.6736 51.7033 78.5911 51.7109 78.4911 51.7109C78.3396 51.7109 78.1912 51.6784 78.0457 51.6136C77.9019 51.5487 77.7822 51.4499 77.6868 51.3171C77.5929 51.1844 77.5459 51.0169 77.5459 50.8147V47.357ZM80.0248 51.7018C79.9127 51.7018 79.8165 51.6618 79.7362 51.5818C79.6559 51.5019 79.6158 51.4061 79.6158 51.2945C79.6158 51.1829 79.6559 51.0871 79.7362 51.0071C79.8165 50.9271 79.9127 50.8872 80.0248 50.8872C80.1369 50.8872 80.233 50.9271 80.3133 51.0071C80.3936 51.0871 80.4337 51.1829 80.4337 51.2945C80.4337 51.3684 80.4148 51.4363 80.3769 51.4981C80.3405 51.5599 80.2914 51.6098 80.2292 51.6475C80.1686 51.6837 80.1005 51.7018 80.0248 51.7018ZM80.9955 47.5289V47.0311H84.4854V47.5289H83.0222V51.6656H82.4587V47.5289H80.9955ZM84.9199 51.6656V48.1897H85.4379V48.7147H85.4743C85.5378 48.5427 85.653 48.4032 85.8196 48.2961C85.9863 48.1889 86.1741 48.1354 86.3831 48.1354C86.4224 48.1354 86.4717 48.1362 86.5308 48.1376C86.5899 48.1391 86.6345 48.1415 86.6648 48.1444V48.6876C86.6466 48.683 86.605 48.6763 86.5398 48.6672C86.4763 48.6566 86.4088 48.6514 86.3376 48.6514C86.168 48.6514 86.0165 48.6868 85.8832 48.7577C85.7514 48.8271 85.6469 48.9236 85.5697 49.0474C85.4939 49.1696 85.456 49.3091 85.456 49.466V51.6656H84.9199ZM88.3274 51.7471C88.1063 51.7471 87.9056 51.7056 87.7253 51.6226C87.545 51.5382 87.4019 51.4167 87.2959 51.2583C87.1899 51.0983 87.1368 50.9052 87.1368 50.679C87.1368 50.4798 87.1762 50.3184 87.2549 50.1947C87.3337 50.0695 87.439 49.9714 87.5708 49.9005C87.7025 49.8296 87.848 49.7768 88.007 49.7421C88.1676 49.7059 88.3289 49.6772 88.491 49.6561C88.703 49.629 88.8749 49.6086 89.0067 49.595C89.14 49.5799 89.237 49.5551 89.2975 49.5203C89.3596 49.4856 89.3907 49.4253 89.3907 49.3393V49.3212C89.3907 49.0979 89.3293 48.9245 89.2067 48.8007C89.0855 48.677 88.9015 48.6152 88.6546 48.6152C88.3986 48.6152 88.1979 48.6709 88.0525 48.7826C87.9071 48.8942 87.8048 49.0135 87.7457 49.1402L87.2368 48.9591C87.3277 48.7479 87.4488 48.5834 87.6003 48.4658C87.7533 48.3466 87.9199 48.2636 88.1002 48.2169C88.2819 48.1686 88.4606 48.1444 88.6364 48.1444C88.7484 48.1444 88.8773 48.158 89.0226 48.1852C89.1696 48.2108 89.3112 48.2644 89.4475 48.3458C89.5854 48.4273 89.6997 48.5503 89.7905 48.7147C89.8815 48.8791 89.9269 49.0994 89.9269 49.3755V51.6656H89.3907V51.1949H89.3634C89.3271 51.2703 89.2665 51.351 89.1816 51.437C89.0968 51.5231 88.984 51.5962 88.8431 51.6566C88.7023 51.7169 88.5304 51.7471 88.3274 51.7471ZM88.4092 51.2673C88.6212 51.2673 88.8 51.2258 88.9454 51.1428C89.0923 51.0599 89.2028 50.9527 89.2771 50.8215C89.3528 50.6903 89.3907 50.5522 89.3907 50.4074V49.9186C89.368 49.9457 89.318 49.9707 89.2407 49.9933C89.165 50.0144 89.0771 50.0332 88.9772 50.0499C88.8788 50.065 88.7826 50.0785 88.6886 50.0906C88.5963 50.1011 88.5213 50.1102 88.4637 50.1178C88.3243 50.1358 88.1941 50.1653 88.0729 50.206C87.9532 50.2452 87.8563 50.3048 87.7821 50.3848C87.7093 50.4632 87.6731 50.5703 87.6731 50.7061C87.6731 50.8916 87.742 51.032 87.8798 51.127C88.0191 51.2206 88.1956 51.2673 88.4092 51.2673ZM91.4418 49.5746V51.6656H90.9056V48.1897H91.4236V48.7329H91.469C91.5508 48.5563 91.6751 48.4145 91.8416 48.3074C92.0083 48.1988 92.2234 48.1444 92.4869 48.1444C92.7232 48.1444 92.93 48.1928 93.1072 48.2893C93.2844 48.3844 93.4223 48.5291 93.5203 48.7237C93.6194 48.9169 93.668 49.1613 93.668 49.4569V51.6656H93.1322V49.4931C93.1322 49.2201 93.061 49.0074 92.9186 48.855C92.7762 48.7011 92.5809 48.6242 92.3324 48.6242C92.1612 48.6242 92.0083 48.6612 91.8735 48.7351C91.7402 48.809 91.6349 48.9169 91.5577 49.0587C91.4804 49.2005 91.4418 49.3725 91.4418 49.5746ZM97.1202 48.9681L96.6388 49.104C96.6079 49.024 96.564 48.9462 96.5042 48.8708C96.4471 48.7939 96.3686 48.7305 96.2686 48.6808C96.1686 48.631 96.0405 48.6061 95.8844 48.6061C95.6703 48.6061 95.4927 48.6551 95.3506 48.7532C95.2095 48.8497 95.1394 48.9727 95.1394 49.122C95.1394 49.2548 95.187 49.3596 95.2843 49.4366C95.3815 49.5135 95.5329 49.5777 95.7386 49.629L96.2564 49.7557C96.5687 49.8311 96.8014 49.9466 96.9547 50.1019C97.1071 50.2558 97.1837 50.4542 97.1837 50.6971C97.1837 50.8962 97.1267 51.0742 97.0108 51.2311C96.8977 51.388 96.7388 51.5117 96.5341 51.6022C96.3293 51.6927 96.0919 51.738 95.8208 51.738C95.4647 51.738 95.1702 51.6611 94.9365 51.5072C94.7038 51.3533 94.5561 51.1285 94.4934 50.8328L95.0029 50.7061C95.0515 50.8931 95.1431 51.0334 95.2777 51.127C95.4142 51.2206 95.5918 51.2673 95.8115 51.2673C96.0611 51.2673 96.2602 51.2145 96.4069 51.1089C96.5556 51.0018 96.6294 50.8736 96.6294 50.7242C96.6294 50.6035 96.5873 50.5025 96.5023 50.421C96.4172 50.338 96.2873 50.2761 96.1115 50.2355L95.5301 50.0996C95.2104 50.0242 94.9758 49.9073 94.8253 49.7489C94.6767 49.5889 94.6028 49.3891 94.6028 49.1492C94.6028 48.953 94.658 48.7796 94.7683 48.6288C94.8804 48.4778 95.0328 48.3594 95.2254 48.2735C95.4189 48.1875 95.6385 48.1444 95.8844 48.1444C96.2293 48.1444 96.5004 48.2199 96.6977 48.3708C96.8958 48.5216 97.037 48.7208 97.1202 48.9681ZM97.9914 52.9691V48.1897H98.5093V48.7419H98.5728C98.6121 48.6816 98.6663 48.6046 98.7364 48.5111C98.8075 48.416 98.9084 48.3315 99.0402 48.2576C99.1739 48.1821 99.3543 48.1444 99.5815 48.1444C99.875 48.1444 100.134 48.2176 100.358 48.364C100.583 48.5103 100.757 48.7178 100.884 48.9863C101.009 49.2548 101.071 49.5716 101.071 49.9367C101.071 50.3048 101.009 50.6239 100.884 50.894C100.757 51.1625 100.584 51.3707 100.361 51.5185C100.138 51.6649 99.8815 51.738 99.5908 51.738C99.3665 51.738 99.187 51.7011 99.0524 51.6272C98.9168 51.5517 98.8131 51.4665 98.7411 51.3714C98.6682 51.2749 98.6121 51.1949 98.5728 51.1316H98.527V52.9691H97.9914ZM98.5177 49.9277C98.5177 50.1901 98.5569 50.4218 98.6336 50.6224C98.7112 50.8215 98.8243 50.9777 98.9729 51.0908C99.1206 51.2024 99.3029 51.2583 99.5179 51.2583C99.7422 51.2583 99.9292 51.1994 100.079 51.0818C100.23 50.9626 100.344 50.8026 100.42 50.602C100.497 50.3999 100.536 50.175 100.536 49.9277C100.536 49.6833 100.498 49.463 100.422 49.2669C100.348 49.0692 100.235 48.9131 100.083 48.7985C99.9339 48.6823 99.745 48.6242 99.5179 48.6242C99.3001 48.6242 99.1159 48.6792 98.9682 48.7894C98.8196 48.898 98.7074 49.0504 98.6317 49.2465C98.556 49.4411 98.5177 49.6682 98.5177 49.9277ZM102.917 51.7471C102.695 51.7471 102.495 51.7056 102.315 51.6226C102.134 51.5382 101.991 51.4167 101.886 51.2583C101.779 51.0983 101.726 50.9052 101.726 50.679C101.726 50.4798 101.766 50.3184 101.845 50.1947C101.923 50.0695 102.029 49.9714 102.161 49.9005C102.292 49.8296 102.437 49.7768 102.596 49.7421C102.757 49.7059 102.919 49.6772 103.08 49.6561C103.293 49.629 103.465 49.6086 103.596 49.595C103.729 49.5799 103.826 49.5551 103.887 49.5203C103.949 49.4856 103.981 49.4253 103.981 49.3393V49.3212C103.981 49.0979 103.919 48.9245 103.796 48.8007C103.675 48.677 103.491 48.6152 103.244 48.6152C102.988 48.6152 102.787 48.6709 102.642 48.7826C102.496 48.8942 102.394 49.0135 102.335 49.1402L101.826 48.9591C101.917 48.7479 102.038 48.5834 102.189 48.4658C102.343 48.3466 102.509 48.2636 102.69 48.2169C102.871 48.1686 103.05 48.1444 103.226 48.1444C103.337 48.1444 103.466 48.158 103.612 48.1852C103.759 48.2108 103.9 48.2644 104.037 48.3458C104.175 48.4273 104.289 48.5503 104.38 48.7147C104.471 48.8791 104.516 49.0994 104.516 49.3755V51.6656H103.981V51.1949H103.952C103.916 51.2703 103.856 51.351 103.771 51.437C103.686 51.5231 103.573 51.5962 103.433 51.6566C103.292 51.7169 103.12 51.7471 102.917 51.7471ZM102.999 51.2673C103.21 51.2673 103.39 51.2258 103.535 51.1428C103.681 51.0599 103.793 50.9527 103.866 50.8215C103.942 50.6903 103.981 50.5522 103.981 50.4074V49.9186C103.957 49.9457 103.908 49.9707 103.83 49.9933C103.754 50.0144 103.666 50.0332 103.566 50.0499C103.468 50.065 103.372 50.0785 103.278 50.0906C103.186 50.1011 103.11 50.1102 103.053 50.1178C102.914 50.1358 102.783 50.1653 102.662 50.206C102.543 50.2452 102.446 50.3048 102.372 50.3848C102.299 50.4632 102.262 50.5703 102.262 50.7061C102.262 50.8916 102.332 51.032 102.469 51.127C102.608 51.2206 102.785 51.2673 102.999 51.2673ZM105.495 51.6656V48.1897H106.013V48.7147H106.049C106.113 48.5427 106.228 48.4032 106.395 48.2961C106.561 48.1889 106.749 48.1354 106.958 48.1354C106.998 48.1354 107.047 48.1362 107.106 48.1376C107.165 48.1391 107.209 48.1415 107.24 48.1444V48.6876C107.221 48.683 107.18 48.6763 107.115 48.6672C107.051 48.6566 106.984 48.6514 106.913 48.6514C106.743 48.6514 106.591 48.6868 106.459 48.7577C106.327 48.8271 106.222 48.9236 106.145 49.0474C106.069 49.1696 106.031 49.3091 106.031 49.466V51.6656H105.495ZM109.232 51.738C108.897 51.738 108.606 51.6641 108.362 51.5163C108.12 51.3668 107.933 51.1587 107.801 50.8916C107.671 50.6231 107.606 50.3109 107.606 49.9548C107.606 49.5988 107.671 49.285 107.801 49.0135C107.933 48.7404 108.116 48.5277 108.351 48.3752C108.587 48.2214 108.863 48.1444 109.178 48.1444C109.359 48.1444 109.539 48.1746 109.716 48.2349C109.894 48.2954 110.055 48.3934 110.201 48.5291C110.345 48.6634 110.461 48.8414 110.548 49.0632C110.634 49.285 110.677 49.558 110.677 49.8824V50.1086H107.987V49.647H110.132C110.132 49.451 110.093 49.2759 110.014 49.122C109.937 48.9681 109.827 48.8467 109.683 48.7577C109.54 48.6687 109.371 48.6242 109.178 48.6242C108.965 48.6242 108.78 48.677 108.624 48.7826C108.469 48.8867 108.351 49.0225 108.267 49.1899C108.183 49.3574 108.142 49.5369 108.142 49.7285V50.0363C108.142 50.2988 108.187 50.5213 108.279 50.7039C108.37 50.8849 108.498 51.0229 108.662 51.118C108.826 51.2115 109.016 51.2583 109.232 51.2583C109.373 51.2583 109.5 51.2386 109.614 51.1994C109.729 51.1587 109.829 51.0983 109.912 51.0184C109.995 50.9369 110.059 50.8359 110.105 50.7151L110.623 50.86C110.569 51.035 110.477 51.1888 110.348 51.3216C110.219 51.4529 110.06 51.5555 109.871 51.6294C109.682 51.7018 109.469 51.738 109.232 51.738ZM112.029 49.5746V51.6656H111.493V48.1897H112.011V48.7329H112.057C112.138 48.5563 112.263 48.4145 112.429 48.3074C112.595 48.1988 112.811 48.1444 113.074 48.1444C113.311 48.1444 113.517 48.1928 113.695 48.2893C113.872 48.3844 114.01 48.5291 114.108 48.7237C114.207 48.9169 114.256 49.1613 114.256 49.4569V51.6656H113.72V49.4931C113.72 49.2201 113.649 49.0074 113.506 48.855C113.364 48.7011 113.169 48.6242 112.92 48.6242C112.749 48.6242 112.595 48.6612 112.461 48.7351C112.328 48.809 112.223 48.9169 112.145 49.0587C112.068 49.2005 112.029 49.3725 112.029 49.5746ZM116.653 51.738C116.326 51.738 116.045 51.6611 115.808 51.5072C115.572 51.3533 115.39 51.1413 115.263 50.8713C115.136 50.6013 115.073 50.2927 115.073 49.9457C115.073 49.5928 115.137 49.2812 115.268 49.0111C115.4 48.7397 115.583 48.5277 115.818 48.3752C116.054 48.2214 116.329 48.1444 116.644 48.1444C116.89 48.1444 117.111 48.1897 117.308 48.2803C117.505 48.3708 117.666 48.4975 117.792 48.6604C117.917 48.8234 117.996 49.0135 118.026 49.2307H117.49C117.449 49.0722 117.358 48.932 117.217 48.8098C117.078 48.686 116.89 48.6242 116.653 48.6242C116.445 48.6242 116.262 48.6785 116.104 48.7871C115.948 48.8942 115.826 49.0459 115.738 49.2419C115.651 49.4366 115.608 49.6652 115.608 49.9277C115.608 50.1962 115.651 50.43 115.735 50.6292C115.822 50.8283 115.943 50.983 116.099 51.093C116.257 51.2032 116.441 51.2583 116.653 51.2583C116.793 51.2583 116.92 51.2341 117.033 51.1859C117.147 51.1375 117.243 51.0682 117.322 50.9777C117.4 50.8872 117.456 50.7785 117.49 50.6518H118.026C117.996 50.857 117.921 51.0418 117.801 51.2062C117.683 51.3692 117.526 51.4989 117.331 51.5954C117.137 51.6905 116.911 51.738 116.653 51.738ZM119.155 52.9691C119.064 52.9691 118.983 52.9615 118.912 52.9464C118.841 52.9328 118.791 52.9193 118.764 52.9057L118.901 52.435C119.031 52.4682 119.146 52.4803 119.246 52.4712C119.346 52.4621 119.434 52.4176 119.512 52.3377C119.59 52.2592 119.662 52.1318 119.728 51.9553L119.828 51.6837L118.537 48.1897H119.118L120.082 50.9595H120.119L121.081 48.1897H121.664L120.182 52.1725C120.116 52.352 120.033 52.5007 119.934 52.6182C119.836 52.7375 119.721 52.8257 119.591 52.883C119.462 52.9404 119.318 52.9691 119.155 52.9691Z" fill="#5E23DC"/>
</g>
</g>
<defs>
<linearGradient id="paint0_linear_2584_11585" x1="73.386" y1="0.507114" x2="73.386" y2="33.0258" gradientUnits="userSpaceOnUse">
<stop stop-color="#5E23DC"/>
<stop offset="1" stop-color="white"/>
</linearGradient>
<clipPath id="clip0_2584_11585">
<rect width="129" height="54" fill="white"/>
</clipPath>
</defs>
</svg>
